G04 #@! TF.GenerationSoftware,KiCad,Pcbnew,9.0.5*
G04 #@! TF.CreationDate,2025-12-25T22:49:50-05:00*
G04 #@! TF.ProjectId,sumobot pcb,73756d6f-626f-4742-9070-63622e6b6963,rev?*
G04 #@! TF.SameCoordinates,Original*
G04 #@! TF.FileFunction,Soldermask,Top*
G04 #@! TF.FilePolarity,Negative*
%FSLAX46Y46*%
G04 Gerber Fmt 4.6, Leading zero omitted, Abs format (unit mm)*
G04 Created by KiCad (PCBNEW 9.0.5) date 2025-12-25 22:49:50*
%MOMM*%
%LPD*%
G01*
G04 APERTURE LIST*
G04 Aperture macros list*
%AMRoundRect*
0 Rectangle with rounded corners*
0 $1 Rounding radius*
0 $2 $3 $4 $5 $6 $7 $8 $9 X,Y pos of 4 corners*
0 Add a 4 corners polygon primitive as box body*
4,1,4,$2,$3,$4,$5,$6,$7,$8,$9,$2,$3,0*
0 Add four circle primitives for the rounded corners*
1,1,$1+$1,$2,$3*
1,1,$1+$1,$4,$5*
1,1,$1+$1,$6,$7*
1,1,$1+$1,$8,$9*
0 Add four rect primitives between the rounded corners*
20,1,$1+$1,$2,$3,$4,$5,0*
20,1,$1+$1,$4,$5,$6,$7,0*
20,1,$1+$1,$6,$7,$8,$9,0*
20,1,$1+$1,$8,$9,$2,$3,0*%
G04 Aperture macros list end*
%ADD10RoundRect,0.225000X-0.225000X-0.250000X0.225000X-0.250000X0.225000X0.250000X-0.225000X0.250000X0*%
%ADD11RoundRect,0.250000X0.450000X-0.262500X0.450000X0.262500X-0.450000X0.262500X-0.450000X-0.262500X0*%
%ADD12RoundRect,0.250000X0.262500X0.450000X-0.262500X0.450000X-0.262500X-0.450000X0.262500X-0.450000X0*%
%ADD13R,2.750000X1.000000*%
%ADD14C,1.700000*%
%ADD15R,1.700000X1.700000*%
%ADD16RoundRect,0.500000X0.500000X1.000000X-0.500000X1.000000X-0.500000X-1.000000X0.500000X-1.000000X0*%
%ADD17RoundRect,0.225000X-0.250000X0.225000X-0.250000X-0.225000X0.250000X-0.225000X0.250000X0.225000X0*%
%ADD18RoundRect,0.250000X0.475000X-0.250000X0.475000X0.250000X-0.475000X0.250000X-0.475000X-0.250000X0*%
%ADD19RoundRect,0.250000X-0.250000X-0.475000X0.250000X-0.475000X0.250000X0.475000X-0.250000X0.475000X0*%
%ADD20RoundRect,0.250000X0.250000X0.475000X-0.250000X0.475000X-0.250000X-0.475000X0.250000X-0.475000X0*%
%ADD21RoundRect,0.250000X-0.475000X0.250000X-0.475000X-0.250000X0.475000X-0.250000X0.475000X0.250000X0*%
%ADD22RoundRect,0.180000X0.420000X0.420000X-0.420000X0.420000X-0.420000X-0.420000X0.420000X-0.420000X0*%
%ADD23RoundRect,0.180000X0.420000X-0.420000X0.420000X0.420000X-0.420000X0.420000X-0.420000X-0.420000X0*%
%ADD24RoundRect,0.218750X-0.256250X0.218750X-0.256250X-0.218750X0.256250X-0.218750X0.256250X0.218750X0*%
%ADD25RoundRect,0.218750X-0.218750X-0.256250X0.218750X-0.256250X0.218750X0.256250X-0.218750X0.256250X0*%
%ADD26RoundRect,0.218750X0.256250X-0.218750X0.256250X0.218750X-0.256250X0.218750X-0.256250X-0.218750X0*%
%ADD27RoundRect,0.150000X-0.350000X-0.750000X0.350000X-0.750000X0.350000X0.750000X-0.350000X0.750000X0*%
%ADD28C,2.000000*%
%ADD29RoundRect,0.250001X1.449999X-0.499999X1.449999X0.499999X-1.449999X0.499999X-1.449999X-0.499999X0*%
%ADD30RoundRect,0.250000X1.500000X-0.250000X1.500000X0.250000X-1.500000X0.250000X-1.500000X-0.250000X0*%
%ADD31O,1.000000X1.800000*%
%ADD32O,1.000000X2.100000*%
%ADD33RoundRect,0.150000X0.150000X0.350000X-0.150000X0.350000X-0.150000X-0.350000X0.150000X-0.350000X0*%
%ADD34RoundRect,0.075000X0.075000X0.500000X-0.075000X0.500000X-0.075000X-0.500000X0.075000X-0.500000X0*%
%ADD35C,0.650000*%
%ADD36RoundRect,0.250001X-0.499999X-1.449999X0.499999X-1.449999X0.499999X1.449999X-0.499999X1.449999X0*%
%ADD37RoundRect,0.250000X-0.250000X-1.500000X0.250000X-1.500000X0.250000X1.500000X-0.250000X1.500000X0*%
%ADD38RoundRect,0.150000X-0.150000X0.512500X-0.150000X-0.512500X0.150000X-0.512500X0.150000X0.512500X0*%
%ADD39RoundRect,0.075000X0.700000X-0.075000X0.700000X0.075000X-0.700000X0.075000X-0.700000X-0.075000X0*%
%ADD40RoundRect,0.075000X0.075000X-0.700000X0.075000X0.700000X-0.075000X0.700000X-0.075000X-0.700000X0*%
%ADD41RoundRect,0.168750X-0.208750X-0.168750X0.208750X-0.168750X0.208750X0.168750X-0.208750X0.168750X0*%
%ADD42RoundRect,0.375000X0.625000X0.375000X-0.625000X0.375000X-0.625000X-0.375000X0.625000X-0.375000X0*%
%ADD43RoundRect,0.500000X0.500000X1.400000X-0.500000X1.400000X-0.500000X-1.400000X0.500000X-1.400000X0*%
%ADD44RoundRect,0.050000X-0.285000X-0.100000X0.285000X-0.100000X0.285000X0.100000X-0.285000X0.100000X0*%
%ADD45RoundRect,0.100000X0.100000X-0.850000X0.100000X0.850000X-0.100000X0.850000X-0.100000X-0.850000X0*%
%ADD46RoundRect,0.100000X-0.100000X0.850000X-0.100000X-0.850000X0.100000X-0.850000X0.100000X0.850000X0*%
%ADD47R,1.000000X1.800000*%
%ADD48RoundRect,0.250000X0.325000X0.250000X-0.325000X0.250000X-0.325000X-0.250000X0.325000X-0.250000X0*%
%ADD49C,2.100000*%
%ADD50RoundRect,0.250001X-0.799999X-0.799999X0.799999X-0.799999X0.799999X0.799999X-0.799999X0.799999X0*%
%ADD51RoundRect,0.225000X0.250000X-0.225000X0.250000X0.225000X-0.250000X0.225000X-0.250000X-0.225000X0*%
%ADD52C,0.700000*%
%ADD53C,4.400000*%
%ADD54RoundRect,0.250000X-0.450000X0.262500X-0.450000X-0.262500X0.450000X-0.262500X0.450000X0.262500X0*%
%ADD55RoundRect,0.102000X0.830000X0.300000X-0.830000X0.300000X-0.830000X-0.300000X0.830000X-0.300000X0*%
%ADD56RoundRect,0.250000X-0.625000X0.375000X-0.625000X-0.375000X0.625000X-0.375000X0.625000X0.375000X0*%
%ADD57RoundRect,0.225000X0.225000X0.250000X-0.225000X0.250000X-0.225000X-0.250000X0.225000X-0.250000X0*%
%ADD58RoundRect,0.250000X0.600000X0.600000X-0.600000X0.600000X-0.600000X-0.600000X0.600000X-0.600000X0*%
%ADD59RoundRect,0.250000X-0.262500X-0.450000X0.262500X-0.450000X0.262500X0.450000X-0.262500X0.450000X0*%
%ADD60RoundRect,0.218750X0.218750X0.256250X-0.218750X0.256250X-0.218750X-0.256250X0.218750X-0.256250X0*%
%ADD61RoundRect,0.250200X-0.649800X-0.649800X0.649800X-0.649800X0.649800X0.649800X-0.649800X0.649800X0*%
%ADD62C,1.800000*%
%ADD63RoundRect,0.250000X-0.375000X-0.625000X0.375000X-0.625000X0.375000X0.625000X-0.375000X0.625000X0*%
%ADD64RoundRect,0.250001X0.799999X0.799999X-0.799999X0.799999X-0.799999X-0.799999X0.799999X-0.799999X0*%
G04 APERTURE END LIST*
D10*
G04 #@! TO.C,C12*
X141925000Y-77075000D03*
X140375000Y-77075000D03*
G04 #@! TD*
D11*
G04 #@! TO.C,R9*
X143525000Y-73462500D03*
X143525000Y-75287500D03*
G04 #@! TD*
D12*
G04 #@! TO.C,R8*
X136962500Y-77275000D03*
X138787500Y-77275000D03*
G04 #@! TD*
D13*
G04 #@! TO.C,SW2*
X135075000Y-70550000D03*
X140825000Y-70550000D03*
X135075000Y-74550000D03*
X140825000Y-74550000D03*
G04 #@! TD*
D14*
G04 #@! TO.C,J8*
X144155000Y-80285000D03*
X141615000Y-80285000D03*
X139075000Y-80285000D03*
X136535000Y-80285000D03*
D15*
X133995000Y-80285000D03*
G04 #@! TD*
D16*
G04 #@! TO.C,L1*
X174522500Y-93450000D03*
X170472500Y-93450000D03*
G04 #@! TD*
D10*
G04 #@! TO.C,C14*
X126550000Y-104600000D03*
X125000000Y-104600000D03*
G04 #@! TD*
D17*
G04 #@! TO.C,C15*
X128425000Y-104400000D03*
X128425000Y-102850000D03*
G04 #@! TD*
D18*
G04 #@! TO.C,C17*
X176501388Y-98234088D03*
X176501388Y-100134088D03*
G04 #@! TD*
G04 #@! TO.C,C19*
X147052616Y-81567598D03*
X147052616Y-83467598D03*
G04 #@! TD*
G04 #@! TO.C,C22*
X152778616Y-81168598D03*
X152778616Y-83068598D03*
G04 #@! TD*
D19*
G04 #@! TO.C,C26*
X152028616Y-79268598D03*
X150128616Y-79268598D03*
G04 #@! TD*
G04 #@! TO.C,C30*
X173389377Y-106246955D03*
X171489377Y-106246955D03*
G04 #@! TD*
D20*
G04 #@! TO.C,C31*
X165020000Y-87455000D03*
X166920000Y-87455000D03*
G04 #@! TD*
D21*
G04 #@! TO.C,C34*
X179000000Y-110950000D03*
X179000000Y-109050000D03*
G04 #@! TD*
D18*
G04 #@! TO.C,C35*
X170395000Y-82980000D03*
X170395000Y-84880000D03*
G04 #@! TD*
D22*
G04 #@! TO.C,D1*
X126700000Y-84550000D03*
X129900000Y-84550000D03*
G04 #@! TD*
D23*
G04 #@! TO.C,D2*
X176850000Y-91050000D03*
X176850000Y-94250000D03*
G04 #@! TD*
D24*
G04 #@! TO.C,D3*
X166050000Y-95787500D03*
X166050000Y-94212500D03*
G04 #@! TD*
G04 #@! TO.C,D4*
X139625000Y-104950000D03*
X139625000Y-103375000D03*
G04 #@! TD*
D25*
G04 #@! TO.C,D6*
X146142500Y-92085000D03*
X144567500Y-92085000D03*
G04 #@! TD*
D26*
G04 #@! TO.C,D7*
X117775000Y-115262500D03*
X117775000Y-116837500D03*
G04 #@! TD*
G04 #@! TO.C,D8*
X106000000Y-115137500D03*
X106000000Y-116712500D03*
G04 #@! TD*
G04 #@! TO.C,D9*
X143275000Y-115387500D03*
X143275000Y-116962500D03*
G04 #@! TD*
G04 #@! TO.C,D10*
X154550000Y-115712500D03*
X154550000Y-117287500D03*
G04 #@! TD*
D27*
G04 #@! TO.C,F3*
X130675000Y-79400000D03*
X127875000Y-79400000D03*
G04 #@! TD*
D26*
G04 #@! TO.C,FB1*
X129975000Y-105087500D03*
X129975000Y-106662500D03*
G04 #@! TD*
D28*
G04 #@! TO.C,FM1*
X108100000Y-73600000D03*
G04 #@! TD*
G04 #@! TO.C,FM2*
X102400000Y-118075000D03*
G04 #@! TD*
G04 #@! TO.C,FM3*
X186850000Y-76300000D03*
G04 #@! TD*
D29*
G04 #@! TO.C,J1*
X192775000Y-89975000D03*
X192775000Y-96675000D03*
D30*
X187025000Y-92325000D03*
X187025000Y-94325000D03*
G04 #@! TD*
D31*
G04 #@! TO.C,J2*
X119605000Y-70810000D03*
D32*
X119605000Y-74990000D03*
D31*
X128245000Y-70810000D03*
D32*
X128245000Y-74990000D03*
D33*
X127125000Y-75640000D03*
X126325000Y-75640000D03*
D34*
X125675000Y-75565000D03*
X124675000Y-75565000D03*
X123175000Y-75565000D03*
X122175000Y-75565000D03*
D33*
X121525000Y-75640000D03*
X120725000Y-75640000D03*
X120725000Y-75640000D03*
X121525000Y-75640000D03*
D34*
X122675000Y-75565000D03*
X123675000Y-75565000D03*
X124175000Y-75565000D03*
X125175000Y-75565000D03*
D33*
X126325000Y-75640000D03*
X127125000Y-75640000D03*
D35*
X121035000Y-74490000D03*
X126815000Y-74490000D03*
G04 #@! TD*
D29*
G04 #@! TO.C,J3*
X192775000Y-80500000D03*
X192775000Y-87200000D03*
D30*
X187025000Y-82850000D03*
X187025000Y-84850000D03*
G04 #@! TD*
D36*
G04 #@! TO.C,J7*
X141737500Y-124825000D03*
X131037500Y-124825000D03*
D37*
X139387500Y-119075000D03*
X137387500Y-119075000D03*
X135387500Y-119075000D03*
X133387500Y-119075000D03*
G04 #@! TD*
D36*
G04 #@! TO.C,J10*
X127981250Y-124825000D03*
X119281250Y-124825000D03*
D37*
X125631250Y-119075000D03*
X123631250Y-119075000D03*
X121631250Y-119075000D03*
G04 #@! TD*
D36*
G04 #@! TO.C,J11*
X116225000Y-124842500D03*
X107525000Y-124842500D03*
D37*
X113875000Y-119092500D03*
X111875000Y-119092500D03*
X109875000Y-119092500D03*
G04 #@! TD*
D36*
G04 #@! TO.C,J12*
X165250000Y-124825000D03*
X156550000Y-124825000D03*
D37*
X162900000Y-119075000D03*
X160900000Y-119075000D03*
X158900000Y-119075000D03*
G04 #@! TD*
G04 #@! TO.C,J13*
X147143750Y-119075000D03*
X149143750Y-119075000D03*
X151143750Y-119075000D03*
D36*
X144793750Y-124825000D03*
X153493750Y-124825000D03*
G04 #@! TD*
D38*
G04 #@! TO.C,U1*
X124962500Y-81612500D03*
X124012500Y-81612500D03*
X123062500Y-81612500D03*
X123062500Y-79337500D03*
X124012500Y-79337500D03*
X124962500Y-79337500D03*
G04 #@! TD*
D39*
G04 #@! TO.C,U2*
X120325000Y-97350000D03*
X120325000Y-96850000D03*
X120325000Y-96350000D03*
X120325000Y-95850000D03*
X120325000Y-95350000D03*
X120325000Y-94850000D03*
X120325000Y-94350000D03*
X120325000Y-93850000D03*
X120325000Y-93350000D03*
X120325000Y-92850000D03*
X120325000Y-92350000D03*
X120325000Y-91850000D03*
X120325000Y-91350000D03*
X120325000Y-90850000D03*
X120325000Y-90350000D03*
X120325000Y-89850000D03*
D40*
X122250000Y-87925000D03*
X122750000Y-87925000D03*
X123250000Y-87925000D03*
X123750000Y-87925000D03*
X124250000Y-87925000D03*
X124750000Y-87925000D03*
X125250000Y-87925000D03*
X125750000Y-87925000D03*
X126250000Y-87925000D03*
X126750000Y-87925000D03*
X127250000Y-87925000D03*
X127750000Y-87925000D03*
X128250000Y-87925000D03*
X128750000Y-87925000D03*
X129250000Y-87925000D03*
X129750000Y-87925000D03*
D39*
X131675000Y-89850000D03*
X131675000Y-90350000D03*
X131675000Y-90850000D03*
X131675000Y-91350000D03*
X131675000Y-91850000D03*
X131675000Y-92350000D03*
X131675000Y-92850000D03*
X131675000Y-93350000D03*
X131675000Y-93850000D03*
X131675000Y-94350000D03*
X131675000Y-94850000D03*
X131675000Y-95350000D03*
X131675000Y-95850000D03*
X131675000Y-96350000D03*
X131675000Y-96850000D03*
X131675000Y-97350000D03*
D40*
X129750000Y-99275000D03*
X129250000Y-99275000D03*
X128750000Y-99275000D03*
X128250000Y-99275000D03*
X127750000Y-99275000D03*
X127250000Y-99275000D03*
X126750000Y-99275000D03*
X126250000Y-99275000D03*
X125750000Y-99275000D03*
X125250000Y-99275000D03*
X124750000Y-99275000D03*
X124250000Y-99275000D03*
X123750000Y-99275000D03*
X123250000Y-99275000D03*
X122750000Y-99275000D03*
X122250000Y-99275000D03*
G04 #@! TD*
D41*
G04 #@! TO.C,U3*
X174725000Y-99025000D03*
X174725000Y-99964500D03*
X174725000Y-100904000D03*
X171931000Y-100904000D03*
X171931000Y-99964500D03*
X171931000Y-99025000D03*
G04 #@! TD*
D42*
G04 #@! TO.C,U4*
X149956481Y-106315236D03*
D43*
X143656481Y-108615236D03*
D42*
X149956481Y-108615236D03*
X149956481Y-110915236D03*
G04 #@! TD*
D44*
G04 #@! TO.C,U5*
X150277616Y-81517598D03*
X150277616Y-82017598D03*
X150277616Y-82517598D03*
X150277616Y-83017598D03*
X148797616Y-83017598D03*
X148797616Y-82517598D03*
X148797616Y-82017598D03*
X148797616Y-81517598D03*
G04 #@! TD*
D45*
G04 #@! TO.C,U7*
X167825000Y-109075000D03*
X168475000Y-109075000D03*
X169125000Y-109075000D03*
X169775000Y-109075000D03*
X170425000Y-109075000D03*
X171075000Y-109075000D03*
X171725000Y-109075000D03*
X172375000Y-109075000D03*
X173025000Y-109075000D03*
X173675000Y-109075000D03*
X174325000Y-109075000D03*
X174975000Y-109075000D03*
X174975000Y-116075000D03*
X174325000Y-116075000D03*
X173675000Y-116075000D03*
X173025000Y-116075000D03*
X172375000Y-116075000D03*
X171725000Y-116075000D03*
X171075000Y-116075000D03*
X170425000Y-116075000D03*
X169775000Y-116075000D03*
X169125000Y-116075000D03*
X168475000Y-116075000D03*
X167825000Y-116075000D03*
G04 #@! TD*
D46*
G04 #@! TO.C,U8*
X168520000Y-84955000D03*
X167870000Y-84955000D03*
X167220000Y-84955000D03*
X166570000Y-84955000D03*
X165920000Y-84955000D03*
X165270000Y-84955000D03*
X164620000Y-84955000D03*
X163970000Y-84955000D03*
X163320000Y-84955000D03*
X162670000Y-84955000D03*
X162020000Y-84955000D03*
X161370000Y-84955000D03*
X161370000Y-77955000D03*
X162020000Y-77955000D03*
X162670000Y-77955000D03*
X163320000Y-77955000D03*
X163970000Y-77955000D03*
X164620000Y-77955000D03*
X165270000Y-77955000D03*
X165920000Y-77955000D03*
X166570000Y-77955000D03*
X167220000Y-77955000D03*
X167870000Y-77955000D03*
X168520000Y-77955000D03*
G04 #@! TD*
D47*
G04 #@! TO.C,X1*
X120475000Y-102175000D03*
X122975000Y-102175000D03*
G04 #@! TD*
D48*
G04 #@! TO.C,X2*
X126750000Y-103000000D03*
X125000000Y-103000000D03*
X125000000Y-101600000D03*
X126750000Y-101600000D03*
G04 #@! TD*
D11*
G04 #@! TO.C,R17*
X154325000Y-97537500D03*
X154325000Y-99362500D03*
G04 #@! TD*
D49*
G04 #@! TO.C,J14*
X179150000Y-122625000D03*
D50*
X176610000Y-122625000D03*
G04 #@! TD*
D11*
G04 #@! TO.C,R19*
X119600000Y-115062500D03*
X119600000Y-116887500D03*
G04 #@! TD*
G04 #@! TO.C,R20*
X107800000Y-114862500D03*
X107800000Y-116687500D03*
G04 #@! TD*
D19*
G04 #@! TO.C,C24*
X168100000Y-97575000D03*
X170000000Y-97575000D03*
G04 #@! TD*
D51*
G04 #@! TO.C,C6*
X118025000Y-99025000D03*
X118025000Y-97475000D03*
G04 #@! TD*
D11*
G04 #@! TO.C,R1*
X181625000Y-83987500D03*
X181625000Y-82162500D03*
G04 #@! TD*
D52*
G04 #@! TO.C,H2*
X188350000Y-122425000D03*
X188833274Y-121258274D03*
X188833274Y-123591726D03*
X190000000Y-120775000D03*
D53*
X190000000Y-122425000D03*
D52*
X190000000Y-124075000D03*
X191166726Y-121258274D03*
X191166726Y-123591726D03*
X191650000Y-122425000D03*
G04 #@! TD*
D21*
G04 #@! TO.C,C32*
X176850000Y-109050000D03*
X176850000Y-110950000D03*
G04 #@! TD*
D52*
G04 #@! TO.C,H3*
X100625000Y-122425000D03*
X101108274Y-121258274D03*
X101108274Y-123591726D03*
X102275000Y-120775000D03*
D53*
X102275000Y-122425000D03*
D52*
X102275000Y-124075000D03*
X103441726Y-121258274D03*
X103441726Y-123591726D03*
X103925000Y-122425000D03*
G04 #@! TD*
D10*
G04 #@! TO.C,C5*
X129125000Y-101300000D03*
X130675000Y-101300000D03*
G04 #@! TD*
D54*
G04 #@! TO.C,R12*
X152653616Y-85006098D03*
X152653616Y-86831098D03*
G04 #@! TD*
D19*
G04 #@! TO.C,C25*
X152031481Y-110185236D03*
X153931481Y-110185236D03*
G04 #@! TD*
D17*
G04 #@! TO.C,C10*
X118925000Y-102075000D03*
X118925000Y-103625000D03*
G04 #@! TD*
D21*
G04 #@! TO.C,C27*
X152250000Y-93700000D03*
X152250000Y-95600000D03*
G04 #@! TD*
D51*
G04 #@! TO.C,C13*
X116475000Y-99025000D03*
X116475000Y-97475000D03*
G04 #@! TD*
D19*
G04 #@! TO.C,C18*
X152031481Y-106002736D03*
X153931481Y-106002736D03*
G04 #@! TD*
D11*
G04 #@! TO.C,R22*
X145100000Y-116837500D03*
X145100000Y-115012500D03*
G04 #@! TD*
D55*
G04 #@! TO.C,Q1*
X179500000Y-84995000D03*
X179500000Y-83725000D03*
X179500000Y-82455000D03*
X179500000Y-81185000D03*
X174250000Y-81185000D03*
X174250000Y-82455000D03*
X174250000Y-83725000D03*
X174250000Y-84995000D03*
G04 #@! TD*
D56*
G04 #@! TO.C,F1*
X178801388Y-97204088D03*
X178801388Y-100004088D03*
G04 #@! TD*
D51*
G04 #@! TO.C,C8*
X117291156Y-87070243D03*
X117291156Y-85520243D03*
G04 #@! TD*
D15*
G04 #@! TO.C,SW1*
X179275000Y-71300000D03*
D14*
X181815000Y-71300000D03*
G04 #@! TD*
D19*
G04 #@! TO.C,C36*
X126675000Y-82675000D03*
X128575000Y-82675000D03*
G04 #@! TD*
D52*
G04 #@! TO.C,H1*
X188350000Y-73090000D03*
X188833274Y-71923274D03*
X188833274Y-74256726D03*
X190000000Y-71440000D03*
D53*
X190000000Y-73090000D03*
D52*
X190000000Y-74740000D03*
X191166726Y-71923274D03*
X191166726Y-74256726D03*
X191650000Y-73090000D03*
G04 #@! TD*
D18*
G04 #@! TO.C,C2*
X119091156Y-87250243D03*
X119091156Y-85350243D03*
G04 #@! TD*
D15*
G04 #@! TO.C,J9*
X159700000Y-98639813D03*
D14*
X157160000Y-98639813D03*
G04 #@! TD*
D57*
G04 #@! TO.C,C21*
X173975000Y-97350000D03*
X172425000Y-97350000D03*
G04 #@! TD*
D11*
G04 #@! TO.C,R21*
X156350000Y-117312500D03*
X156350000Y-115487500D03*
G04 #@! TD*
D57*
G04 #@! TO.C,C11*
X122975000Y-104125000D03*
X121425000Y-104125000D03*
G04 #@! TD*
D15*
G04 #@! TO.C,J6*
X126435000Y-112000000D03*
D14*
X128975000Y-112000000D03*
X131515000Y-112000000D03*
G04 #@! TD*
D58*
G04 #@! TO.C,J4*
X108885000Y-105260000D03*
D14*
X106345000Y-105260000D03*
X108885000Y-102720000D03*
X106345000Y-102720000D03*
X108885000Y-100180000D03*
X106345000Y-100180000D03*
X108885000Y-97640000D03*
X106345000Y-97640000D03*
X108885000Y-95100000D03*
X106345000Y-95100000D03*
X108885000Y-92560000D03*
X106345000Y-92560000D03*
X108885000Y-90020000D03*
X106345000Y-90020000D03*
X108885000Y-87480000D03*
X106345000Y-87480000D03*
X108885000Y-84940000D03*
X106345000Y-84940000D03*
X108885000Y-82400000D03*
X106345000Y-82400000D03*
G04 #@! TD*
D21*
G04 #@! TO.C,C16*
X117075000Y-101475000D03*
X117075000Y-103375000D03*
G04 #@! TD*
D11*
G04 #@! TO.C,R3*
X117525000Y-74237500D03*
X117525000Y-72412500D03*
G04 #@! TD*
D54*
G04 #@! TO.C,R18*
X147850000Y-90262500D03*
X147850000Y-92087500D03*
G04 #@! TD*
D11*
G04 #@! TO.C,R16*
X141350000Y-104912500D03*
X141350000Y-103087500D03*
G04 #@! TD*
D59*
G04 #@! TO.C,R11*
X148966116Y-84968598D03*
X150791116Y-84968598D03*
G04 #@! TD*
D50*
G04 #@! TO.C,J15*
X169575000Y-122625000D03*
D49*
X172115000Y-122625000D03*
G04 #@! TD*
D19*
G04 #@! TO.C,C4*
X130000000Y-103350000D03*
X131900000Y-103350000D03*
G04 #@! TD*
D60*
G04 #@! TO.C,D5*
X157912500Y-95975000D03*
X156337500Y-95975000D03*
G04 #@! TD*
D52*
G04 #@! TO.C,H4*
X100625000Y-73090000D03*
X101108274Y-71923274D03*
X101108274Y-74256726D03*
X102275000Y-71440000D03*
D53*
X102275000Y-73090000D03*
D52*
X102275000Y-74740000D03*
X103441726Y-71923274D03*
X103441726Y-74256726D03*
X103925000Y-73090000D03*
G04 #@! TD*
D11*
G04 #@! TO.C,R14*
X169850000Y-101712500D03*
X169850000Y-99887500D03*
G04 #@! TD*
D19*
G04 #@! TO.C,C28*
X171464377Y-104146955D03*
X173364377Y-104146955D03*
G04 #@! TD*
D12*
G04 #@! TO.C,R10*
X178113888Y-101959088D03*
X176288888Y-101959088D03*
G04 #@! TD*
D18*
G04 #@! TO.C,C33*
X159495000Y-84280000D03*
X159495000Y-82380000D03*
G04 #@! TD*
D17*
G04 #@! TO.C,C7*
X133750000Y-89825000D03*
X133750000Y-91375000D03*
G04 #@! TD*
D19*
G04 #@! TO.C,C20*
X152031481Y-108093986D03*
X153931481Y-108093986D03*
G04 #@! TD*
D61*
G04 #@! TO.C,U6*
X144960000Y-94600000D03*
D62*
X147500000Y-94600000D03*
X150040000Y-94600000D03*
G04 #@! TD*
D63*
G04 #@! TO.C,F2*
X150006481Y-103727736D03*
X152806481Y-103727736D03*
G04 #@! TD*
D54*
G04 #@! TO.C,R7*
X101585000Y-92617500D03*
X101585000Y-94442500D03*
G04 #@! TD*
D11*
G04 #@! TO.C,R2*
X181625000Y-80512500D03*
X181625000Y-78687500D03*
G04 #@! TD*
G04 #@! TO.C,R4*
X130350000Y-74087500D03*
X130350000Y-72262500D03*
G04 #@! TD*
D17*
G04 #@! TO.C,C9*
X133675000Y-96350000D03*
X133675000Y-97900000D03*
G04 #@! TD*
D12*
G04 #@! TO.C,R23*
X151475000Y-91905000D03*
X149650000Y-91905000D03*
G04 #@! TD*
D64*
G04 #@! TO.C,J16*
X164275000Y-72950000D03*
D49*
X161735000Y-72950000D03*
G04 #@! TD*
D54*
G04 #@! TO.C,R13*
X167825000Y-99887500D03*
X167825000Y-101712500D03*
G04 #@! TD*
D64*
G04 #@! TO.C,J17*
X171150000Y-72950000D03*
D49*
X168610000Y-72950000D03*
G04 #@! TD*
D54*
G04 #@! TO.C,R6*
X101685000Y-84767500D03*
X101685000Y-86592500D03*
G04 #@! TD*
D21*
G04 #@! TO.C,C1*
X131750000Y-105150000D03*
X131750000Y-107050000D03*
G04 #@! TD*
D11*
G04 #@! TO.C,R15*
X167875000Y-95725000D03*
X167875000Y-93900000D03*
G04 #@! TD*
G04 #@! TO.C,R5*
X101585000Y-82067500D03*
X101585000Y-80242500D03*
G04 #@! TD*
D51*
G04 #@! TO.C,C3*
X120916156Y-87295243D03*
X120916156Y-85745243D03*
G04 #@! TD*
D18*
G04 #@! TO.C,C23*
X143431481Y-104177736D03*
X143431481Y-102277736D03*
G04 #@! TD*
D20*
G04 #@! TO.C,C29*
X166917500Y-89530000D03*
X165017500Y-89530000D03*
G04 #@! TD*
M02*
