M48
; DRILL file {KiCad 9.0.5} date 2025-12-25T22:49:53-0500
; FORMAT={-:-/ absolute / metric / decimal}
; #@! TF.CreationDate,2025-12-25T22:49:53-05:00
; #@! TF.GenerationSoftware,Kicad,Pcbnew,9.0.5
; #@! TF.FileFunction,Plated,1,4,PTH
FMAT,2
METRIC
; #@! TA.AperFunction,Plated,PTH,ViaDrill
T1C0.300
; #@! TA.AperFunction,Plated,PTH,ComponentDrill
T2C0.400
; #@! TA.AperFunction,Plated,PTH,ComponentDrill
T3C0.600
; #@! TA.AperFunction,Plated,PTH,ComponentDrill
T4C0.900
; #@! TA.AperFunction,Plated,PTH,ComponentDrill
T5C1.000
; #@! TA.AperFunction,Plated,PTH,ComponentDrill
T6C1.100
; #@! TA.AperFunction,Plated,PTH,ComponentDrill
T7C2.200
%
G90
G05
T1
X101.585Y-95.83
X101.6Y-79.045
X101.685Y-87.767
X103.835Y-84.63
X106.117Y-107.55
X107.133Y-107.55
X108.15Y-107.55
X108.45Y-117.925
X109.167Y-107.55
X109.325Y-116.75
X110.335Y-84.905
X110.5Y-116.725
X111.635Y-90.78
X111.747Y-94.672
X113.875Y-116.605
X114.062Y-72.938
X115.325Y-70.375
X115.35Y-92.85
X116.3Y-88.425
X116.35Y-100.225
X116.475Y-96.35
X116.725Y-91.95
X117.1Y-104.525
X117.291Y-84.245
X117.425Y-100.225
X118.075Y-95.675
X118.176Y-91.051
X118.5Y-100.2
X118.558Y-88.37
X118.9Y-104.7
X119.066Y-84.02
X119.362Y-108.787
X119.491Y-88.37
X119.65Y-100.175
X120.0Y-77.15
X120.05Y-104.7
X120.25Y-99.35
X120.3Y-98.3
X120.375Y-118.2
X120.424Y-88.37
X120.916Y-84.445
X120.95Y-116.875
X121.325Y-99.425
X121.358Y-88.37
X121.4Y-105.25
X121.525Y-77.5
X122.075Y-93.475
X122.1Y-116.825
X122.725Y-86.35
X122.987Y-94.962
X123.137Y-109.625
X124.025Y-80.375
X124.025Y-82.825
X124.525Y-90.25
X125.625Y-94.125
X125.625Y-95.925
X125.631Y-116.311
X125.75Y-86.175
X126.2Y-105.9
X126.45Y-109.675
X126.6Y-78.275
X126.6Y-97.475
X126.625Y-79.225
X126.65Y-80.175
X127.475Y-105.875
X128.2Y-84.0
X128.45Y-90.5
X128.5Y-76.875
X128.75Y-105.875
X128.975Y-109.7
X129.825Y-93.15
X129.85Y-95.55
X129.975Y-107.75
X131.725Y-100.975
X131.75Y-101.85
X133.05Y-102.675
X133.05Y-103.625
X133.375Y-111.95
X133.5Y-105.175
X133.55Y-107.625
X134.0Y-82.3
X134.075Y-92.85
X134.925Y-90.15
X134.95Y-96.75
X135.0Y-98.55
X135.15Y-85.45
X135.55Y-100.925
X135.625Y-93.6
X135.662Y-95.337
X136.1Y-91.1
X136.475Y-72.925
X136.8Y-116.05
X137.025Y-78.55
X137.45Y-95.375
X138.206Y-82.375
X138.725Y-116.475
X139.55Y-89.65
X139.625Y-102.262
X139.675Y-87.8
X139.85Y-116.5
X139.925Y-72.975
X140.7Y-107.575
X140.7Y-108.725
X140.725Y-109.925
X141.375Y-88.75
X141.63Y-81.96
X141.85Y-106.4
X141.875Y-107.525
X141.875Y-108.675
X141.9Y-109.875
X141.925Y-111.05
X143.037Y-77.075
X143.1Y-98.575
X143.801Y-82.101
X144.875Y-102.3
X145.8Y-118.025
X146.45Y-80.15
X146.475Y-116.9
X147.225Y-102.65
X147.225Y-104.6
X147.3Y-106.575
X147.5Y-96.35
X147.575Y-116.775
X147.963Y-78.118
X147.963Y-79.043
X147.988Y-80.043
X148.375Y-103.5
X148.4Y-104.6
X148.4Y-105.775
X148.4Y-106.825
X148.706Y-102.253
X148.913Y-78.118
X148.913Y-79.043
X148.938Y-80.043
X149.331Y-112.628
X149.638Y-80.743
X149.65Y-102.2
X149.675Y-90.6
X149.938Y-77.843
X150.613Y-80.743
X150.8Y-112.628
X151.125Y-116.4
X151.654Y-77.644
X152.269Y-112.628
X153.625Y-95.612
X153.738Y-112.628
X153.756Y-111.578
X153.991Y-86.831
X154.054Y-81.169
X155.106Y-107.384
X155.106Y-108.695
X155.106Y-110.006
X155.106Y-111.317
X155.106Y-112.628
X155.15Y-102.2
X155.156Y-105.928
X157.7Y-117.85
X158.1Y-116.8
X158.325Y-88.75
X159.1Y-95.275
X159.15Y-96.3
X159.375Y-116.75
X159.47Y-81.23
X159.725Y-89.64
X160.0Y-87.88
X160.075Y-96.9
X161.525Y-97.95
X161.575Y-99.15
X162.55Y-79.625
X162.875Y-116.475
X163.525Y-79.625
X163.845Y-88.805
X163.845Y-89.855
X164.9Y-94.25
X166.475Y-79.75
X167.45Y-79.75
X168.172Y-86.772
X168.195Y-87.905
X168.195Y-88.98
X168.22Y-90.055
X168.225Y-91.075
X168.907Y-114.376
X169.882Y-114.376
X169.95Y-98.825
X170.211Y-103.128
X170.225Y-104.05
X170.225Y-104.975
X170.275Y-105.9
X170.3Y-106.85
X170.395Y-81.805
X170.975Y-99.965
X171.1Y-97.562
X172.807Y-114.451
X173.782Y-114.451
X174.414Y-104.172
X174.539Y-106.297
X176.5Y-97.025
X176.85Y-89.85
X176.85Y-112.025
X177.15Y-70.2
X177.15Y-71.3
X177.15Y-72.4
X178.975Y-112.1
X186.9Y-81.775
X187.875Y-81.775
X188.825Y-81.75
T2
X100.625Y-73.09
X100.625Y-122.425
X101.108Y-71.923
X101.108Y-74.257
X101.108Y-121.258
X101.108Y-123.592
X102.275Y-71.44
X102.275Y-74.74
X102.275Y-120.775
X102.275Y-124.075
X103.442Y-71.923
X103.442Y-74.257
X103.442Y-121.258
X103.442Y-123.592
X103.925Y-73.09
X103.925Y-122.425
X188.35Y-73.09
X188.35Y-122.425
X188.833Y-71.923
X188.833Y-74.257
X188.833Y-121.258
X188.833Y-123.592
X190.0Y-71.44
X190.0Y-74.74
X190.0Y-120.775
X190.0Y-124.075
X191.167Y-71.923
X191.167Y-74.257
X191.167Y-121.258
X191.167Y-123.592
X191.65Y-73.09
X191.65Y-122.425
T4
X144.96Y-94.6
X147.5Y-94.6
X150.04Y-94.6
T5
X106.345Y-82.4
X106.345Y-84.94
X106.345Y-87.48
X106.345Y-90.02
X106.345Y-92.56
X106.345Y-95.1
X106.345Y-97.64
X106.345Y-100.18
X106.345Y-102.72
X106.345Y-105.26
X108.885Y-82.4
X108.885Y-84.94
X108.885Y-87.48
X108.885Y-90.02
X108.885Y-92.56
X108.885Y-95.1
X108.885Y-97.64
X108.885Y-100.18
X108.885Y-102.72
X108.885Y-105.26
X126.435Y-112.0
X128.975Y-112.0
X131.515Y-112.0
X133.995Y-80.285
X136.535Y-80.285
X139.075Y-80.285
X141.615Y-80.285
X144.155Y-80.285
X157.16Y-98.64
X159.7Y-98.64
X179.275Y-71.3
X181.815Y-71.3
T6
X161.735Y-72.95
X164.275Y-72.95
X168.61Y-72.95
X169.575Y-122.625
X171.15Y-72.95
X172.115Y-122.625
X176.61Y-122.625
X179.15Y-122.625
T7
X102.275Y-73.09
X102.275Y-122.425
X190.0Y-73.09
X190.0Y-122.425
T3
X119.605Y-71.21G85X119.605Y-70.41
G05
X119.605Y-75.54G85X119.605Y-74.44
G05
X128.245Y-71.21G85X128.245Y-70.41
G05
X128.245Y-75.54G85X128.245Y-74.44
G05
M30
