G04 #@! TF.GenerationSoftware,KiCad,Pcbnew,9.0.5*
G04 #@! TF.CreationDate,2025-12-25T22:49:49-05:00*
G04 #@! TF.ProjectId,sumobot pcb,73756d6f-626f-4742-9070-63622e6b6963,rev?*
G04 #@! TF.SameCoordinates,Original*
G04 #@! TF.FileFunction,Copper,L4,Bot*
G04 #@! TF.FilePolarity,Positive*
%FSLAX46Y46*%
G04 Gerber Fmt 4.6, Leading zero omitted, Abs format (unit mm)*
G04 Created by KiCad (PCBNEW 9.0.5) date 2025-12-25 22:49:49*
%MOMM*%
%LPD*%
G01*
G04 APERTURE LIST*
G04 Aperture macros list*
%AMRoundRect*
0 Rectangle with rounded corners*
0 $1 Rounding radius*
0 $2 $3 $4 $5 $6 $7 $8 $9 X,Y pos of 4 corners*
0 Add a 4 corners polygon primitive as box body*
4,1,4,$2,$3,$4,$5,$6,$7,$8,$9,$2,$3,0*
0 Add four circle primitives for the rounded corners*
1,1,$1+$1,$2,$3*
1,1,$1+$1,$4,$5*
1,1,$1+$1,$6,$7*
1,1,$1+$1,$8,$9*
0 Add four rect primitives between the rounded corners*
20,1,$1+$1,$2,$3,$4,$5,0*
20,1,$1+$1,$4,$5,$6,$7,0*
20,1,$1+$1,$6,$7,$8,$9,0*
20,1,$1+$1,$8,$9,$2,$3,0*%
G04 Aperture macros list end*
G04 #@! TA.AperFunction,ComponentPad*
%ADD10C,1.700000*%
G04 #@! TD*
G04 #@! TA.AperFunction,ComponentPad*
%ADD11R,1.700000X1.700000*%
G04 #@! TD*
G04 #@! TA.AperFunction,HeatsinkPad*
%ADD12O,1.000000X1.800000*%
G04 #@! TD*
G04 #@! TA.AperFunction,HeatsinkPad*
%ADD13O,1.000000X2.100000*%
G04 #@! TD*
G04 #@! TA.AperFunction,ComponentPad*
%ADD14C,2.100000*%
G04 #@! TD*
G04 #@! TA.AperFunction,ComponentPad*
%ADD15RoundRect,0.250001X-0.799999X-0.799999X0.799999X-0.799999X0.799999X0.799999X-0.799999X0.799999X0*%
G04 #@! TD*
G04 #@! TA.AperFunction,ComponentPad*
%ADD16C,0.700000*%
G04 #@! TD*
G04 #@! TA.AperFunction,ComponentPad*
%ADD17C,4.400000*%
G04 #@! TD*
G04 #@! TA.AperFunction,ComponentPad*
%ADD18RoundRect,0.250000X0.600000X0.600000X-0.600000X0.600000X-0.600000X-0.600000X0.600000X-0.600000X0*%
G04 #@! TD*
G04 #@! TA.AperFunction,ComponentPad*
%ADD19RoundRect,0.250200X-0.649800X-0.649800X0.649800X-0.649800X0.649800X0.649800X-0.649800X0.649800X0*%
G04 #@! TD*
G04 #@! TA.AperFunction,ComponentPad*
%ADD20C,1.800000*%
G04 #@! TD*
G04 #@! TA.AperFunction,ComponentPad*
%ADD21RoundRect,0.250001X0.799999X0.799999X-0.799999X0.799999X-0.799999X-0.799999X0.799999X-0.799999X0*%
G04 #@! TD*
G04 #@! TA.AperFunction,ViaPad*
%ADD22C,0.650000*%
G04 #@! TD*
G04 #@! TA.AperFunction,ViaPad*
%ADD23C,0.700000*%
G04 #@! TD*
G04 #@! TA.AperFunction,Conductor*
%ADD24C,0.800000*%
G04 #@! TD*
G04 #@! TA.AperFunction,Conductor*
%ADD25C,0.200000*%
G04 #@! TD*
G04 #@! TA.AperFunction,Conductor*
%ADD26C,0.500000*%
G04 #@! TD*
G04 APERTURE END LIST*
D10*
G04 #@! TO.P,J8,5,Pin_5*
G04 #@! TO.N,+PWR_5V*
X144155000Y-80285000D03*
G04 #@! TO.P,J8,4,Pin_4*
G04 #@! TO.N,GND*
X141615000Y-80285000D03*
G04 #@! TO.P,J8,3,Pin_3*
G04 #@! TO.N,UART_TX*
X139075000Y-80285000D03*
G04 #@! TO.P,J8,2,Pin_2*
G04 #@! TO.N,UART_RX*
X136535000Y-80285000D03*
D11*
G04 #@! TO.P,J8,1,Pin_1*
G04 #@! TO.N,+3.3V*
X133995000Y-80285000D03*
G04 #@! TD*
D12*
G04 #@! TO.P,J2,S1,SHIELD*
G04 #@! TO.N,GND*
X119605000Y-70810000D03*
D13*
X119605000Y-74990000D03*
D12*
X128245000Y-70810000D03*
D13*
X128245000Y-74990000D03*
G04 #@! TD*
D14*
G04 #@! TO.P,J14,2,Pin_2*
G04 #@! TO.N,ML_BACK_B01*
X179150000Y-122625000D03*
D15*
G04 #@! TO.P,J14,1,Pin_1*
G04 #@! TO.N,ML_BACK_B02*
X176610000Y-122625000D03*
G04 #@! TD*
D16*
G04 #@! TO.P,H2,1,1*
G04 #@! TO.N,GND*
X188350000Y-122425000D03*
X188833274Y-121258274D03*
X188833274Y-123591726D03*
X190000000Y-120775000D03*
D17*
X190000000Y-122425000D03*
D16*
X190000000Y-124075000D03*
X191166726Y-121258274D03*
X191166726Y-123591726D03*
X191650000Y-122425000D03*
G04 #@! TD*
G04 #@! TO.P,H3,1,1*
G04 #@! TO.N,GND*
X100625000Y-122425000D03*
X101108274Y-121258274D03*
X101108274Y-123591726D03*
X102275000Y-120775000D03*
D17*
X102275000Y-122425000D03*
D16*
X102275000Y-124075000D03*
X103441726Y-121258274D03*
X103441726Y-123591726D03*
X103925000Y-122425000D03*
G04 #@! TD*
D11*
G04 #@! TO.P,SW1,1,A*
G04 #@! TO.N,GND*
X179275000Y-71300000D03*
D10*
G04 #@! TO.P,SW1,2,B*
G04 #@! TO.N,/SW1_TERM2*
X181815000Y-71300000D03*
G04 #@! TD*
D16*
G04 #@! TO.P,H1,1,1*
G04 #@! TO.N,GND*
X188350000Y-73090000D03*
X188833274Y-71923274D03*
X188833274Y-74256726D03*
X190000000Y-71440000D03*
D17*
X190000000Y-73090000D03*
D16*
X190000000Y-74740000D03*
X191166726Y-71923274D03*
X191166726Y-74256726D03*
X191650000Y-73090000D03*
G04 #@! TD*
D11*
G04 #@! TO.P,J9,1,Pin_1*
G04 #@! TO.N,GND*
X159700000Y-98639813D03*
D10*
G04 #@! TO.P,J9,2,Pin_2*
G04 #@! TO.N,TEST LED*
X157160000Y-98639813D03*
G04 #@! TD*
D11*
G04 #@! TO.P,J6,1,Pin_1*
G04 #@! TO.N,GND*
X126435000Y-112000000D03*
D10*
G04 #@! TO.P,J6,2,Pin_2*
G04 #@! TO.N,+3.3V*
X128975000Y-112000000D03*
G04 #@! TO.P,J6,3,Pin_3*
G04 #@! TO.N,+PWR_5V*
X131515000Y-112000000D03*
G04 #@! TD*
D18*
G04 #@! TO.P,J4,1,VTREF*
G04 #@! TO.N,+3.3V*
X108885000Y-105260000D03*
D10*
G04 #@! TO.P,J4,2,VCC/NC*
X106345000Y-105260000D03*
G04 #@! TO.P,J4,3,~{TRST}*
G04 #@! TO.N,SWD_TRST*
X108885000Y-102720000D03*
G04 #@! TO.P,J4,4,GND*
G04 #@! TO.N,GND*
X106345000Y-102720000D03*
G04 #@! TO.P,J4,5,TDI*
G04 #@! TO.N,SWD_TDI*
X108885000Y-100180000D03*
G04 #@! TO.P,J4,6,GND*
G04 #@! TO.N,GND*
X106345000Y-100180000D03*
G04 #@! TO.P,J4,7,TMS/SWDIO*
G04 #@! TO.N,SWD_DIO*
X108885000Y-97640000D03*
G04 #@! TO.P,J4,8,GND*
G04 #@! TO.N,GND*
X106345000Y-97640000D03*
G04 #@! TO.P,J4,9,TCK/SWCLK*
G04 #@! TO.N,SWD_CLK*
X108885000Y-95100000D03*
G04 #@! TO.P,J4,10,GND*
G04 #@! TO.N,GND*
X106345000Y-95100000D03*
G04 #@! TO.P,J4,11,RTCK*
G04 #@! TO.N,/SWDC_RTCK*
X108885000Y-92560000D03*
G04 #@! TO.P,J4,12,GND*
G04 #@! TO.N,GND*
X106345000Y-92560000D03*
G04 #@! TO.P,J4,13,TDO/SWO*
G04 #@! TO.N,SWD_TDO*
X108885000Y-90020000D03*
G04 #@! TO.P,J4,14,GND*
G04 #@! TO.N,GND*
X106345000Y-90020000D03*
G04 #@! TO.P,J4,15,~{SRST}*
G04 #@! TO.N,/NRST*
X108885000Y-87480000D03*
G04 #@! TO.P,J4,16,GND*
G04 #@! TO.N,GND*
X106345000Y-87480000D03*
G04 #@! TO.P,J4,17,DBGRQ/NC*
G04 #@! TO.N,/SWDC_DBGRQ*
X108885000Y-84940000D03*
G04 #@! TO.P,J4,18,GND*
G04 #@! TO.N,GND*
X106345000Y-84940000D03*
G04 #@! TO.P,J4,19,DBGACK/NC*
G04 #@! TO.N,/SWDC_DBGACK*
X108885000Y-82400000D03*
G04 #@! TO.P,J4,20,GND*
G04 #@! TO.N,GND*
X106345000Y-82400000D03*
G04 #@! TD*
D15*
G04 #@! TO.P,J15,1,Pin_1*
G04 #@! TO.N,ML_FRONT_AO1*
X169575000Y-122625000D03*
D14*
G04 #@! TO.P,J15,2,Pin_2*
G04 #@! TO.N,ML_FRONT_AO2*
X172115000Y-122625000D03*
G04 #@! TD*
D16*
G04 #@! TO.P,H4,1,1*
G04 #@! TO.N,GND*
X100625000Y-73090000D03*
X101108274Y-71923274D03*
X101108274Y-74256726D03*
X102275000Y-71440000D03*
D17*
X102275000Y-73090000D03*
D16*
X102275000Y-74740000D03*
X103441726Y-71923274D03*
X103441726Y-74256726D03*
X103925000Y-73090000D03*
G04 #@! TD*
D19*
G04 #@! TO.P,U6,1,OUT*
G04 #@! TO.N,IR_REMOTE*
X144960000Y-94600000D03*
D20*
G04 #@! TO.P,U6,2,GND*
G04 #@! TO.N,GND*
X147500000Y-94600000D03*
G04 #@! TO.P,U6,3,Vs*
G04 #@! TO.N,/Sumo sensors and Motors/TSOP_VS_3.3*
X150040000Y-94600000D03*
G04 #@! TD*
D21*
G04 #@! TO.P,J16,1,Pin_1*
G04 #@! TO.N,MR_FRONT_BO2*
X164275000Y-72950000D03*
D14*
G04 #@! TO.P,J16,2,Pin_2*
G04 #@! TO.N,MR_FRONT_BO1*
X161735000Y-72950000D03*
G04 #@! TD*
D21*
G04 #@! TO.P,J17,1,Pin_1*
G04 #@! TO.N,MR_BACK_A01*
X171150000Y-72950000D03*
D14*
G04 #@! TO.P,J17,2,Pin_2*
G04 #@! TO.N,MR_BACK_A02*
X168610000Y-72950000D03*
G04 #@! TD*
D22*
G04 #@! TO.N,/SW2_TERM1*
X139925000Y-72975000D03*
X136475000Y-72925000D03*
D23*
G04 #@! TO.N,GND*
X137025000Y-78550000D03*
X143037500Y-77075000D03*
G04 #@! TO.N,+3.3V*
X134000000Y-82300000D03*
G04 #@! TO.N,GND*
X141630000Y-81960000D03*
G04 #@! TO.N,+PWR_5V*
X143801250Y-82101250D03*
D22*
G04 #@! TO.N,MOTOR_LEFT_CH1*
X135662500Y-95337500D03*
D23*
G04 #@! TO.N,LD_BACK_RIGHT*
X134075000Y-92850000D03*
G04 #@! TO.N,GND*
X126200000Y-105900000D03*
X127475000Y-105875000D03*
X139625000Y-102262500D03*
X164900000Y-94250000D03*
G04 #@! TO.N,+PWR_5V*
X149937569Y-77842598D03*
X147962569Y-78117598D03*
X147987569Y-80042598D03*
X147962569Y-79042598D03*
G04 #@! TO.N,+3.3V*
X170210623Y-103128045D03*
X168225000Y-91075000D03*
G04 #@! TO.N,+PWR_5V*
X147225000Y-104600000D03*
X147300000Y-106575000D03*
X147225000Y-102650000D03*
G04 #@! TO.N,+3.3V*
X140700000Y-108725000D03*
X140725000Y-109925000D03*
X140700000Y-107575000D03*
D22*
G04 #@! TO.N,LD_FRONT_RIGHT*
X125625000Y-94125000D03*
D23*
G04 #@! TO.N,+3.3V*
X170225000Y-104050000D03*
X129975000Y-107750000D03*
X118557823Y-88370243D03*
X118500000Y-100200000D03*
X108150000Y-107550000D03*
X121357823Y-88370243D03*
X149675000Y-90600000D03*
X134925000Y-90150000D03*
X170275000Y-105900000D03*
X141875000Y-108675000D03*
X119650000Y-100175000D03*
X168171904Y-86771556D03*
X141925000Y-111050000D03*
X168195000Y-88980000D03*
X121325000Y-99425000D03*
X170300000Y-106850000D03*
X106116667Y-107550000D03*
X128975000Y-109700000D03*
X116350000Y-100225000D03*
X141900000Y-109875000D03*
X120300000Y-98300000D03*
X141875000Y-107525000D03*
X134950000Y-96750000D03*
X168195000Y-87905000D03*
X117425000Y-100225000D03*
X120424490Y-88370243D03*
X119491156Y-88370243D03*
X109166667Y-107550000D03*
X141850000Y-106400000D03*
X133500000Y-105175000D03*
X168220000Y-90055000D03*
X120250000Y-99350000D03*
X107133334Y-107550000D03*
X170225000Y-104975000D03*
G04 #@! TO.N,GND*
X169950000Y-98825000D03*
X155106481Y-111316736D03*
X168907148Y-114376044D03*
X118900000Y-104700000D03*
X153625000Y-95612500D03*
X128200000Y-84000000D03*
X159150000Y-96300000D03*
X177150000Y-72400000D03*
X128750000Y-105875000D03*
X117100000Y-104525000D03*
X120050000Y-104700000D03*
X118075000Y-95675000D03*
X153737731Y-112627736D03*
X169882148Y-114376044D03*
X155106481Y-110005736D03*
X174539377Y-106296955D03*
X151653616Y-77643598D03*
X153756481Y-111577736D03*
X128500000Y-76875000D03*
X147500000Y-96350000D03*
X188825000Y-81750000D03*
X113875000Y-116605000D03*
X172807148Y-114451044D03*
X153991116Y-86831098D03*
X133050000Y-102675000D03*
X101585000Y-95830000D03*
X166475000Y-79750000D03*
X170975000Y-99964500D03*
X155106481Y-108694736D03*
X136100000Y-91100000D03*
X163845000Y-89855000D03*
X173782148Y-114451044D03*
X176850000Y-89850000D03*
X161575000Y-99150000D03*
X151125000Y-116400000D03*
X154053616Y-81168598D03*
X159100000Y-95275000D03*
X144875000Y-102300000D03*
X155106481Y-107383736D03*
X170395000Y-81805000D03*
X176850000Y-112025000D03*
X146450000Y-80150000D03*
X126600000Y-97475000D03*
X186900000Y-81775000D03*
X161525000Y-97950000D03*
X174414377Y-104171955D03*
X155106481Y-112627736D03*
X135000000Y-98550000D03*
X149331481Y-112627736D03*
X125631250Y-116311250D03*
X126450000Y-109675000D03*
X131750000Y-101850000D03*
X162550000Y-79625000D03*
X121400000Y-105250000D03*
X160075000Y-96900000D03*
X136800000Y-116050000D03*
X124025000Y-80375000D03*
X117291156Y-84245243D03*
X116475000Y-96350000D03*
X122725000Y-86350000D03*
X159470000Y-81230000D03*
X120000000Y-77150000D03*
X187875000Y-81775000D03*
X178975000Y-112100000D03*
X152268981Y-112627736D03*
X162875000Y-116475000D03*
X176500000Y-97025000D03*
X177150000Y-71300000D03*
X163525000Y-79625000D03*
X131725000Y-100975000D03*
X101600000Y-79045000D03*
X133050000Y-103625000D03*
X163845000Y-88805000D03*
X171100000Y-97562500D03*
X101685000Y-87767500D03*
X155156481Y-105927736D03*
X119066156Y-84020243D03*
X120916156Y-84445243D03*
X177150000Y-70200000D03*
X150800231Y-112627736D03*
X133550000Y-107625000D03*
X167450000Y-79750000D03*
D22*
G04 #@! TO.N,/BOOT0*
X122987500Y-94962500D03*
X138206000Y-82375000D03*
D23*
G04 #@! TO.N,+PWR_5V*
X148400000Y-104600000D03*
X108450000Y-117925000D03*
X148706481Y-102252736D03*
X148912569Y-79042598D03*
X149637569Y-80742598D03*
X150612569Y-80742598D03*
X139850000Y-116500000D03*
X146475000Y-116900000D03*
X109325000Y-116750000D03*
X148937569Y-80042598D03*
X149650000Y-102200000D03*
X148400000Y-106825000D03*
X122100000Y-116825000D03*
X138725000Y-116475000D03*
X120950000Y-116875000D03*
X159375000Y-116750000D03*
X147575000Y-116775000D03*
X133375000Y-111950000D03*
X110500000Y-116725000D03*
X145800000Y-118025000D03*
X148912569Y-78117598D03*
X158100000Y-116800000D03*
X120375000Y-118200000D03*
X157700000Y-117850000D03*
X148400000Y-105775000D03*
X148375000Y-103500000D03*
G04 #@! TO.N,/VBUS*
X126650000Y-80175000D03*
X124025000Y-82825000D03*
X126625000Y-79225000D03*
X126600000Y-78275000D03*
X121525000Y-77500000D03*
D22*
G04 #@! TO.N,TEST LED*
X135625000Y-93600000D03*
X129825000Y-93150000D03*
G04 #@! TO.N,IR_REMOTE*
X135150000Y-85450000D03*
X125750000Y-86175000D03*
G04 #@! TO.N,SWD_TDO*
X111635000Y-90780000D03*
X115350000Y-92850000D03*
G04 #@! TO.N,SWD_DIO*
X111747500Y-94672500D03*
X122075000Y-93475000D03*
G04 #@! TO.N,UART_RX*
X114062500Y-72937500D03*
X116725000Y-91950000D03*
G04 #@! TO.N,UART_TX*
X118175766Y-91050766D03*
X115325000Y-70375000D03*
G04 #@! TO.N,LD_FRONT_RIGHT*
X119362500Y-108787500D03*
G04 #@! TO.N,LD_BACK_LEFT*
X129850000Y-95550000D03*
X135550000Y-100925000D03*
G04 #@! TO.N,LD_BACK_RIGHT*
X137450000Y-95375000D03*
G04 #@! TO.N,MOTOR_RIGHT_CH2*
X158325000Y-88750000D03*
X141375000Y-88750000D03*
G04 #@! TO.N,MOTOR_PWM_LEFT*
X155150000Y-102200000D03*
X128450000Y-90500000D03*
G04 #@! TO.N,MOTOR_PWM_RIGHT*
X139675000Y-87800000D03*
X160000000Y-87880000D03*
G04 #@! TO.N,MOTOR_RIGHT_CH1*
X159725000Y-89640000D03*
X139550000Y-89650000D03*
G04 #@! TO.N,MOTOR_LEFT_CH1*
X143100000Y-98575000D03*
G04 #@! TO.N,/SWDC_DBGRQ*
X110335000Y-84905000D03*
X103835000Y-84630000D03*
G04 #@! TO.N,/NRST*
X124525000Y-90250000D03*
X116300000Y-88425000D03*
G04 #@! TO.N,LD_FRONT_LEFT*
X125625000Y-95925000D03*
X123137500Y-109625000D03*
G04 #@! TD*
D24*
G04 #@! TO.N,+3.3V*
X134000000Y-82300000D02*
X134000000Y-80290000D01*
D25*
G04 #@! TO.N,/SW2_TERM1*
X136575000Y-72975000D02*
X139925000Y-72975000D01*
X136525000Y-72925000D02*
X136575000Y-72975000D01*
X136475000Y-72925000D02*
X136525000Y-72925000D01*
D26*
G04 #@! TO.N,+3.3V*
X134000000Y-80290000D02*
X133995000Y-80285000D01*
D25*
G04 #@! TO.N,/NRST*
X116175000Y-89300000D02*
X116325000Y-89450000D01*
X116175000Y-88550000D02*
X116175000Y-89300000D01*
X116325000Y-89450000D02*
X123925000Y-89450000D01*
X116300000Y-88425000D02*
X116175000Y-88550000D01*
X123925000Y-89450000D02*
X124525000Y-90050000D01*
X124525000Y-90050000D02*
X124525000Y-90250000D01*
G04 #@! TO.N,UART_RX*
X115525000Y-91950000D02*
X116725000Y-91950000D01*
X113925000Y-73075000D02*
X113925000Y-90350000D01*
X113925000Y-90350000D02*
X115525000Y-91950000D01*
X114062500Y-72937500D02*
X113925000Y-73075000D01*
G04 #@! TO.N,UART_TX*
X115100000Y-70600000D02*
X115325000Y-70375000D01*
X115100000Y-89800000D02*
X115100000Y-70600000D01*
X116425000Y-91125000D02*
X115100000Y-89800000D01*
X118101533Y-91125000D02*
X116425000Y-91125000D01*
X118175766Y-91050766D02*
X118101533Y-91125000D01*
G04 #@! TO.N,LD_FRONT_LEFT*
X123137500Y-106487500D02*
X123137500Y-109625000D01*
X125625000Y-95925000D02*
X125600000Y-95950000D01*
X125600000Y-104025000D02*
X123137500Y-106487500D01*
X125600000Y-95950000D02*
X125600000Y-104025000D01*
G04 #@! TO.N,LD_FRONT_RIGHT*
X123850000Y-104300000D02*
X119362500Y-108787500D01*
X123850000Y-96050000D02*
X123850000Y-104300000D01*
X125550000Y-94200000D02*
X125550000Y-94350000D01*
X125625000Y-94125000D02*
X125550000Y-94200000D01*
X125550000Y-94350000D02*
X123850000Y-96050000D01*
G04 #@! TO.N,IR_REMOTE*
X126150000Y-85575000D02*
X125750000Y-85975000D01*
X135025000Y-85575000D02*
X126150000Y-85575000D01*
X135150000Y-85450000D02*
X135025000Y-85575000D01*
G04 #@! TO.N,SWD_DIO*
X122075000Y-93500000D02*
X122075000Y-93475000D01*
X120925000Y-94650000D02*
X122075000Y-93500000D01*
X111770000Y-94650000D02*
X120925000Y-94650000D01*
X111747500Y-94672500D02*
X111770000Y-94650000D01*
G04 #@! TO.N,LD_BACK_LEFT*
X135450000Y-100925000D02*
X135550000Y-100925000D01*
X134550000Y-100025000D02*
X135450000Y-100925000D01*
X129850000Y-96000000D02*
X133875000Y-100025000D01*
X129850000Y-95550000D02*
X129850000Y-96000000D01*
X133875000Y-100025000D02*
X134550000Y-100025000D01*
D24*
G04 #@! TO.N,+3.3V*
X128975000Y-109700000D02*
X128975000Y-112000000D01*
D25*
G04 #@! TO.N,/BOOT0*
X122987500Y-94787500D02*
X122987500Y-94962500D01*
X133825000Y-88325000D02*
X129450000Y-88325000D01*
X138125000Y-84025000D02*
X133825000Y-88325000D01*
X138125000Y-82456000D02*
X138125000Y-84025000D01*
X129450000Y-88325000D02*
X122987500Y-94787500D01*
X138206000Y-82375000D02*
X138125000Y-82456000D01*
G04 #@! TO.N,TEST LED*
X130600000Y-93600000D02*
X130150000Y-93150000D01*
X130150000Y-93150000D02*
X129825000Y-93150000D01*
X135625000Y-93600000D02*
X130600000Y-93600000D01*
G04 #@! TO.N,SWD_TDO*
X115350000Y-92850000D02*
X113705000Y-92850000D01*
X113705000Y-92850000D02*
X111635000Y-90780000D01*
G04 #@! TO.N,LD_BACK_RIGHT*
X137450000Y-95275000D02*
X137475000Y-95250000D01*
X137450000Y-95375000D02*
X137450000Y-95275000D01*
X137475000Y-93350000D02*
X136825000Y-92700000D01*
X137475000Y-95250000D02*
X137475000Y-93350000D01*
X136825000Y-92700000D02*
X134225000Y-92700000D01*
X134225000Y-92700000D02*
X134075000Y-92850000D01*
G04 #@! TO.N,MOTOR_RIGHT_CH2*
X158325000Y-88750000D02*
X141375000Y-88750000D01*
G04 #@! TO.N,MOTOR_PWM_LEFT*
X138125000Y-92100000D02*
X147375000Y-101350000D01*
X147375000Y-101350000D02*
X152575000Y-101350000D01*
X152575000Y-101350000D02*
X153425000Y-102200000D01*
X153425000Y-102200000D02*
X155150000Y-102200000D01*
X130050000Y-92100000D02*
X138125000Y-92100000D01*
X128450000Y-90500000D02*
X130050000Y-92100000D01*
G04 #@! TO.N,MOTOR_PWM_RIGHT*
X139675000Y-87800000D02*
X159525000Y-87800000D01*
X160000000Y-87880000D02*
X159720000Y-87880000D01*
X159640000Y-87800000D02*
X159525000Y-87800000D01*
X159720000Y-87880000D02*
X159640000Y-87800000D01*
G04 #@! TO.N,MOTOR_RIGHT_CH1*
X159725000Y-89640000D02*
X159595000Y-89770000D01*
X139550000Y-89650000D02*
X159715000Y-89650000D01*
X159715000Y-89650000D02*
X159725000Y-89640000D01*
X159595000Y-89770000D02*
X159595000Y-89805000D01*
G04 #@! TO.N,MOTOR_LEFT_CH1*
X135662500Y-95337500D02*
X136675000Y-96350000D01*
X136675000Y-96350000D02*
X140900000Y-96350000D01*
X140900000Y-96350000D02*
X143100000Y-98550000D01*
X143100000Y-98550000D02*
X143100000Y-98575000D01*
G04 #@! TO.N,/SWDC_DBGRQ*
X104810000Y-80680000D02*
X103835000Y-81655000D01*
X109760000Y-80680000D02*
X104810000Y-80680000D01*
X110335000Y-84905000D02*
X110335000Y-81255000D01*
X110335000Y-81255000D02*
X109760000Y-80680000D01*
X103835000Y-81655000D02*
X103835000Y-84630000D01*
G04 #@! TD*
M02*
