G04 #@! TF.GenerationSoftware,KiCad,Pcbnew,9.0.5*
G04 #@! TF.CreationDate,2025-12-25T22:49:49-05:00*
G04 #@! TF.ProjectId,sumobot pcb,73756d6f-626f-4742-9070-63622e6b6963,rev?*
G04 #@! TF.SameCoordinates,Original*
G04 #@! TF.FileFunction,Copper,L3,Inr*
G04 #@! TF.FilePolarity,Positive*
%FSLAX46Y46*%
G04 Gerber Fmt 4.6, Leading zero omitted, Abs format (unit mm)*
G04 Created by KiCad (PCBNEW 9.0.5) date 2025-12-25 22:49:49*
%MOMM*%
%LPD*%
G01*
G04 APERTURE LIST*
G04 Aperture macros list*
%AMRoundRect*
0 Rectangle with rounded corners*
0 $1 Rounding radius*
0 $2 $3 $4 $5 $6 $7 $8 $9 X,Y pos of 4 corners*
0 Add a 4 corners polygon primitive as box body*
4,1,4,$2,$3,$4,$5,$6,$7,$8,$9,$2,$3,0*
0 Add four circle primitives for the rounded corners*
1,1,$1+$1,$2,$3*
1,1,$1+$1,$4,$5*
1,1,$1+$1,$6,$7*
1,1,$1+$1,$8,$9*
0 Add four rect primitives between the rounded corners*
20,1,$1+$1,$2,$3,$4,$5,0*
20,1,$1+$1,$4,$5,$6,$7,0*
20,1,$1+$1,$6,$7,$8,$9,0*
20,1,$1+$1,$8,$9,$2,$3,0*%
G04 Aperture macros list end*
G04 #@! TA.AperFunction,ComponentPad*
%ADD10C,1.700000*%
G04 #@! TD*
G04 #@! TA.AperFunction,ComponentPad*
%ADD11R,1.700000X1.700000*%
G04 #@! TD*
G04 #@! TA.AperFunction,HeatsinkPad*
%ADD12O,1.000000X1.800000*%
G04 #@! TD*
G04 #@! TA.AperFunction,HeatsinkPad*
%ADD13O,1.000000X2.100000*%
G04 #@! TD*
G04 #@! TA.AperFunction,ComponentPad*
%ADD14C,2.100000*%
G04 #@! TD*
G04 #@! TA.AperFunction,ComponentPad*
%ADD15RoundRect,0.250001X-0.799999X-0.799999X0.799999X-0.799999X0.799999X0.799999X-0.799999X0.799999X0*%
G04 #@! TD*
G04 #@! TA.AperFunction,ComponentPad*
%ADD16C,0.700000*%
G04 #@! TD*
G04 #@! TA.AperFunction,ComponentPad*
%ADD17C,4.400000*%
G04 #@! TD*
G04 #@! TA.AperFunction,ComponentPad*
%ADD18RoundRect,0.250000X0.600000X0.600000X-0.600000X0.600000X-0.600000X-0.600000X0.600000X-0.600000X0*%
G04 #@! TD*
G04 #@! TA.AperFunction,ComponentPad*
%ADD19RoundRect,0.250200X-0.649800X-0.649800X0.649800X-0.649800X0.649800X0.649800X-0.649800X0.649800X0*%
G04 #@! TD*
G04 #@! TA.AperFunction,ComponentPad*
%ADD20C,1.800000*%
G04 #@! TD*
G04 #@! TA.AperFunction,ComponentPad*
%ADD21RoundRect,0.250001X0.799999X0.799999X-0.799999X0.799999X-0.799999X-0.799999X0.799999X-0.799999X0*%
G04 #@! TD*
G04 #@! TA.AperFunction,ViaPad*
%ADD22C,0.650000*%
G04 #@! TD*
G04 #@! TA.AperFunction,ViaPad*
%ADD23C,0.700000*%
G04 #@! TD*
G04 #@! TA.AperFunction,Conductor*
%ADD24C,0.800000*%
G04 #@! TD*
G04 APERTURE END LIST*
D10*
G04 #@! TO.N,+PWR_5V*
G04 #@! TO.C,J8*
X144155000Y-80285000D03*
G04 #@! TO.N,GND*
X141615000Y-80285000D03*
G04 #@! TO.N,UART_TX*
X139075000Y-80285000D03*
G04 #@! TO.N,UART_RX*
X136535000Y-80285000D03*
D11*
G04 #@! TO.N,+3.3V*
X133995000Y-80285000D03*
G04 #@! TD*
D12*
G04 #@! TO.N,GND*
G04 #@! TO.C,J2*
X119605000Y-70810000D03*
D13*
X119605000Y-74990000D03*
D12*
X128245000Y-70810000D03*
D13*
X128245000Y-74990000D03*
G04 #@! TD*
D14*
G04 #@! TO.N,ML_BACK_B01*
G04 #@! TO.C,J14*
X179150000Y-122625000D03*
D15*
G04 #@! TO.N,ML_BACK_B02*
X176610000Y-122625000D03*
G04 #@! TD*
D16*
G04 #@! TO.N,GND*
G04 #@! TO.C,H2*
X188350000Y-122425000D03*
X188833274Y-121258274D03*
X188833274Y-123591726D03*
X190000000Y-120775000D03*
D17*
X190000000Y-122425000D03*
D16*
X190000000Y-124075000D03*
X191166726Y-121258274D03*
X191166726Y-123591726D03*
X191650000Y-122425000D03*
G04 #@! TD*
G04 #@! TO.N,GND*
G04 #@! TO.C,H3*
X100625000Y-122425000D03*
X101108274Y-121258274D03*
X101108274Y-123591726D03*
X102275000Y-120775000D03*
D17*
X102275000Y-122425000D03*
D16*
X102275000Y-124075000D03*
X103441726Y-121258274D03*
X103441726Y-123591726D03*
X103925000Y-122425000D03*
G04 #@! TD*
D11*
G04 #@! TO.N,GND*
G04 #@! TO.C,SW1*
X179275000Y-71300000D03*
D10*
G04 #@! TO.N,/SW1_TERM2*
X181815000Y-71300000D03*
G04 #@! TD*
D16*
G04 #@! TO.N,GND*
G04 #@! TO.C,H1*
X188350000Y-73090000D03*
X188833274Y-71923274D03*
X188833274Y-74256726D03*
X190000000Y-71440000D03*
D17*
X190000000Y-73090000D03*
D16*
X190000000Y-74740000D03*
X191166726Y-71923274D03*
X191166726Y-74256726D03*
X191650000Y-73090000D03*
G04 #@! TD*
D11*
G04 #@! TO.N,GND*
G04 #@! TO.C,J9*
X159700000Y-98639813D03*
D10*
G04 #@! TO.N,TEST LED*
X157160000Y-98639813D03*
G04 #@! TD*
D11*
G04 #@! TO.N,GND*
G04 #@! TO.C,J6*
X126435000Y-112000000D03*
D10*
G04 #@! TO.N,+3.3V*
X128975000Y-112000000D03*
G04 #@! TO.N,+PWR_5V*
X131515000Y-112000000D03*
G04 #@! TD*
D18*
G04 #@! TO.N,+3.3V*
G04 #@! TO.C,J4*
X108885000Y-105260000D03*
D10*
X106345000Y-105260000D03*
G04 #@! TO.N,SWD_TRST*
X108885000Y-102720000D03*
G04 #@! TO.N,GND*
X106345000Y-102720000D03*
G04 #@! TO.N,SWD_TDI*
X108885000Y-100180000D03*
G04 #@! TO.N,GND*
X106345000Y-100180000D03*
G04 #@! TO.N,SWD_DIO*
X108885000Y-97640000D03*
G04 #@! TO.N,GND*
X106345000Y-97640000D03*
G04 #@! TO.N,SWD_CLK*
X108885000Y-95100000D03*
G04 #@! TO.N,GND*
X106345000Y-95100000D03*
G04 #@! TO.N,/SWDC_RTCK*
X108885000Y-92560000D03*
G04 #@! TO.N,GND*
X106345000Y-92560000D03*
G04 #@! TO.N,SWD_TDO*
X108885000Y-90020000D03*
G04 #@! TO.N,GND*
X106345000Y-90020000D03*
G04 #@! TO.N,/NRST*
X108885000Y-87480000D03*
G04 #@! TO.N,GND*
X106345000Y-87480000D03*
G04 #@! TO.N,/SWDC_DBGRQ*
X108885000Y-84940000D03*
G04 #@! TO.N,GND*
X106345000Y-84940000D03*
G04 #@! TO.N,/SWDC_DBGACK*
X108885000Y-82400000D03*
G04 #@! TO.N,GND*
X106345000Y-82400000D03*
G04 #@! TD*
D15*
G04 #@! TO.N,ML_FRONT_AO1*
G04 #@! TO.C,J15*
X169575000Y-122625000D03*
D14*
G04 #@! TO.N,ML_FRONT_AO2*
X172115000Y-122625000D03*
G04 #@! TD*
D16*
G04 #@! TO.N,GND*
G04 #@! TO.C,H4*
X100625000Y-73090000D03*
X101108274Y-71923274D03*
X101108274Y-74256726D03*
X102275000Y-71440000D03*
D17*
X102275000Y-73090000D03*
D16*
X102275000Y-74740000D03*
X103441726Y-71923274D03*
X103441726Y-74256726D03*
X103925000Y-73090000D03*
G04 #@! TD*
D19*
G04 #@! TO.N,IR_REMOTE*
G04 #@! TO.C,U6*
X144960000Y-94600000D03*
D20*
G04 #@! TO.N,GND*
X147500000Y-94600000D03*
G04 #@! TO.N,/Sumo sensors and Motors/TSOP_VS_3.3*
X150040000Y-94600000D03*
G04 #@! TD*
D21*
G04 #@! TO.N,MR_FRONT_BO2*
G04 #@! TO.C,J16*
X164275000Y-72950000D03*
D14*
G04 #@! TO.N,MR_FRONT_BO1*
X161735000Y-72950000D03*
G04 #@! TD*
D21*
G04 #@! TO.N,MR_BACK_A01*
G04 #@! TO.C,J17*
X171150000Y-72950000D03*
D14*
G04 #@! TO.N,MR_BACK_A02*
X168610000Y-72950000D03*
G04 #@! TD*
D22*
G04 #@! TO.N,/SW2_TERM1*
X139925000Y-72975000D03*
X136475000Y-72925000D03*
D23*
G04 #@! TO.N,GND*
X137025000Y-78550000D03*
X143037500Y-77075000D03*
G04 #@! TO.N,+3.3V*
X134000000Y-82300000D03*
G04 #@! TO.N,GND*
X141630000Y-81960000D03*
G04 #@! TO.N,+PWR_5V*
X143801250Y-82101250D03*
D22*
G04 #@! TO.N,MOTOR_LEFT_CH1*
X135662500Y-95337500D03*
D23*
G04 #@! TO.N,LD_BACK_RIGHT*
X134075000Y-92850000D03*
G04 #@! TO.N,GND*
X126200000Y-105900000D03*
X127475000Y-105875000D03*
X139625000Y-102262500D03*
X164900000Y-94250000D03*
G04 #@! TO.N,+PWR_5V*
X149937569Y-77842598D03*
X147962569Y-78117598D03*
X147987569Y-80042598D03*
X147962569Y-79042598D03*
G04 #@! TO.N,+3.3V*
X170210623Y-103128045D03*
X168225000Y-91075000D03*
G04 #@! TO.N,+PWR_5V*
X147225000Y-104600000D03*
X147300000Y-106575000D03*
X147225000Y-102650000D03*
G04 #@! TO.N,+3.3V*
X140700000Y-108725000D03*
X140725000Y-109925000D03*
X140700000Y-107575000D03*
D22*
G04 #@! TO.N,LD_FRONT_RIGHT*
X125625000Y-94125000D03*
D23*
G04 #@! TO.N,+3.3V*
X170225000Y-104050000D03*
X129975000Y-107750000D03*
X118557823Y-88370243D03*
X118500000Y-100200000D03*
X108150000Y-107550000D03*
X121357823Y-88370243D03*
X149675000Y-90600000D03*
X134925000Y-90150000D03*
X170275000Y-105900000D03*
X141875000Y-108675000D03*
X119650000Y-100175000D03*
X168171904Y-86771556D03*
X141925000Y-111050000D03*
X168195000Y-88980000D03*
X121325000Y-99425000D03*
X170300000Y-106850000D03*
X106116667Y-107550000D03*
X128975000Y-109700000D03*
X116350000Y-100225000D03*
X141900000Y-109875000D03*
X120300000Y-98300000D03*
X141875000Y-107525000D03*
X134950000Y-96750000D03*
X168195000Y-87905000D03*
X117425000Y-100225000D03*
X120424490Y-88370243D03*
X119491156Y-88370243D03*
X109166667Y-107550000D03*
X141850000Y-106400000D03*
X133500000Y-105175000D03*
X168220000Y-90055000D03*
X120250000Y-99350000D03*
X107133334Y-107550000D03*
X170225000Y-104975000D03*
G04 #@! TO.N,GND*
X169950000Y-98825000D03*
X155106481Y-111316736D03*
X168907148Y-114376044D03*
X118900000Y-104700000D03*
X153625000Y-95612500D03*
X128200000Y-84000000D03*
X159150000Y-96300000D03*
X177150000Y-72400000D03*
X128750000Y-105875000D03*
X117100000Y-104525000D03*
X120050000Y-104700000D03*
X118075000Y-95675000D03*
X153737731Y-112627736D03*
X169882148Y-114376044D03*
X155106481Y-110005736D03*
X174539377Y-106296955D03*
X151653616Y-77643598D03*
X153756481Y-111577736D03*
X128500000Y-76875000D03*
X147500000Y-96350000D03*
X188825000Y-81750000D03*
X113875000Y-116605000D03*
X172807148Y-114451044D03*
X153991116Y-86831098D03*
X133050000Y-102675000D03*
X101585000Y-95830000D03*
X166475000Y-79750000D03*
X170975000Y-99964500D03*
X155106481Y-108694736D03*
X136100000Y-91100000D03*
X163845000Y-89855000D03*
X173782148Y-114451044D03*
X176850000Y-89850000D03*
X161575000Y-99150000D03*
X151125000Y-116400000D03*
X154053616Y-81168598D03*
X159100000Y-95275000D03*
X144875000Y-102300000D03*
X155106481Y-107383736D03*
X170395000Y-81805000D03*
X176850000Y-112025000D03*
X146450000Y-80150000D03*
X126600000Y-97475000D03*
X186900000Y-81775000D03*
X161525000Y-97950000D03*
X174414377Y-104171955D03*
X155106481Y-112627736D03*
X135000000Y-98550000D03*
X149331481Y-112627736D03*
X125631250Y-116311250D03*
X126450000Y-109675000D03*
X131750000Y-101850000D03*
X162550000Y-79625000D03*
X121400000Y-105250000D03*
X160075000Y-96900000D03*
X136800000Y-116050000D03*
X124025000Y-80375000D03*
X117291156Y-84245243D03*
X116475000Y-96350000D03*
X122725000Y-86350000D03*
X159470000Y-81230000D03*
X120000000Y-77150000D03*
X187875000Y-81775000D03*
X178975000Y-112100000D03*
X152268981Y-112627736D03*
X162875000Y-116475000D03*
X176500000Y-97025000D03*
X177150000Y-71300000D03*
X163525000Y-79625000D03*
X131725000Y-100975000D03*
X101600000Y-79045000D03*
X133050000Y-103625000D03*
X163845000Y-88805000D03*
X171100000Y-97562500D03*
X101685000Y-87767500D03*
X155156481Y-105927736D03*
X119066156Y-84020243D03*
X120916156Y-84445243D03*
X177150000Y-70200000D03*
X150800231Y-112627736D03*
X133550000Y-107625000D03*
X167450000Y-79750000D03*
D22*
G04 #@! TO.N,/BOOT0*
X122987500Y-94962500D03*
X138206000Y-82375000D03*
D23*
G04 #@! TO.N,+PWR_5V*
X148400000Y-104600000D03*
X108450000Y-117925000D03*
X148706481Y-102252736D03*
X148912569Y-79042598D03*
X149637569Y-80742598D03*
X150612569Y-80742598D03*
X139850000Y-116500000D03*
X146475000Y-116900000D03*
X109325000Y-116750000D03*
X148937569Y-80042598D03*
X149650000Y-102200000D03*
X148400000Y-106825000D03*
X122100000Y-116825000D03*
X138725000Y-116475000D03*
X120950000Y-116875000D03*
X159375000Y-116750000D03*
X147575000Y-116775000D03*
X133375000Y-111950000D03*
X110500000Y-116725000D03*
X145800000Y-118025000D03*
X148912569Y-78117598D03*
X158100000Y-116800000D03*
X120375000Y-118200000D03*
X157700000Y-117850000D03*
X148400000Y-105775000D03*
X148375000Y-103500000D03*
G04 #@! TO.N,/VBUS*
X126650000Y-80175000D03*
X124025000Y-82825000D03*
X126625000Y-79225000D03*
X126600000Y-78275000D03*
X121525000Y-77500000D03*
D22*
G04 #@! TO.N,TEST LED*
X135625000Y-93600000D03*
X129825000Y-93150000D03*
G04 #@! TO.N,IR_REMOTE*
X135150000Y-85450000D03*
X125750000Y-86175000D03*
G04 #@! TO.N,SWD_TDO*
X111635000Y-90780000D03*
X115350000Y-92850000D03*
G04 #@! TO.N,SWD_DIO*
X111747500Y-94672500D03*
X122075000Y-93475000D03*
G04 #@! TO.N,UART_RX*
X114062500Y-72937500D03*
X116725000Y-91950000D03*
G04 #@! TO.N,UART_TX*
X118175766Y-91050766D03*
X115325000Y-70375000D03*
G04 #@! TO.N,LD_FRONT_RIGHT*
X119362500Y-108787500D03*
G04 #@! TO.N,LD_BACK_LEFT*
X129850000Y-95550000D03*
X135550000Y-100925000D03*
G04 #@! TO.N,LD_BACK_RIGHT*
X137450000Y-95375000D03*
G04 #@! TO.N,MOTOR_RIGHT_CH2*
X158325000Y-88750000D03*
X141375000Y-88750000D03*
G04 #@! TO.N,MOTOR_PWM_LEFT*
X155150000Y-102200000D03*
X128450000Y-90500000D03*
G04 #@! TO.N,MOTOR_PWM_RIGHT*
X139675000Y-87800000D03*
X160000000Y-87880000D03*
G04 #@! TO.N,MOTOR_RIGHT_CH1*
X159725000Y-89640000D03*
X139550000Y-89650000D03*
G04 #@! TO.N,MOTOR_LEFT_CH1*
X143100000Y-98575000D03*
G04 #@! TO.N,/SWDC_DBGRQ*
X110335000Y-84905000D03*
X103835000Y-84630000D03*
G04 #@! TO.N,/NRST*
X124525000Y-90250000D03*
X116300000Y-88425000D03*
G04 #@! TO.N,LD_FRONT_LEFT*
X125625000Y-95925000D03*
X123137500Y-109625000D03*
G04 #@! TD*
D24*
G04 #@! TO.N,GND*
X141625000Y-80295000D02*
X141615000Y-80285000D01*
X141615000Y-80285000D02*
X141525000Y-80375000D01*
G04 #@! TD*
G04 #@! TA.AperFunction,Conductor*
G04 #@! TO.N,+3.3V*
G36*
X140403191Y-80663324D02*
G01*
X140439154Y-80712823D01*
X140451535Y-80750925D01*
X140456116Y-80765025D01*
X140525143Y-80900500D01*
X140545476Y-80940405D01*
X140661172Y-81099646D01*
X140800354Y-81238828D01*
X140959595Y-81354524D01*
X140988906Y-81369458D01*
X141032171Y-81412721D01*
X141041743Y-81473153D01*
X141026278Y-81512669D01*
X140964914Y-81604507D01*
X140908342Y-81741085D01*
X140879500Y-81886081D01*
X140879500Y-82033918D01*
X140908342Y-82178914D01*
X140964915Y-82315493D01*
X140964916Y-82315495D01*
X141047049Y-82438416D01*
X141151584Y-82542951D01*
X141274505Y-82625084D01*
X141411087Y-82681658D01*
X141556082Y-82710500D01*
X141556083Y-82710500D01*
X141563833Y-82710500D01*
X141622024Y-82729407D01*
X141657988Y-82778907D01*
X141662833Y-82809500D01*
X141662833Y-85831502D01*
X141662833Y-85881502D01*
X141662833Y-86156502D01*
X145163526Y-86205807D01*
X145212832Y-86206502D01*
X145212831Y-86206501D01*
X145212833Y-86206502D01*
X145198534Y-85677487D01*
X145215862Y-85618810D01*
X145264373Y-85581521D01*
X145297412Y-85575815D01*
X169558058Y-85555948D01*
X169616264Y-85574808D01*
X169652269Y-85624278D01*
X169657139Y-85654897D01*
X169658917Y-89093648D01*
X169662688Y-96387482D01*
X169662704Y-96417055D01*
X169643827Y-96475255D01*
X169594345Y-96511245D01*
X169563704Y-96516106D01*
X168906452Y-96516106D01*
X168909687Y-98541392D01*
X168913402Y-100867954D01*
X168913403Y-100867955D01*
X171301414Y-100881758D01*
X171359495Y-100901001D01*
X171395172Y-100950708D01*
X171399842Y-100980914D01*
X171388589Y-108012533D01*
X171369588Y-108070694D01*
X171320031Y-108106578D01*
X171288374Y-108111368D01*
X164876742Y-108032695D01*
X164818788Y-108013075D01*
X164783434Y-107963137D01*
X164778958Y-107934208D01*
X164777756Y-107698916D01*
X164737833Y-99881502D01*
X164737832Y-99881501D01*
X162163200Y-99861397D01*
X162105159Y-99842036D01*
X162069582Y-99792257D01*
X162070060Y-99731073D01*
X162093968Y-99692398D01*
X162157951Y-99628416D01*
X162240084Y-99505495D01*
X162296658Y-99368913D01*
X162325500Y-99223918D01*
X162325500Y-99076082D01*
X162296658Y-98931087D01*
X162240084Y-98794505D01*
X162157951Y-98671584D01*
X162132820Y-98646453D01*
X162081370Y-98595002D01*
X162053593Y-98540485D01*
X162063165Y-98480053D01*
X162081369Y-98454997D01*
X162107951Y-98428416D01*
X162190084Y-98305495D01*
X162246658Y-98168913D01*
X162275500Y-98023918D01*
X162275500Y-97876082D01*
X162246658Y-97731087D01*
X162190084Y-97594505D01*
X162107951Y-97471584D01*
X162003416Y-97367049D01*
X161880495Y-97284916D01*
X161880493Y-97284915D01*
X161743914Y-97228342D01*
X161598918Y-97199500D01*
X161451082Y-97199500D01*
X161451081Y-97199500D01*
X161306085Y-97228342D01*
X161169506Y-97284915D01*
X161046582Y-97367050D01*
X160940109Y-97473523D01*
X160885593Y-97501300D01*
X160825161Y-97491728D01*
X160815789Y-97486288D01*
X160807288Y-97480709D01*
X160788342Y-97461763D01*
X160743949Y-97439143D01*
X160739415Y-97436168D01*
X160723504Y-97416325D01*
X160705522Y-97398343D01*
X160704645Y-97392806D01*
X160701139Y-97388434D01*
X160699929Y-97363031D01*
X160695951Y-97337911D01*
X160698431Y-97331573D01*
X160698229Y-97327318D01*
X160702857Y-97320264D01*
X160711414Y-97298401D01*
X160740084Y-97255495D01*
X160796658Y-97118913D01*
X160825500Y-96973918D01*
X160825500Y-96826082D01*
X160796658Y-96681087D01*
X160740084Y-96544505D01*
X160657951Y-96421584D01*
X160553416Y-96317049D01*
X160430495Y-96234916D01*
X160409168Y-96226082D01*
X160293914Y-96178342D01*
X160148918Y-96149500D01*
X160001082Y-96149500D01*
X160001081Y-96149500D01*
X160001071Y-96149501D01*
X159986596Y-96152380D01*
X159925835Y-96145187D01*
X159880906Y-96103653D01*
X159872550Y-96084026D01*
X159871659Y-96081089D01*
X159836602Y-95996455D01*
X159815084Y-95944505D01*
X159732951Y-95821584D01*
X159732948Y-95821581D01*
X159729863Y-95817821D01*
X159730747Y-95817095D01*
X159705346Y-95767240D01*
X159714917Y-95706808D01*
X159720798Y-95696773D01*
X159765084Y-95630495D01*
X159768829Y-95621455D01*
X159798790Y-95549121D01*
X159821658Y-95493913D01*
X159850500Y-95348918D01*
X159850500Y-95201082D01*
X159821658Y-95056087D01*
X159765084Y-94919505D01*
X159682951Y-94796584D01*
X159578416Y-94692049D01*
X159455495Y-94609916D01*
X159444817Y-94605493D01*
X159318914Y-94553342D01*
X159173918Y-94524500D01*
X159026082Y-94524500D01*
X159026081Y-94524500D01*
X158881085Y-94553342D01*
X158744506Y-94609915D01*
X158621585Y-94692048D01*
X158517048Y-94796585D01*
X158434915Y-94919506D01*
X158378342Y-95056085D01*
X158349500Y-95201081D01*
X158349500Y-95348918D01*
X158378342Y-95493914D01*
X158431172Y-95621457D01*
X158434916Y-95630495D01*
X158517049Y-95753416D01*
X158517051Y-95753418D01*
X158520137Y-95757179D01*
X158519251Y-95757905D01*
X158544653Y-95807759D01*
X158535082Y-95868191D01*
X158529188Y-95878247D01*
X158484914Y-95944507D01*
X158428342Y-96081085D01*
X158399500Y-96226081D01*
X158399500Y-96373918D01*
X158428342Y-96518914D01*
X158482847Y-96650500D01*
X158484916Y-96655495D01*
X158567049Y-96778416D01*
X158671584Y-96882951D01*
X158794505Y-96965084D01*
X158931087Y-97021658D01*
X159076082Y-97050500D01*
X159076083Y-97050500D01*
X159223917Y-97050500D01*
X159223918Y-97050500D01*
X159224419Y-97050400D01*
X159238397Y-97047620D01*
X159244626Y-97048357D01*
X159250434Y-97045985D01*
X159274528Y-97051895D01*
X159299159Y-97054810D01*
X159303764Y-97059067D01*
X159309858Y-97060562D01*
X159320845Y-97074855D01*
X159344090Y-97096341D01*
X159349364Y-97107284D01*
X159352609Y-97115229D01*
X159353342Y-97118913D01*
X159408701Y-97252562D01*
X159408831Y-97252880D01*
X159411059Y-97283099D01*
X159413446Y-97313425D01*
X159413311Y-97313644D01*
X159413330Y-97313899D01*
X159397393Y-97339618D01*
X159381476Y-97365594D01*
X159381238Y-97365692D01*
X159381104Y-97365910D01*
X159353025Y-97377378D01*
X159324948Y-97389008D01*
X159324509Y-97389025D01*
X159324461Y-97389045D01*
X159324398Y-97389029D01*
X159317181Y-97389313D01*
X158818479Y-97389313D01*
X158818476Y-97389314D01*
X158724700Y-97404165D01*
X158724695Y-97404167D01*
X158611659Y-97461762D01*
X158521949Y-97551472D01*
X158464354Y-97664508D01*
X158449500Y-97758291D01*
X158449500Y-98003770D01*
X158430593Y-98061961D01*
X158381093Y-98097925D01*
X158319907Y-98097925D01*
X158270407Y-98061961D01*
X158262290Y-98048715D01*
X158229525Y-97984410D01*
X158229524Y-97984408D01*
X158113828Y-97825167D01*
X157974646Y-97685985D01*
X157815405Y-97570289D01*
X157815404Y-97570288D01*
X157815402Y-97570287D01*
X157640025Y-97480929D01*
X157452821Y-97420102D01*
X157258420Y-97389313D01*
X157258417Y-97389313D01*
X157061583Y-97389313D01*
X157061580Y-97389313D01*
X156867178Y-97420102D01*
X156679974Y-97480929D01*
X156504597Y-97570287D01*
X156345355Y-97685984D01*
X156206171Y-97825168D01*
X156090474Y-97984410D01*
X156001116Y-98159787D01*
X155940289Y-98346991D01*
X155909500Y-98541392D01*
X155909500Y-98738233D01*
X155940289Y-98932634D01*
X156001116Y-99119838D01*
X156090473Y-99295214D01*
X156090476Y-99295218D01*
X156206172Y-99454459D01*
X156345354Y-99593641D01*
X156393219Y-99628417D01*
X156504596Y-99709338D01*
X156528154Y-99721341D01*
X156564538Y-99739879D01*
X156607802Y-99783143D01*
X156617374Y-99843575D01*
X156589597Y-99898092D01*
X156535081Y-99925870D01*
X156520986Y-99927079D01*
X145619298Y-100080498D01*
X145619297Y-100080499D01*
X145647963Y-101777948D01*
X145630041Y-101836450D01*
X145581155Y-101873245D01*
X145519978Y-101874278D01*
X145469878Y-101839155D01*
X145466678Y-101834645D01*
X145457951Y-101821584D01*
X145353416Y-101717049D01*
X145230495Y-101634916D01*
X145221251Y-101631087D01*
X145093914Y-101578342D01*
X144948918Y-101549500D01*
X144801082Y-101549500D01*
X144801081Y-101549500D01*
X144656085Y-101578342D01*
X144519506Y-101634915D01*
X144396585Y-101717048D01*
X144292048Y-101821585D01*
X144209915Y-101944506D01*
X144153342Y-102081085D01*
X144124500Y-102226081D01*
X144124500Y-102373918D01*
X144153342Y-102518914D01*
X144194382Y-102617993D01*
X144209916Y-102655495D01*
X144292049Y-102778416D01*
X144396584Y-102882951D01*
X144519505Y-102965084D01*
X144656087Y-103021658D01*
X144801082Y-103050500D01*
X144801083Y-103050500D01*
X144948917Y-103050500D01*
X144948918Y-103050500D01*
X145093913Y-103021658D01*
X145230495Y-102965084D01*
X145353416Y-102882951D01*
X145457951Y-102778416D01*
X145483807Y-102739719D01*
X145531853Y-102701842D01*
X145592992Y-102699440D01*
X145643866Y-102733432D01*
X145665044Y-102790835D01*
X145665106Y-102793051D01*
X145823288Y-112159756D01*
X145805366Y-112218258D01*
X145756480Y-112255053D01*
X145723663Y-112260426D01*
X136611230Y-112201578D01*
X136553162Y-112182295D01*
X136517519Y-112132564D01*
X136512889Y-112104561D01*
X136495554Y-111238282D01*
X136443392Y-108631502D01*
X130165083Y-108601430D01*
X130171298Y-111137318D01*
X130152533Y-111195555D01*
X130103121Y-111231640D01*
X130096067Y-111232483D01*
X129457962Y-111870589D01*
X129440925Y-111807007D01*
X129375099Y-111692993D01*
X129282007Y-111599901D01*
X129167993Y-111534075D01*
X129104407Y-111517037D01*
X129736716Y-110884729D01*
X129736716Y-110884728D01*
X129682559Y-110845380D01*
X129682553Y-110845376D01*
X129493215Y-110748904D01*
X129291121Y-110683240D01*
X129081250Y-110650000D01*
X128868750Y-110650000D01*
X128658878Y-110683240D01*
X128456784Y-110748904D01*
X128267446Y-110845376D01*
X128267442Y-110845378D01*
X128213282Y-110884728D01*
X128845591Y-111517037D01*
X128782007Y-111534075D01*
X128667993Y-111599901D01*
X128574901Y-111692993D01*
X128509075Y-111807007D01*
X128492037Y-111870591D01*
X127859728Y-111238282D01*
X127854848Y-111238666D01*
X127815091Y-111267552D01*
X127753906Y-111267551D01*
X127704406Y-111231587D01*
X127685499Y-111173397D01*
X127685499Y-111118478D01*
X127685498Y-111118476D01*
X127670647Y-111024700D01*
X127670646Y-111024698D01*
X127670646Y-111024696D01*
X127613050Y-110911658D01*
X127523342Y-110821950D01*
X127410304Y-110764354D01*
X127410305Y-110764354D01*
X127316521Y-110749500D01*
X125553478Y-110749500D01*
X125553476Y-110749501D01*
X125459700Y-110764352D01*
X125459695Y-110764354D01*
X125346659Y-110821949D01*
X125256949Y-110911659D01*
X125199354Y-111024695D01*
X125184500Y-111118478D01*
X125184500Y-112881521D01*
X125184501Y-112881523D01*
X125199352Y-112975299D01*
X125199354Y-112975304D01*
X125256950Y-113088342D01*
X125346658Y-113178050D01*
X125459696Y-113235646D01*
X125553481Y-113250500D01*
X127316518Y-113250499D01*
X127316521Y-113250499D01*
X127316522Y-113250498D01*
X127363411Y-113243072D01*
X127410299Y-113235647D01*
X127410299Y-113235646D01*
X127410304Y-113235646D01*
X127523342Y-113178050D01*
X127613050Y-113088342D01*
X127670646Y-112975304D01*
X127685500Y-112881519D01*
X127685499Y-112826600D01*
X127704405Y-112768412D01*
X127753905Y-112732447D01*
X127815090Y-112732446D01*
X127854851Y-112761333D01*
X127859729Y-112761716D01*
X128492037Y-112129407D01*
X128509075Y-112192993D01*
X128574901Y-112307007D01*
X128667993Y-112400099D01*
X128782007Y-112465925D01*
X128845589Y-112482962D01*
X128213282Y-113115269D01*
X128213282Y-113115270D01*
X128267440Y-113154619D01*
X128267446Y-113154623D01*
X128456784Y-113251095D01*
X128658878Y-113316759D01*
X128868750Y-113350000D01*
X129081250Y-113350000D01*
X129291121Y-113316759D01*
X129493215Y-113251095D01*
X129682556Y-113154620D01*
X129736716Y-113115270D01*
X129104408Y-112482962D01*
X129167993Y-112465925D01*
X129282007Y-112400099D01*
X129375099Y-112307007D01*
X129440925Y-112192993D01*
X129457962Y-112129408D01*
X130096452Y-112767898D01*
X130106878Y-112767872D01*
X130116593Y-112774892D01*
X130128253Y-112777692D01*
X130140805Y-112792389D01*
X130156470Y-112803709D01*
X130160203Y-112815101D01*
X130167990Y-112824218D01*
X130175526Y-112861852D01*
X130175538Y-112866557D01*
X130175538Y-112866567D01*
X130177534Y-113680405D01*
X130158769Y-113738642D01*
X130109358Y-113774727D01*
X130077054Y-113779637D01*
X120521686Y-113636774D01*
X120463784Y-113616999D01*
X120428565Y-113566967D01*
X120424170Y-113538639D01*
X120395346Y-110177090D01*
X120395346Y-110177089D01*
X119663024Y-110156321D01*
X118324209Y-110145865D01*
X118322687Y-110145841D01*
X112314322Y-110006502D01*
X112314317Y-110006502D01*
X112314316Y-110006502D01*
X111385794Y-110016570D01*
X103792431Y-110098908D01*
X103734039Y-110080633D01*
X103697541Y-110031526D01*
X103692360Y-109999341D01*
X103694958Y-109553542D01*
X122412000Y-109553542D01*
X122412000Y-109696457D01*
X122439881Y-109836619D01*
X122439881Y-109836621D01*
X122494568Y-109968648D01*
X122494574Y-109968659D01*
X122536581Y-110031526D01*
X122573968Y-110087479D01*
X122675021Y-110188532D01*
X122729074Y-110224649D01*
X122793840Y-110267925D01*
X122793851Y-110267931D01*
X122842621Y-110288132D01*
X122925880Y-110322619D01*
X123066045Y-110350500D01*
X123066046Y-110350500D01*
X123208954Y-110350500D01*
X123208955Y-110350500D01*
X123349120Y-110322619D01*
X123481153Y-110267929D01*
X123599979Y-110188532D01*
X123701032Y-110087479D01*
X123780429Y-109968653D01*
X123835119Y-109836620D01*
X123863000Y-109696455D01*
X123863000Y-109601081D01*
X125699500Y-109601081D01*
X125699500Y-109748918D01*
X125728342Y-109893914D01*
X125774978Y-110006502D01*
X125784916Y-110030495D01*
X125867049Y-110153416D01*
X125971584Y-110257951D01*
X126094505Y-110340084D01*
X126231087Y-110396658D01*
X126376082Y-110425500D01*
X126376083Y-110425500D01*
X126523917Y-110425500D01*
X126523918Y-110425500D01*
X126668913Y-110396658D01*
X126805495Y-110340084D01*
X126928416Y-110257951D01*
X127032951Y-110153416D01*
X127115084Y-110030495D01*
X127171658Y-109893913D01*
X127200500Y-109748918D01*
X127200500Y-109601082D01*
X127171658Y-109456087D01*
X127115084Y-109319505D01*
X127032951Y-109196584D01*
X126928416Y-109092049D01*
X126805495Y-109009916D01*
X126779434Y-108999121D01*
X126668914Y-108953342D01*
X126523918Y-108924500D01*
X126376082Y-108924500D01*
X126376081Y-108924500D01*
X126231085Y-108953342D01*
X126094506Y-109009915D01*
X125971585Y-109092048D01*
X125867048Y-109196585D01*
X125784915Y-109319506D01*
X125728342Y-109456085D01*
X125699500Y-109601081D01*
X123863000Y-109601081D01*
X123863000Y-109553545D01*
X123835119Y-109413380D01*
X123780429Y-109281347D01*
X123780428Y-109281345D01*
X123780425Y-109281340D01*
X123748366Y-109233362D01*
X123701032Y-109162521D01*
X123599979Y-109061468D01*
X123552643Y-109029839D01*
X123481159Y-108982074D01*
X123481148Y-108982068D01*
X123349120Y-108927381D01*
X123208957Y-108899500D01*
X123208955Y-108899500D01*
X123066045Y-108899500D01*
X123066042Y-108899500D01*
X122925880Y-108927381D01*
X122925878Y-108927381D01*
X122793851Y-108982068D01*
X122793840Y-108982074D01*
X122675021Y-109061468D01*
X122675017Y-109061471D01*
X122573971Y-109162517D01*
X122573968Y-109162521D01*
X122494574Y-109281340D01*
X122494568Y-109281351D01*
X122439881Y-109413378D01*
X122439881Y-109413380D01*
X122412000Y-109553542D01*
X103694958Y-109553542D01*
X103699840Y-108716042D01*
X118637000Y-108716042D01*
X118637000Y-108858957D01*
X118664881Y-108999119D01*
X118664881Y-108999121D01*
X118719568Y-109131148D01*
X118719574Y-109131159D01*
X118763291Y-109196584D01*
X118798968Y-109249979D01*
X118900021Y-109351032D01*
X118970862Y-109398366D01*
X119018840Y-109430425D01*
X119018851Y-109430431D01*
X119067621Y-109450632D01*
X119150880Y-109485119D01*
X119291045Y-109513000D01*
X119291046Y-109513000D01*
X119433954Y-109513000D01*
X119433955Y-109513000D01*
X119574120Y-109485119D01*
X119706153Y-109430429D01*
X119824979Y-109351032D01*
X119926032Y-109249979D01*
X120005429Y-109131153D01*
X120060119Y-108999120D01*
X120088000Y-108858955D01*
X120088000Y-108716045D01*
X120060119Y-108575880D01*
X120005429Y-108443847D01*
X120005428Y-108443845D01*
X120005425Y-108443840D01*
X119940489Y-108346658D01*
X119926032Y-108325021D01*
X119824979Y-108223968D01*
X119777643Y-108192339D01*
X119706159Y-108144574D01*
X119706148Y-108144568D01*
X119574120Y-108089881D01*
X119433957Y-108062000D01*
X119433955Y-108062000D01*
X119291045Y-108062000D01*
X119291042Y-108062000D01*
X119150880Y-108089881D01*
X119150878Y-108089881D01*
X119018851Y-108144568D01*
X119018840Y-108144574D01*
X118900021Y-108223968D01*
X118900017Y-108223971D01*
X118798971Y-108325017D01*
X118798968Y-108325021D01*
X118719574Y-108443840D01*
X118719568Y-108443851D01*
X118664881Y-108575878D01*
X118664881Y-108575880D01*
X118637000Y-108716042D01*
X103699840Y-108716042D01*
X103706631Y-107551081D01*
X132799500Y-107551081D01*
X132799500Y-107698918D01*
X132828342Y-107843914D01*
X132884915Y-107980493D01*
X132884916Y-107980495D01*
X132967049Y-108103416D01*
X133071584Y-108207951D01*
X133194505Y-108290084D01*
X133331087Y-108346658D01*
X133476082Y-108375500D01*
X133476083Y-108375500D01*
X133623917Y-108375500D01*
X133623918Y-108375500D01*
X133768913Y-108346658D01*
X133905495Y-108290084D01*
X134028416Y-108207951D01*
X134132951Y-108103416D01*
X134215084Y-107980495D01*
X134271658Y-107843913D01*
X134300500Y-107698918D01*
X134300500Y-107551082D01*
X134271658Y-107406087D01*
X134215084Y-107269505D01*
X134132951Y-107146584D01*
X134028416Y-107042049D01*
X133905495Y-106959916D01*
X133905493Y-106959915D01*
X133768914Y-106903342D01*
X133623918Y-106874500D01*
X133476082Y-106874500D01*
X133476081Y-106874500D01*
X133331085Y-106903342D01*
X133194506Y-106959915D01*
X133071585Y-107042048D01*
X132967048Y-107146585D01*
X132884915Y-107269506D01*
X132828342Y-107406085D01*
X132799500Y-107551081D01*
X103706631Y-107551081D01*
X103724436Y-104496607D01*
X103743682Y-104438530D01*
X103793391Y-104402856D01*
X103821588Y-104398204D01*
X105123901Y-104374002D01*
X105182430Y-104391824D01*
X105219308Y-104440647D01*
X105220445Y-104501822D01*
X105205832Y-104531173D01*
X105190377Y-104552444D01*
X105190376Y-104552446D01*
X105093904Y-104741784D01*
X105028240Y-104943878D01*
X104995000Y-105153749D01*
X104995000Y-105366250D01*
X105028240Y-105576121D01*
X105093904Y-105778215D01*
X105190376Y-105967553D01*
X105190380Y-105967559D01*
X105229728Y-106021716D01*
X105229729Y-106021716D01*
X105862037Y-105389407D01*
X105879075Y-105452993D01*
X105944901Y-105567007D01*
X106037993Y-105660099D01*
X106152007Y-105725925D01*
X106215589Y-105742962D01*
X105583282Y-106375269D01*
X105583282Y-106375270D01*
X105637440Y-106414619D01*
X105637446Y-106414623D01*
X105826784Y-106511095D01*
X106028878Y-106576759D01*
X106238750Y-106610000D01*
X106451250Y-106610000D01*
X106661121Y-106576759D01*
X106863215Y-106511095D01*
X107052556Y-106414620D01*
X107106716Y-106375270D01*
X106474408Y-105742962D01*
X106537993Y-105725925D01*
X106652007Y-105660099D01*
X106745099Y-105567007D01*
X106810925Y-105452993D01*
X106827962Y-105389408D01*
X107460270Y-106021716D01*
X107468901Y-106021037D01*
X107528396Y-106035321D01*
X107568132Y-106081847D01*
X107570643Y-106088591D01*
X107600643Y-106179125D01*
X107692680Y-106328340D01*
X107816659Y-106452319D01*
X107965875Y-106544356D01*
X108132306Y-106599506D01*
X108235012Y-106609999D01*
X108634998Y-106609999D01*
X108635000Y-106609998D01*
X108635000Y-105693012D01*
X108692007Y-105725925D01*
X108819174Y-105760000D01*
X108950826Y-105760000D01*
X109077993Y-105725925D01*
X109135000Y-105693012D01*
X109135000Y-106609998D01*
X109135001Y-106609999D01*
X109534986Y-106609999D01*
X109637687Y-106599507D01*
X109637699Y-106599504D01*
X109804124Y-106544356D01*
X109953340Y-106452319D01*
X110077319Y-106328340D01*
X110169356Y-106179124D01*
X110224506Y-106012693D01*
X110235000Y-105909987D01*
X110235000Y-105510001D01*
X110234999Y-105510000D01*
X109318012Y-105510000D01*
X109350925Y-105452993D01*
X109385000Y-105325826D01*
X109385000Y-105194174D01*
X109350925Y-105067007D01*
X109318012Y-105010000D01*
X110234998Y-105010000D01*
X110234999Y-105009999D01*
X110234999Y-104610013D01*
X110224507Y-104507312D01*
X110224504Y-104507298D01*
X110214583Y-104477360D01*
X110214582Y-104477358D01*
X110205875Y-104451081D01*
X116349500Y-104451081D01*
X116349500Y-104598918D01*
X116378342Y-104743914D01*
X116434915Y-104880493D01*
X116434916Y-104880495D01*
X116517049Y-105003416D01*
X116621584Y-105107951D01*
X116744505Y-105190084D01*
X116881087Y-105246658D01*
X117026082Y-105275500D01*
X117026083Y-105275500D01*
X117173917Y-105275500D01*
X117173918Y-105275500D01*
X117318913Y-105246658D01*
X117455495Y-105190084D01*
X117578416Y-105107951D01*
X117682951Y-105003416D01*
X117765084Y-104880495D01*
X117821658Y-104743913D01*
X117845097Y-104626081D01*
X118149500Y-104626081D01*
X118149500Y-104773918D01*
X118178342Y-104918914D01*
X118213343Y-105003414D01*
X118234916Y-105055495D01*
X118317049Y-105178416D01*
X118421584Y-105282951D01*
X118544505Y-105365084D01*
X118681087Y-105421658D01*
X118826082Y-105450500D01*
X118826083Y-105450500D01*
X118973917Y-105450500D01*
X118973918Y-105450500D01*
X119118913Y-105421658D01*
X119255495Y-105365084D01*
X119378416Y-105282951D01*
X119404998Y-105256368D01*
X119459513Y-105228593D01*
X119519945Y-105238164D01*
X119545000Y-105256367D01*
X119571584Y-105282951D01*
X119694505Y-105365084D01*
X119831087Y-105421658D01*
X119976082Y-105450500D01*
X119976083Y-105450500D01*
X120123917Y-105450500D01*
X120123918Y-105450500D01*
X120268913Y-105421658D01*
X120405495Y-105365084D01*
X120504910Y-105298657D01*
X120563795Y-105282049D01*
X120621199Y-105303226D01*
X120655192Y-105354100D01*
X120657007Y-105361658D01*
X120678342Y-105468914D01*
X120718974Y-105567007D01*
X120734916Y-105605495D01*
X120817049Y-105728416D01*
X120921584Y-105832951D01*
X121044505Y-105915084D01*
X121181087Y-105971658D01*
X121326082Y-106000500D01*
X121326083Y-106000500D01*
X121473917Y-106000500D01*
X121473918Y-106000500D01*
X121618913Y-105971658D01*
X121755495Y-105915084D01*
X121878416Y-105832951D01*
X121885286Y-105826081D01*
X125449500Y-105826081D01*
X125449500Y-105973918D01*
X125478342Y-106118914D01*
X125534055Y-106253416D01*
X125534916Y-106255495D01*
X125617049Y-106378416D01*
X125721584Y-106482951D01*
X125844505Y-106565084D01*
X125981087Y-106621658D01*
X126126082Y-106650500D01*
X126126083Y-106650500D01*
X126273917Y-106650500D01*
X126273918Y-106650500D01*
X126418913Y-106621658D01*
X126555495Y-106565084D01*
X126678416Y-106482951D01*
X126779998Y-106381368D01*
X126834513Y-106353593D01*
X126894945Y-106363164D01*
X126920000Y-106381367D01*
X126996584Y-106457951D01*
X127119505Y-106540084D01*
X127256087Y-106596658D01*
X127401082Y-106625500D01*
X127401083Y-106625500D01*
X127548917Y-106625500D01*
X127548918Y-106625500D01*
X127693913Y-106596658D01*
X127830495Y-106540084D01*
X127953416Y-106457951D01*
X128042498Y-106368868D01*
X128097013Y-106341093D01*
X128157445Y-106350664D01*
X128182500Y-106368867D01*
X128271584Y-106457951D01*
X128394505Y-106540084D01*
X128531087Y-106596658D01*
X128676082Y-106625500D01*
X128676083Y-106625500D01*
X128823917Y-106625500D01*
X128823918Y-106625500D01*
X128968913Y-106596658D01*
X129105495Y-106540084D01*
X129228416Y-106457951D01*
X129332951Y-106353416D01*
X129415084Y-106230495D01*
X129471658Y-106093913D01*
X129500500Y-105948918D01*
X129500500Y-105801082D01*
X129471658Y-105656087D01*
X129415084Y-105519505D01*
X129332951Y-105396584D01*
X129228416Y-105292049D01*
X129105495Y-105209916D01*
X129105493Y-105209915D01*
X128968914Y-105153342D01*
X128823918Y-105124500D01*
X128676082Y-105124500D01*
X128676081Y-105124500D01*
X128531085Y-105153342D01*
X128394506Y-105209915D01*
X128271582Y-105292050D01*
X128182503Y-105381129D01*
X128127986Y-105408906D01*
X128067554Y-105399334D01*
X128042497Y-105381129D01*
X127953417Y-105292050D01*
X127953416Y-105292049D01*
X127830495Y-105209916D01*
X127830493Y-105209915D01*
X127693914Y-105153342D01*
X127548918Y-105124500D01*
X127401082Y-105124500D01*
X127401081Y-105124500D01*
X127256085Y-105153342D01*
X127119506Y-105209915D01*
X127021353Y-105275499D01*
X126996584Y-105292049D01*
X126895001Y-105393631D01*
X126840487Y-105421407D01*
X126780055Y-105411836D01*
X126754999Y-105393632D01*
X126678416Y-105317049D01*
X126555495Y-105234916D01*
X126495140Y-105209916D01*
X126418914Y-105178342D01*
X126273918Y-105149500D01*
X126126082Y-105149500D01*
X126126081Y-105149500D01*
X125981085Y-105178342D01*
X125844506Y-105234915D01*
X125721585Y-105317048D01*
X125617048Y-105421585D01*
X125534915Y-105544506D01*
X125478342Y-105681085D01*
X125449500Y-105826081D01*
X121885286Y-105826081D01*
X121982951Y-105728416D01*
X122065084Y-105605495D01*
X122121658Y-105468913D01*
X122150500Y-105323918D01*
X122150500Y-105176082D01*
X122121658Y-105031087D01*
X122065084Y-104894505D01*
X121982951Y-104771584D01*
X121878416Y-104667049D01*
X121755495Y-104584916D01*
X121755493Y-104584915D01*
X121618914Y-104528342D01*
X121473918Y-104499500D01*
X121326082Y-104499500D01*
X121326081Y-104499500D01*
X121181085Y-104528342D01*
X121044507Y-104584914D01*
X120945091Y-104651342D01*
X120886203Y-104667950D01*
X120828799Y-104646772D01*
X120794807Y-104595898D01*
X120792992Y-104588340D01*
X120792311Y-104584915D01*
X120771658Y-104481087D01*
X120715084Y-104344505D01*
X120632951Y-104221584D01*
X120528416Y-104117049D01*
X120405495Y-104034916D01*
X120405493Y-104034915D01*
X120268914Y-103978342D01*
X120123918Y-103949500D01*
X119976082Y-103949500D01*
X119976081Y-103949500D01*
X119831085Y-103978342D01*
X119694506Y-104034915D01*
X119571582Y-104117050D01*
X119545002Y-104143630D01*
X119490485Y-104171406D01*
X119430053Y-104161834D01*
X119404998Y-104143630D01*
X119378417Y-104117050D01*
X119378416Y-104117049D01*
X119255495Y-104034916D01*
X119255493Y-104034915D01*
X119118914Y-103978342D01*
X118973918Y-103949500D01*
X118826082Y-103949500D01*
X118826081Y-103949500D01*
X118681085Y-103978342D01*
X118544506Y-104034915D01*
X118421585Y-104117048D01*
X118317048Y-104221585D01*
X118234915Y-104344506D01*
X118178342Y-104481085D01*
X118149500Y-104626081D01*
X117845097Y-104626081D01*
X117849906Y-104601903D01*
X117849907Y-104601902D01*
X117849907Y-104601901D01*
X117850499Y-104598923D01*
X117850500Y-104598916D01*
X117850500Y-104451083D01*
X117850500Y-104451082D01*
X117821658Y-104306087D01*
X117765084Y-104169505D01*
X117682951Y-104046584D01*
X117578416Y-103942049D01*
X117455495Y-103859916D01*
X117444822Y-103855495D01*
X117318914Y-103803342D01*
X117173918Y-103774500D01*
X117026082Y-103774500D01*
X117026081Y-103774500D01*
X116881085Y-103803342D01*
X116744506Y-103859915D01*
X116621585Y-103942048D01*
X116517048Y-104046585D01*
X116434915Y-104169506D01*
X116378342Y-104306085D01*
X116349500Y-104451081D01*
X110205875Y-104451081D01*
X110191675Y-104408229D01*
X110191319Y-104347045D01*
X110226994Y-104297336D01*
X110283805Y-104278107D01*
X114136774Y-104206502D01*
X114128672Y-100901081D01*
X130974500Y-100901081D01*
X130974500Y-101048918D01*
X131003342Y-101193914D01*
X131059914Y-101330492D01*
X131090459Y-101376206D01*
X131107067Y-101435094D01*
X131090462Y-101486204D01*
X131084914Y-101494507D01*
X131028342Y-101631085D01*
X130999500Y-101776081D01*
X130999500Y-101923918D01*
X131028342Y-102068914D01*
X131073866Y-102178818D01*
X131084916Y-102205495D01*
X131167049Y-102328416D01*
X131271584Y-102432951D01*
X131394505Y-102515084D01*
X131531087Y-102571658D01*
X131676082Y-102600500D01*
X131676083Y-102600500D01*
X131823917Y-102600500D01*
X131823918Y-102600500D01*
X131968913Y-102571658D01*
X132105495Y-102515084D01*
X132150238Y-102485187D01*
X132209125Y-102468579D01*
X132266529Y-102489756D01*
X132300522Y-102540630D01*
X132302337Y-102586815D01*
X132299500Y-102601074D01*
X132299500Y-102748918D01*
X132328342Y-102893914D01*
X132384915Y-103030495D01*
X132428015Y-103095000D01*
X132444623Y-103153888D01*
X132428015Y-103205000D01*
X132384916Y-103269504D01*
X132384915Y-103269504D01*
X132328342Y-103406085D01*
X132299500Y-103551081D01*
X132299500Y-103698918D01*
X132328342Y-103843914D01*
X132368022Y-103939709D01*
X132384916Y-103980495D01*
X132467049Y-104103416D01*
X132571584Y-104207951D01*
X132694505Y-104290084D01*
X132831087Y-104346658D01*
X132976082Y-104375500D01*
X132976083Y-104375500D01*
X133123917Y-104375500D01*
X133123918Y-104375500D01*
X133268913Y-104346658D01*
X133405495Y-104290084D01*
X133528416Y-104207951D01*
X133632951Y-104103416D01*
X133715084Y-103980495D01*
X133771658Y-103843913D01*
X133800500Y-103698918D01*
X133800500Y-103551082D01*
X133771658Y-103406087D01*
X133733963Y-103315084D01*
X133715085Y-103269507D01*
X133715085Y-103269506D01*
X133671984Y-103205002D01*
X133655375Y-103146114D01*
X133671984Y-103094998D01*
X133701717Y-103050500D01*
X133715084Y-103030495D01*
X133771658Y-102893913D01*
X133800500Y-102748918D01*
X133800500Y-102601082D01*
X133771658Y-102456087D01*
X133715084Y-102319505D01*
X133632951Y-102196584D01*
X133624948Y-102188581D01*
X138874500Y-102188581D01*
X138874500Y-102336418D01*
X138903342Y-102481414D01*
X138959915Y-102617993D01*
X138959916Y-102617995D01*
X139042049Y-102740916D01*
X139146584Y-102845451D01*
X139269505Y-102927584D01*
X139406087Y-102984158D01*
X139551082Y-103013000D01*
X139551083Y-103013000D01*
X139698917Y-103013000D01*
X139698918Y-103013000D01*
X139843913Y-102984158D01*
X139980495Y-102927584D01*
X140103416Y-102845451D01*
X140207951Y-102740916D01*
X140290084Y-102617995D01*
X140346658Y-102481413D01*
X140375500Y-102336418D01*
X140375500Y-102188582D01*
X140346658Y-102043587D01*
X140290084Y-101907005D01*
X140207951Y-101784084D01*
X140103416Y-101679549D01*
X139980495Y-101597416D01*
X139956923Y-101587652D01*
X139843914Y-101540842D01*
X139698918Y-101512000D01*
X139551082Y-101512000D01*
X139551081Y-101512000D01*
X139406085Y-101540842D01*
X139269506Y-101597415D01*
X139146585Y-101679548D01*
X139042048Y-101784085D01*
X138959915Y-101907006D01*
X138903342Y-102043585D01*
X138874500Y-102188581D01*
X133624948Y-102188581D01*
X133528416Y-102092049D01*
X133405495Y-102009916D01*
X133405493Y-102009915D01*
X133268914Y-101953342D01*
X133123918Y-101924500D01*
X132976082Y-101924500D01*
X132976081Y-101924500D01*
X132831085Y-101953342D01*
X132694504Y-102009915D01*
X132694503Y-102009916D01*
X132649760Y-102039812D01*
X132590872Y-102056420D01*
X132533468Y-102035241D01*
X132499477Y-101984367D01*
X132497663Y-101938178D01*
X132500500Y-101923918D01*
X132500500Y-101776082D01*
X132471658Y-101631087D01*
X132415084Y-101494505D01*
X132384540Y-101448793D01*
X132367932Y-101389905D01*
X132384542Y-101338789D01*
X132390084Y-101330495D01*
X132446658Y-101193913D01*
X132475500Y-101048918D01*
X132475500Y-100901082D01*
X132475484Y-100901001D01*
X132468919Y-100867994D01*
X132466044Y-100853542D01*
X134824500Y-100853542D01*
X134824500Y-100996457D01*
X134852381Y-101136619D01*
X134852381Y-101136621D01*
X134907068Y-101268648D01*
X134907074Y-101268659D01*
X134953934Y-101338789D01*
X134986468Y-101387479D01*
X135087521Y-101488532D01*
X135151196Y-101531078D01*
X135206340Y-101567925D01*
X135206351Y-101567931D01*
X135231486Y-101578342D01*
X135338380Y-101622619D01*
X135478545Y-101650500D01*
X135478546Y-101650500D01*
X135621454Y-101650500D01*
X135621455Y-101650500D01*
X135761620Y-101622619D01*
X135893653Y-101567929D01*
X136012479Y-101488532D01*
X136113532Y-101387479D01*
X136192929Y-101268653D01*
X136247619Y-101136620D01*
X136275500Y-100996455D01*
X136275500Y-100853545D01*
X136247619Y-100713380D01*
X136225519Y-100660025D01*
X136192931Y-100581351D01*
X136192925Y-100581340D01*
X136160866Y-100533362D01*
X136113532Y-100462521D01*
X136012479Y-100361468D01*
X135965143Y-100329839D01*
X135893659Y-100282074D01*
X135893648Y-100282068D01*
X135761620Y-100227381D01*
X135621457Y-100199500D01*
X135621455Y-100199500D01*
X135478545Y-100199500D01*
X135478542Y-100199500D01*
X135338380Y-100227381D01*
X135338378Y-100227381D01*
X135206351Y-100282068D01*
X135206340Y-100282074D01*
X135087521Y-100361468D01*
X135087517Y-100361471D01*
X134986471Y-100462517D01*
X134986468Y-100462521D01*
X134907074Y-100581340D01*
X134907068Y-100581351D01*
X134852381Y-100713378D01*
X134852381Y-100713380D01*
X134824500Y-100853542D01*
X132466044Y-100853542D01*
X132456409Y-100805108D01*
X132446658Y-100756087D01*
X132390084Y-100619505D01*
X132307951Y-100496584D01*
X132203416Y-100392049D01*
X132080495Y-100309916D01*
X132080493Y-100309915D01*
X131943914Y-100253342D01*
X131798918Y-100224500D01*
X131651082Y-100224500D01*
X131651081Y-100224500D01*
X131506085Y-100253342D01*
X131369506Y-100309915D01*
X131246585Y-100392048D01*
X131142048Y-100496585D01*
X131059915Y-100619506D01*
X131003342Y-100756085D01*
X130974500Y-100901081D01*
X114128672Y-100901081D01*
X114122728Y-98476081D01*
X134249500Y-98476081D01*
X134249500Y-98623918D01*
X134278342Y-98768914D01*
X134288943Y-98794506D01*
X134334916Y-98905495D01*
X134417049Y-99028416D01*
X134521584Y-99132951D01*
X134644505Y-99215084D01*
X134781087Y-99271658D01*
X134926082Y-99300500D01*
X134926083Y-99300500D01*
X135073917Y-99300500D01*
X135073918Y-99300500D01*
X135218913Y-99271658D01*
X135355495Y-99215084D01*
X135478416Y-99132951D01*
X135582951Y-99028416D01*
X135665084Y-98905495D01*
X135721658Y-98768913D01*
X135750500Y-98623918D01*
X135750500Y-98503542D01*
X142374500Y-98503542D01*
X142374500Y-98646457D01*
X142402381Y-98786619D01*
X142402381Y-98786621D01*
X142457068Y-98918648D01*
X142457074Y-98918659D01*
X142504839Y-98990143D01*
X142536468Y-99037479D01*
X142637521Y-99138532D01*
X142700323Y-99180495D01*
X142756340Y-99217925D01*
X142756351Y-99217931D01*
X142776247Y-99226172D01*
X142888380Y-99272619D01*
X143028545Y-99300500D01*
X143028546Y-99300500D01*
X143171454Y-99300500D01*
X143171455Y-99300500D01*
X143311620Y-99272619D01*
X143443653Y-99217929D01*
X143562479Y-99138532D01*
X143663532Y-99037479D01*
X143742929Y-98918653D01*
X143797619Y-98786620D01*
X143825500Y-98646455D01*
X143825500Y-98503545D01*
X143797619Y-98363380D01*
X143742929Y-98231347D01*
X143742928Y-98231345D01*
X143742925Y-98231340D01*
X143710866Y-98183362D01*
X143663532Y-98112521D01*
X143562479Y-98011468D01*
X143515143Y-97979839D01*
X143443659Y-97932074D01*
X143443648Y-97932068D01*
X143311620Y-97877381D01*
X143171457Y-97849500D01*
X143171455Y-97849500D01*
X143028545Y-97849500D01*
X143028542Y-97849500D01*
X142888380Y-97877381D01*
X142888378Y-97877381D01*
X142756351Y-97932068D01*
X142756340Y-97932074D01*
X142637521Y-98011468D01*
X142637517Y-98011471D01*
X142536471Y-98112517D01*
X142536468Y-98112521D01*
X142457074Y-98231340D01*
X142457068Y-98231351D01*
X142402381Y-98363378D01*
X142402381Y-98363380D01*
X142374500Y-98503542D01*
X135750500Y-98503542D01*
X135750500Y-98476082D01*
X135721658Y-98331087D01*
X135665084Y-98194505D01*
X135582951Y-98071584D01*
X135478416Y-97967049D01*
X135355495Y-97884916D01*
X135337304Y-97877381D01*
X135218914Y-97828342D01*
X135073918Y-97799500D01*
X134926082Y-97799500D01*
X134926081Y-97799500D01*
X134781085Y-97828342D01*
X134644506Y-97884915D01*
X134521585Y-97967048D01*
X134417048Y-98071585D01*
X134334915Y-98194506D01*
X134278342Y-98331085D01*
X134249500Y-98476081D01*
X114122728Y-98476081D01*
X114120093Y-97401081D01*
X125849500Y-97401081D01*
X125849500Y-97548918D01*
X125878342Y-97693914D01*
X125922077Y-97799500D01*
X125934916Y-97830495D01*
X126017049Y-97953416D01*
X126121584Y-98057951D01*
X126244505Y-98140084D01*
X126381087Y-98196658D01*
X126526082Y-98225500D01*
X126526083Y-98225500D01*
X126673917Y-98225500D01*
X126673918Y-98225500D01*
X126818913Y-98196658D01*
X126955495Y-98140084D01*
X127078416Y-98057951D01*
X127182951Y-97953416D01*
X127265084Y-97830495D01*
X127321658Y-97693913D01*
X127350500Y-97548918D01*
X127350500Y-97401082D01*
X127321658Y-97256087D01*
X127265084Y-97119505D01*
X127182951Y-96996584D01*
X127078416Y-96892049D01*
X126955495Y-96809916D01*
X126955493Y-96809915D01*
X126818914Y-96753342D01*
X126673918Y-96724500D01*
X126526082Y-96724500D01*
X126526081Y-96724500D01*
X126381085Y-96753342D01*
X126244506Y-96809915D01*
X126121585Y-96892048D01*
X126017048Y-96996585D01*
X125934915Y-97119506D01*
X125878342Y-97256085D01*
X125849500Y-97401081D01*
X114120093Y-97401081D01*
X114117336Y-96276081D01*
X115724500Y-96276081D01*
X115724500Y-96423918D01*
X115753342Y-96568914D01*
X115789205Y-96655495D01*
X115809916Y-96705495D01*
X115892049Y-96828416D01*
X115996584Y-96932951D01*
X116119505Y-97015084D01*
X116256087Y-97071658D01*
X116401082Y-97100500D01*
X116401083Y-97100500D01*
X116548917Y-97100500D01*
X116548918Y-97100500D01*
X116693913Y-97071658D01*
X116830495Y-97015084D01*
X116953416Y-96932951D01*
X117057951Y-96828416D01*
X117140084Y-96705495D01*
X117196658Y-96568913D01*
X117225500Y-96423918D01*
X117225500Y-96276082D01*
X117196658Y-96131087D01*
X117140084Y-95994505D01*
X117057951Y-95871584D01*
X116953416Y-95767049D01*
X116880979Y-95718648D01*
X116830496Y-95684916D01*
X116830491Y-95684913D01*
X116693914Y-95628342D01*
X116556866Y-95601081D01*
X117324500Y-95601081D01*
X117324500Y-95748918D01*
X117353342Y-95893914D01*
X117402455Y-96012482D01*
X117409916Y-96030495D01*
X117492049Y-96153416D01*
X117596584Y-96257951D01*
X117719505Y-96340084D01*
X117856087Y-96396658D01*
X118001082Y-96425500D01*
X118001083Y-96425500D01*
X118148917Y-96425500D01*
X118148918Y-96425500D01*
X118293913Y-96396658D01*
X118430495Y-96340084D01*
X118553416Y-96257951D01*
X118657951Y-96153416D01*
X118740084Y-96030495D01*
X118796658Y-95893913D01*
X118804688Y-95853542D01*
X124899500Y-95853542D01*
X124899500Y-95996457D01*
X124907191Y-96035119D01*
X124926280Y-96131087D01*
X124927381Y-96136619D01*
X124927381Y-96136621D01*
X124982068Y-96268648D01*
X124982074Y-96268659D01*
X125025839Y-96334157D01*
X125061468Y-96387479D01*
X125162521Y-96488532D01*
X125207991Y-96518914D01*
X125281340Y-96567925D01*
X125281351Y-96567931D01*
X125330121Y-96588132D01*
X125413380Y-96622619D01*
X125553545Y-96650500D01*
X125553546Y-96650500D01*
X125696454Y-96650500D01*
X125696455Y-96650500D01*
X125836620Y-96622619D01*
X125968653Y-96567929D01*
X126087479Y-96488532D01*
X126188532Y-96387479D01*
X126267929Y-96268653D01*
X126322619Y-96136620D01*
X126350500Y-95996455D01*
X126350500Y-95853545D01*
X126322619Y-95713380D01*
X126284543Y-95621457D01*
X126267931Y-95581351D01*
X126267925Y-95581340D01*
X126232740Y-95528683D01*
X126220442Y-95510278D01*
X126199237Y-95478542D01*
X129124500Y-95478542D01*
X129124500Y-95621457D01*
X129142568Y-95712287D01*
X129150749Y-95753418D01*
X129152381Y-95761619D01*
X129152381Y-95761621D01*
X129207068Y-95893648D01*
X129207074Y-95893659D01*
X129254839Y-95965143D01*
X129286468Y-96012479D01*
X129387521Y-96113532D01*
X129445661Y-96152380D01*
X129506340Y-96192925D01*
X129506351Y-96192931D01*
X129555121Y-96213132D01*
X129638380Y-96247619D01*
X129778545Y-96275500D01*
X129778546Y-96275500D01*
X129921454Y-96275500D01*
X129921455Y-96275500D01*
X130061620Y-96247619D01*
X130193653Y-96192929D01*
X130312479Y-96113532D01*
X130413532Y-96012479D01*
X130492929Y-95893653D01*
X130547619Y-95761620D01*
X130575500Y-95621455D01*
X130575500Y-95478545D01*
X130547619Y-95338380D01*
X130538148Y-95315514D01*
X130531335Y-95299066D01*
X130517656Y-95266042D01*
X134937000Y-95266042D01*
X134937000Y-95408957D01*
X134950843Y-95478546D01*
X134960288Y-95526032D01*
X134964881Y-95549119D01*
X134964881Y-95549121D01*
X135019568Y-95681148D01*
X135019574Y-95681159D01*
X135058669Y-95739668D01*
X135098968Y-95799979D01*
X135200021Y-95901032D01*
X135265086Y-95944507D01*
X135318840Y-95980425D01*
X135318851Y-95980431D01*
X135352829Y-95994505D01*
X135450880Y-96035119D01*
X135591045Y-96063000D01*
X135591046Y-96063000D01*
X135733954Y-96063000D01*
X135733955Y-96063000D01*
X135874120Y-96035119D01*
X136006153Y-95980429D01*
X136124979Y-95901032D01*
X136226032Y-95799979D01*
X136305429Y-95681153D01*
X136360119Y-95549120D01*
X136388000Y-95408955D01*
X136388000Y-95303542D01*
X136724500Y-95303542D01*
X136724500Y-95446457D01*
X136730883Y-95478545D01*
X136744921Y-95549119D01*
X136752381Y-95586619D01*
X136752381Y-95586621D01*
X136807068Y-95718648D01*
X136807074Y-95718659D01*
X136840071Y-95768041D01*
X136886468Y-95837479D01*
X136987521Y-95938532D01*
X137050218Y-95980425D01*
X137106340Y-96017925D01*
X137106351Y-96017931D01*
X137136679Y-96030493D01*
X137238380Y-96072619D01*
X137378545Y-96100500D01*
X137378546Y-96100500D01*
X137521454Y-96100500D01*
X137521455Y-96100500D01*
X137661620Y-96072619D01*
X137793653Y-96017929D01*
X137912479Y-95938532D01*
X138013532Y-95837479D01*
X138092929Y-95718653D01*
X138147619Y-95586620D01*
X138175500Y-95446455D01*
X138175500Y-95303545D01*
X138147619Y-95163380D01*
X138116197Y-95087521D01*
X138092931Y-95031351D01*
X138092925Y-95031340D01*
X138053045Y-94971657D01*
X138013532Y-94912521D01*
X137912479Y-94811468D01*
X137856356Y-94773968D01*
X137793659Y-94732074D01*
X137793648Y-94732068D01*
X137661620Y-94677381D01*
X137521457Y-94649500D01*
X137521455Y-94649500D01*
X137378545Y-94649500D01*
X137378542Y-94649500D01*
X137238380Y-94677381D01*
X137238378Y-94677381D01*
X137106351Y-94732068D01*
X137106340Y-94732074D01*
X136987521Y-94811468D01*
X136987517Y-94811471D01*
X136886471Y-94912517D01*
X136886468Y-94912521D01*
X136807074Y-95031340D01*
X136807068Y-95031351D01*
X136752381Y-95163378D01*
X136752381Y-95163380D01*
X136724500Y-95303542D01*
X136388000Y-95303542D01*
X136388000Y-95266045D01*
X136360119Y-95125880D01*
X136322043Y-95033957D01*
X136305431Y-94993851D01*
X136305425Y-94993840D01*
X136252801Y-94915084D01*
X136226032Y-94875021D01*
X136124979Y-94773968D01*
X136077643Y-94742339D01*
X136006159Y-94694574D01*
X136006148Y-94694568D01*
X135874120Y-94639881D01*
X135733957Y-94612000D01*
X135733955Y-94612000D01*
X135591045Y-94612000D01*
X135591042Y-94612000D01*
X135450880Y-94639881D01*
X135450878Y-94639881D01*
X135318851Y-94694568D01*
X135318840Y-94694574D01*
X135200021Y-94773968D01*
X135200017Y-94773971D01*
X135098971Y-94875017D01*
X135098968Y-94875021D01*
X135019574Y-94993840D01*
X135019568Y-94993851D01*
X134964881Y-95125878D01*
X134964881Y-95125880D01*
X134937000Y-95266042D01*
X130517656Y-95266042D01*
X130505225Y-95236032D01*
X130492929Y-95206347D01*
X130492927Y-95206344D01*
X130492925Y-95206340D01*
X130444644Y-95134084D01*
X130413532Y-95087521D01*
X130312479Y-94986468D01*
X130254032Y-94947415D01*
X130193659Y-94907074D01*
X130193648Y-94907068D01*
X130061620Y-94852381D01*
X129921457Y-94824500D01*
X129921455Y-94824500D01*
X129778545Y-94824500D01*
X129778542Y-94824500D01*
X129638380Y-94852381D01*
X129638378Y-94852381D01*
X129506351Y-94907068D01*
X129506340Y-94907074D01*
X129387521Y-94986468D01*
X129387517Y-94986471D01*
X129286471Y-95087517D01*
X129286468Y-95087521D01*
X129207074Y-95206340D01*
X129207068Y-95206351D01*
X129152381Y-95338378D01*
X129152381Y-95338380D01*
X129124500Y-95478542D01*
X126199237Y-95478542D01*
X126188532Y-95462521D01*
X126087479Y-95361468D01*
X126040143Y-95329839D01*
X125968659Y-95282074D01*
X125968648Y-95282068D01*
X125836620Y-95227381D01*
X125696457Y-95199500D01*
X125696455Y-95199500D01*
X125553545Y-95199500D01*
X125553542Y-95199500D01*
X125413380Y-95227381D01*
X125413378Y-95227381D01*
X125281351Y-95282068D01*
X125281340Y-95282074D01*
X125162521Y-95361468D01*
X125162517Y-95361471D01*
X125061471Y-95462517D01*
X125061468Y-95462521D01*
X124982074Y-95581340D01*
X124982068Y-95581351D01*
X124927381Y-95713378D01*
X124927381Y-95713380D01*
X124899500Y-95853542D01*
X118804688Y-95853542D01*
X118825500Y-95748918D01*
X118825500Y-95601082D01*
X118796658Y-95456087D01*
X118740084Y-95319505D01*
X118657951Y-95196584D01*
X118553416Y-95092049D01*
X118462569Y-95031347D01*
X118430494Y-95009915D01*
X118352586Y-94977645D01*
X118293914Y-94953342D01*
X118148918Y-94924500D01*
X118001082Y-94924500D01*
X118001081Y-94924500D01*
X117856085Y-94953342D01*
X117719506Y-95009915D01*
X117596585Y-95092048D01*
X117492048Y-95196585D01*
X117409915Y-95319506D01*
X117353342Y-95456085D01*
X117324500Y-95601081D01*
X116556866Y-95601081D01*
X116548918Y-95599500D01*
X116401082Y-95599500D01*
X116401081Y-95599500D01*
X116256085Y-95628342D01*
X116119506Y-95684915D01*
X115996585Y-95767048D01*
X115892048Y-95871585D01*
X115809915Y-95994506D01*
X115753342Y-96131085D01*
X115724500Y-96276081D01*
X114117336Y-96276081D01*
X114113941Y-94891042D01*
X122262000Y-94891042D01*
X122262000Y-95033957D01*
X122289881Y-95174119D01*
X122289881Y-95174121D01*
X122344568Y-95306148D01*
X122344574Y-95306159D01*
X122381531Y-95361468D01*
X122423968Y-95424979D01*
X122525021Y-95526032D01*
X122595862Y-95573366D01*
X122643840Y-95605425D01*
X122643851Y-95605431D01*
X122682532Y-95621453D01*
X122775880Y-95660119D01*
X122916045Y-95688000D01*
X122916046Y-95688000D01*
X123058954Y-95688000D01*
X123058955Y-95688000D01*
X123199120Y-95660119D01*
X123331153Y-95605429D01*
X123449979Y-95526032D01*
X123551032Y-95424979D01*
X123630429Y-95306153D01*
X123685119Y-95174120D01*
X123713000Y-95033955D01*
X123713000Y-94891045D01*
X123685119Y-94750880D01*
X123639142Y-94639881D01*
X123630431Y-94618851D01*
X123630425Y-94618840D01*
X123567388Y-94524500D01*
X123551032Y-94500021D01*
X123449979Y-94398968D01*
X123402643Y-94367339D01*
X123331159Y-94319574D01*
X123331148Y-94319568D01*
X123199120Y-94264881D01*
X123058957Y-94237000D01*
X123058955Y-94237000D01*
X122916045Y-94237000D01*
X122916042Y-94237000D01*
X122775880Y-94264881D01*
X122775878Y-94264881D01*
X122643851Y-94319568D01*
X122643840Y-94319574D01*
X122525021Y-94398968D01*
X122525017Y-94398971D01*
X122423971Y-94500017D01*
X122423968Y-94500021D01*
X122344574Y-94618840D01*
X122344568Y-94618851D01*
X122289881Y-94750878D01*
X122289881Y-94750880D01*
X122262000Y-94891042D01*
X114113941Y-94891042D01*
X114108764Y-92778542D01*
X114624500Y-92778542D01*
X114624500Y-92921457D01*
X114631585Y-92957074D01*
X114648085Y-93040025D01*
X114652381Y-93061619D01*
X114652381Y-93061621D01*
X114707068Y-93193648D01*
X114707074Y-93193659D01*
X114748957Y-93256340D01*
X114786468Y-93312479D01*
X114887521Y-93413532D01*
X114929178Y-93441366D01*
X115006340Y-93492925D01*
X115006351Y-93492931D01*
X115055121Y-93513132D01*
X115138380Y-93547619D01*
X115278545Y-93575500D01*
X115278546Y-93575500D01*
X115421454Y-93575500D01*
X115421455Y-93575500D01*
X115561620Y-93547619D01*
X115693653Y-93492929D01*
X115812479Y-93413532D01*
X115822469Y-93403542D01*
X121349500Y-93403542D01*
X121349500Y-93546457D01*
X121357150Y-93584915D01*
X121374364Y-93671455D01*
X121377381Y-93686619D01*
X121377381Y-93686621D01*
X121432068Y-93818648D01*
X121432074Y-93818659D01*
X121479839Y-93890143D01*
X121511468Y-93937479D01*
X121612521Y-94038532D01*
X121648365Y-94062482D01*
X121731340Y-94117925D01*
X121731351Y-94117931D01*
X121780121Y-94138132D01*
X121863380Y-94172619D01*
X122003545Y-94200500D01*
X122003546Y-94200500D01*
X122146454Y-94200500D01*
X122146455Y-94200500D01*
X122286620Y-94172619D01*
X122418653Y-94117929D01*
X122515015Y-94053542D01*
X124899500Y-94053542D01*
X124899500Y-94196457D01*
X124908744Y-94242929D01*
X124924854Y-94323918D01*
X124927381Y-94336619D01*
X124927381Y-94336621D01*
X124982068Y-94468648D01*
X124982074Y-94468659D01*
X125003030Y-94500021D01*
X125061468Y-94587479D01*
X125162521Y-94688532D01*
X125222209Y-94728414D01*
X125281340Y-94767925D01*
X125281351Y-94767931D01*
X125330121Y-94788132D01*
X125413380Y-94822619D01*
X125553545Y-94850500D01*
X125553546Y-94850500D01*
X125696454Y-94850500D01*
X125696455Y-94850500D01*
X125836620Y-94822619D01*
X125968653Y-94767929D01*
X126087479Y-94688532D01*
X126188532Y-94587479D01*
X126267929Y-94468653D01*
X126322619Y-94336620D01*
X126350500Y-94196455D01*
X126350500Y-94053545D01*
X126322619Y-93913380D01*
X126295380Y-93847619D01*
X126267931Y-93781351D01*
X126267925Y-93781340D01*
X126235866Y-93733362D01*
X126188532Y-93662521D01*
X126087479Y-93561468D01*
X126037902Y-93528342D01*
X125968659Y-93482074D01*
X125968648Y-93482068D01*
X125836620Y-93427381D01*
X125696457Y-93399500D01*
X125696455Y-93399500D01*
X125553545Y-93399500D01*
X125553542Y-93399500D01*
X125413380Y-93427381D01*
X125413378Y-93427381D01*
X125281351Y-93482068D01*
X125281340Y-93482074D01*
X125162521Y-93561468D01*
X125162517Y-93561471D01*
X125061471Y-93662517D01*
X125061468Y-93662521D01*
X124982074Y-93781340D01*
X124982068Y-93781351D01*
X124927381Y-93913378D01*
X124927381Y-93913380D01*
X124899500Y-94053542D01*
X122515015Y-94053542D01*
X122537479Y-94038532D01*
X122638532Y-93937479D01*
X122717929Y-93818653D01*
X122772619Y-93686620D01*
X122800500Y-93546455D01*
X122800500Y-93403545D01*
X122772619Y-93263380D01*
X122743735Y-93193648D01*
X122717931Y-93131351D01*
X122717923Y-93131336D01*
X122716149Y-93128681D01*
X122682647Y-93078542D01*
X129099500Y-93078542D01*
X129099500Y-93221457D01*
X129115602Y-93302403D01*
X129124725Y-93348270D01*
X129127381Y-93361619D01*
X129127381Y-93361621D01*
X129182068Y-93493648D01*
X129182074Y-93493659D01*
X129229839Y-93565143D01*
X129261468Y-93612479D01*
X129362521Y-93713532D01*
X129421269Y-93752786D01*
X129481340Y-93792925D01*
X129481351Y-93792931D01*
X129526471Y-93811620D01*
X129613380Y-93847619D01*
X129753545Y-93875500D01*
X129753546Y-93875500D01*
X129896454Y-93875500D01*
X129896455Y-93875500D01*
X130036620Y-93847619D01*
X130168653Y-93792929D01*
X130287479Y-93713532D01*
X130388532Y-93612479D01*
X130467929Y-93493653D01*
X130522619Y-93361620D01*
X130550500Y-93221455D01*
X130550500Y-93078545D01*
X130522619Y-92938380D01*
X130496159Y-92874500D01*
X130469071Y-92809103D01*
X130467931Y-92806351D01*
X130467925Y-92806340D01*
X130447706Y-92776081D01*
X133324500Y-92776081D01*
X133324500Y-92923918D01*
X133353342Y-93068914D01*
X133381760Y-93137521D01*
X133409916Y-93205495D01*
X133492049Y-93328416D01*
X133596584Y-93432951D01*
X133719505Y-93515084D01*
X133856087Y-93571658D01*
X134001082Y-93600500D01*
X134001083Y-93600500D01*
X134148917Y-93600500D01*
X134148918Y-93600500D01*
X134293913Y-93571658D01*
X134398004Y-93528542D01*
X134899500Y-93528542D01*
X134899500Y-93671457D01*
X134907870Y-93713532D01*
X134923663Y-93792931D01*
X134927381Y-93811619D01*
X134927381Y-93811621D01*
X134982068Y-93943648D01*
X134982074Y-93943659D01*
X135005473Y-93978677D01*
X135061468Y-94062479D01*
X135162521Y-94163532D01*
X135211791Y-94196453D01*
X135281340Y-94242925D01*
X135281351Y-94242931D01*
X135330121Y-94263132D01*
X135413380Y-94297619D01*
X135553545Y-94325500D01*
X135553546Y-94325500D01*
X135696454Y-94325500D01*
X135696455Y-94325500D01*
X135836620Y-94297619D01*
X135968653Y-94242929D01*
X136087479Y-94163532D01*
X136188532Y-94062479D01*
X136267929Y-93943653D01*
X136292435Y-93884491D01*
X143659500Y-93884491D01*
X143659500Y-95315509D01*
X143662403Y-95352400D01*
X143662404Y-95352408D01*
X143692526Y-95456087D01*
X143708270Y-95510278D01*
X143791959Y-95651789D01*
X143908211Y-95768041D01*
X144049722Y-95851730D01*
X144207599Y-95897597D01*
X144244485Y-95900500D01*
X145675514Y-95900499D01*
X145712401Y-95897597D01*
X145870278Y-95851730D01*
X146011789Y-95768041D01*
X146128041Y-95651789D01*
X146211730Y-95510278D01*
X146253077Y-95367958D01*
X146287467Y-95317354D01*
X146345035Y-95296628D01*
X146403791Y-95313698D01*
X146428238Y-95337389D01*
X146508029Y-95447213D01*
X146508031Y-95447215D01*
X146508034Y-95447219D01*
X146652781Y-95591966D01*
X146652784Y-95591968D01*
X146652786Y-95591970D01*
X146818386Y-95712285D01*
X146818390Y-95712287D01*
X146872129Y-95739668D01*
X146915394Y-95782932D01*
X146924966Y-95843364D01*
X146909501Y-95882879D01*
X146834914Y-95994507D01*
X146778342Y-96131085D01*
X146749500Y-96276081D01*
X146749500Y-96423918D01*
X146778342Y-96568914D01*
X146814205Y-96655495D01*
X146834916Y-96705495D01*
X146917049Y-96828416D01*
X147021584Y-96932951D01*
X147144505Y-97015084D01*
X147281087Y-97071658D01*
X147426082Y-97100500D01*
X147426083Y-97100500D01*
X147573917Y-97100500D01*
X147573918Y-97100500D01*
X147718913Y-97071658D01*
X147855495Y-97015084D01*
X147978416Y-96932951D01*
X148082951Y-96828416D01*
X148165084Y-96705495D01*
X148221658Y-96568913D01*
X148250500Y-96423918D01*
X148250500Y-96276082D01*
X148221658Y-96131087D01*
X148165084Y-95994505D01*
X148090498Y-95882879D01*
X148073890Y-95823993D01*
X148095067Y-95766589D01*
X148127869Y-95739669D01*
X148127871Y-95739668D01*
X148181610Y-95712287D01*
X148215039Y-95688000D01*
X148294188Y-95630495D01*
X148347219Y-95591966D01*
X148491966Y-95447219D01*
X148596350Y-95303546D01*
X148612285Y-95281613D01*
X148612287Y-95281610D01*
X148681790Y-95145201D01*
X148725055Y-95101937D01*
X148785487Y-95092366D01*
X148840003Y-95120143D01*
X148858210Y-95145202D01*
X148927712Y-95281609D01*
X148927714Y-95281613D01*
X149048029Y-95447213D01*
X149048031Y-95447215D01*
X149048034Y-95447219D01*
X149192781Y-95591966D01*
X149192784Y-95591968D01*
X149192786Y-95591970D01*
X149358386Y-95712285D01*
X149358390Y-95712287D01*
X149540781Y-95805220D01*
X149735466Y-95868477D01*
X149735467Y-95868477D01*
X149735470Y-95868478D01*
X149937645Y-95900500D01*
X149937648Y-95900500D01*
X150142355Y-95900500D01*
X150344529Y-95868478D01*
X150344530Y-95868477D01*
X150344534Y-95868477D01*
X150539219Y-95805220D01*
X150721610Y-95712287D01*
X150755039Y-95688000D01*
X150834188Y-95630495D01*
X150887219Y-95591966D01*
X150940604Y-95538581D01*
X152874500Y-95538581D01*
X152874500Y-95686418D01*
X152903342Y-95831414D01*
X152950187Y-95944507D01*
X152959916Y-95967995D01*
X153042049Y-96090916D01*
X153146584Y-96195451D01*
X153269505Y-96277584D01*
X153406087Y-96334158D01*
X153551082Y-96363000D01*
X153551083Y-96363000D01*
X153698917Y-96363000D01*
X153698918Y-96363000D01*
X153843913Y-96334158D01*
X153980495Y-96277584D01*
X154103416Y-96195451D01*
X154207951Y-96090916D01*
X154290084Y-95967995D01*
X154346658Y-95831413D01*
X154375500Y-95686418D01*
X154375500Y-95538582D01*
X154346658Y-95393587D01*
X154290084Y-95257005D01*
X154207951Y-95134084D01*
X154103416Y-95029549D01*
X153980495Y-94947416D01*
X153925171Y-94924500D01*
X153843914Y-94890842D01*
X153698918Y-94862000D01*
X153551082Y-94862000D01*
X153551081Y-94862000D01*
X153406085Y-94890842D01*
X153269506Y-94947415D01*
X153146585Y-95029548D01*
X153042048Y-95134085D01*
X152959915Y-95257006D01*
X152903342Y-95393585D01*
X152874500Y-95538581D01*
X150940604Y-95538581D01*
X151031966Y-95447219D01*
X151136350Y-95303546D01*
X151152285Y-95281613D01*
X151152287Y-95281610D01*
X151245220Y-95099219D01*
X151308477Y-94904534D01*
X151310000Y-94894918D01*
X151340500Y-94702355D01*
X151340500Y-94497644D01*
X151308477Y-94295464D01*
X151280714Y-94210021D01*
X151269686Y-94176081D01*
X164149500Y-94176081D01*
X164149500Y-94323918D01*
X164178342Y-94468914D01*
X164227455Y-94587482D01*
X164234916Y-94605495D01*
X164317049Y-94728416D01*
X164421584Y-94832951D01*
X164544505Y-94915084D01*
X164681087Y-94971658D01*
X164826082Y-95000500D01*
X164826083Y-95000500D01*
X164973917Y-95000500D01*
X164973918Y-95000500D01*
X165118913Y-94971658D01*
X165255495Y-94915084D01*
X165378416Y-94832951D01*
X165482951Y-94728416D01*
X165565084Y-94605495D01*
X165621658Y-94468913D01*
X165650500Y-94323918D01*
X165650500Y-94176082D01*
X165621658Y-94031087D01*
X165565084Y-93894505D01*
X165482951Y-93771584D01*
X165378416Y-93667049D01*
X165255495Y-93584916D01*
X165232763Y-93575500D01*
X165118914Y-93528342D01*
X164973918Y-93499500D01*
X164826082Y-93499500D01*
X164826081Y-93499500D01*
X164681085Y-93528342D01*
X164544506Y-93584915D01*
X164421585Y-93667048D01*
X164317048Y-93771585D01*
X164234915Y-93894506D01*
X164178342Y-94031085D01*
X164149500Y-94176081D01*
X151269686Y-94176081D01*
X151245220Y-94100781D01*
X151152287Y-93918390D01*
X151152285Y-93918386D01*
X151031970Y-93752786D01*
X151031967Y-93752783D01*
X151031966Y-93752781D01*
X150887219Y-93608034D01*
X150887215Y-93608031D01*
X150887213Y-93608029D01*
X150721613Y-93487714D01*
X150721609Y-93487712D01*
X150539219Y-93394780D01*
X150344529Y-93331521D01*
X150142355Y-93299500D01*
X150142352Y-93299500D01*
X149937648Y-93299500D01*
X149937645Y-93299500D01*
X149735470Y-93331521D01*
X149540780Y-93394780D01*
X149358390Y-93487712D01*
X149358386Y-93487714D01*
X149192786Y-93608029D01*
X149048029Y-93752786D01*
X148927714Y-93918386D01*
X148927712Y-93918390D01*
X148858210Y-94054797D01*
X148814945Y-94098062D01*
X148754513Y-94107633D01*
X148699996Y-94079856D01*
X148681790Y-94054797D01*
X148612287Y-93918390D01*
X148612285Y-93918386D01*
X148491970Y-93752786D01*
X148491967Y-93752783D01*
X148491966Y-93752781D01*
X148347219Y-93608034D01*
X148347215Y-93608031D01*
X148347213Y-93608029D01*
X148181613Y-93487714D01*
X148181609Y-93487712D01*
X147999219Y-93394780D01*
X147804529Y-93331521D01*
X147602355Y-93299500D01*
X147602352Y-93299500D01*
X147397648Y-93299500D01*
X147397645Y-93299500D01*
X147195470Y-93331521D01*
X147000780Y-93394780D01*
X146818390Y-93487712D01*
X146818386Y-93487714D01*
X146652786Y-93608029D01*
X146508032Y-93752783D01*
X146428239Y-93862610D01*
X146378739Y-93898574D01*
X146317553Y-93898574D01*
X146268053Y-93862610D01*
X146253077Y-93832039D01*
X146235513Y-93771584D01*
X146211730Y-93689722D01*
X146128041Y-93548211D01*
X146011789Y-93431959D01*
X145870278Y-93348270D01*
X145712401Y-93302403D01*
X145675515Y-93299500D01*
X145675508Y-93299500D01*
X144244490Y-93299500D01*
X144207599Y-93302403D01*
X144207591Y-93302404D01*
X144049722Y-93348270D01*
X143908212Y-93431958D01*
X143791958Y-93548212D01*
X143721679Y-93667048D01*
X143708270Y-93689722D01*
X143662403Y-93847599D01*
X143660208Y-93875499D01*
X143659500Y-93884491D01*
X136292435Y-93884491D01*
X136322619Y-93811620D01*
X136350500Y-93671455D01*
X136350500Y-93528545D01*
X136322619Y-93388380D01*
X136291179Y-93312478D01*
X136267931Y-93256351D01*
X136267925Y-93256340D01*
X136226035Y-93193648D01*
X136188532Y-93137521D01*
X136087479Y-93036468D01*
X136040143Y-93004839D01*
X135968659Y-92957074D01*
X135968648Y-92957068D01*
X135836620Y-92902381D01*
X135696457Y-92874500D01*
X135696455Y-92874500D01*
X135553545Y-92874500D01*
X135553542Y-92874500D01*
X135413380Y-92902381D01*
X135413378Y-92902381D01*
X135281351Y-92957068D01*
X135281340Y-92957074D01*
X135162521Y-93036468D01*
X135162517Y-93036471D01*
X135061471Y-93137517D01*
X135061468Y-93137521D01*
X134982074Y-93256340D01*
X134982068Y-93256351D01*
X134927381Y-93388378D01*
X134927381Y-93388380D01*
X134899500Y-93528542D01*
X134398004Y-93528542D01*
X134430495Y-93515084D01*
X134553416Y-93432951D01*
X134657951Y-93328416D01*
X134740084Y-93205495D01*
X134796658Y-93068913D01*
X134825500Y-92923918D01*
X134825500Y-92776082D01*
X134796658Y-92631087D01*
X134740084Y-92494505D01*
X134657951Y-92371584D01*
X134553416Y-92267049D01*
X134430495Y-92184916D01*
X134374256Y-92161621D01*
X134293914Y-92128342D01*
X134148918Y-92099500D01*
X134001082Y-92099500D01*
X134001081Y-92099500D01*
X133856085Y-92128342D01*
X133719506Y-92184915D01*
X133596585Y-92267048D01*
X133492048Y-92371585D01*
X133409915Y-92494506D01*
X133353342Y-92631085D01*
X133324500Y-92776081D01*
X130447706Y-92776081D01*
X130429945Y-92749500D01*
X130388532Y-92687521D01*
X130287479Y-92586468D01*
X130240143Y-92554839D01*
X130168659Y-92507074D01*
X130168648Y-92507068D01*
X130036620Y-92452381D01*
X129896457Y-92424500D01*
X129896455Y-92424500D01*
X129753545Y-92424500D01*
X129753542Y-92424500D01*
X129613380Y-92452381D01*
X129613378Y-92452381D01*
X129481351Y-92507068D01*
X129481340Y-92507074D01*
X129362521Y-92586468D01*
X129362517Y-92586471D01*
X129261471Y-92687517D01*
X129261468Y-92687521D01*
X129182074Y-92806340D01*
X129182068Y-92806351D01*
X129127381Y-92938378D01*
X129127381Y-92938380D01*
X129099500Y-93078542D01*
X122682647Y-93078542D01*
X122638532Y-93012521D01*
X122537482Y-92911471D01*
X122537479Y-92911468D01*
X122490143Y-92879839D01*
X122418659Y-92832074D01*
X122418648Y-92832068D01*
X122286620Y-92777381D01*
X122146457Y-92749500D01*
X122146455Y-92749500D01*
X122003545Y-92749500D01*
X122003542Y-92749500D01*
X121863380Y-92777381D01*
X121863378Y-92777381D01*
X121731351Y-92832068D01*
X121731340Y-92832074D01*
X121612521Y-92911468D01*
X121612517Y-92911471D01*
X121511471Y-93012517D01*
X121511468Y-93012521D01*
X121432074Y-93131340D01*
X121432068Y-93131351D01*
X121377381Y-93263378D01*
X121377381Y-93263380D01*
X121349500Y-93403542D01*
X115822469Y-93403542D01*
X115913532Y-93312479D01*
X115992929Y-93193653D01*
X116047619Y-93061620D01*
X116075500Y-92921455D01*
X116075500Y-92778545D01*
X116047619Y-92638380D01*
X115992929Y-92506347D01*
X115913532Y-92387521D01*
X115812479Y-92286468D01*
X115765143Y-92254839D01*
X115693659Y-92207074D01*
X115693648Y-92207068D01*
X115561620Y-92152381D01*
X115421457Y-92124500D01*
X115421455Y-92124500D01*
X115278545Y-92124500D01*
X115278542Y-92124500D01*
X115138380Y-92152381D01*
X115138378Y-92152381D01*
X115006351Y-92207068D01*
X115006340Y-92207074D01*
X114887521Y-92286468D01*
X114887517Y-92286471D01*
X114786471Y-92387517D01*
X114786468Y-92387521D01*
X114707074Y-92506340D01*
X114707068Y-92506351D01*
X114652381Y-92638378D01*
X114652381Y-92638380D01*
X114624500Y-92778542D01*
X114108764Y-92778542D01*
X114106558Y-91878542D01*
X115999500Y-91878542D01*
X115999500Y-92021457D01*
X116015024Y-92099500D01*
X116020761Y-92128342D01*
X116027381Y-92161619D01*
X116027381Y-92161621D01*
X116073732Y-92273524D01*
X116073735Y-92273529D01*
X116082071Y-92293653D01*
X116161468Y-92412479D01*
X116262521Y-92513532D01*
X116333362Y-92560866D01*
X116381340Y-92592925D01*
X116381351Y-92592931D01*
X116430121Y-92613132D01*
X116513380Y-92647619D01*
X116653545Y-92675500D01*
X116653546Y-92675500D01*
X116796454Y-92675500D01*
X116796455Y-92675500D01*
X116936620Y-92647619D01*
X117068653Y-92592929D01*
X117187479Y-92513532D01*
X117288532Y-92412479D01*
X117367929Y-92293653D01*
X117422619Y-92161620D01*
X117450500Y-92021455D01*
X117450500Y-91878545D01*
X117422619Y-91738380D01*
X117404108Y-91693691D01*
X117367931Y-91606351D01*
X117367925Y-91606340D01*
X117305720Y-91513245D01*
X117288532Y-91487521D01*
X117187479Y-91386468D01*
X117123221Y-91343532D01*
X117068659Y-91307074D01*
X117068648Y-91307068D01*
X116936620Y-91252381D01*
X116796457Y-91224500D01*
X116796455Y-91224500D01*
X116653545Y-91224500D01*
X116653542Y-91224500D01*
X116513380Y-91252381D01*
X116513378Y-91252381D01*
X116381351Y-91307068D01*
X116381340Y-91307074D01*
X116262521Y-91386468D01*
X116262517Y-91386471D01*
X116161471Y-91487517D01*
X116161468Y-91487521D01*
X116082074Y-91606340D01*
X116082068Y-91606351D01*
X116027381Y-91738378D01*
X116027381Y-91738380D01*
X115999500Y-91878542D01*
X114106558Y-91878542D01*
X114104354Y-90979308D01*
X117450266Y-90979308D01*
X117450266Y-91122223D01*
X117478147Y-91262385D01*
X117478147Y-91262387D01*
X117532834Y-91394414D01*
X117532840Y-91394425D01*
X117573645Y-91455493D01*
X117612234Y-91513245D01*
X117713287Y-91614298D01*
X117784128Y-91661632D01*
X117832106Y-91693691D01*
X117832117Y-91693697D01*
X117880887Y-91713898D01*
X117964146Y-91748385D01*
X118104311Y-91776266D01*
X118104312Y-91776266D01*
X118247220Y-91776266D01*
X118247221Y-91776266D01*
X118387386Y-91748385D01*
X118519419Y-91693695D01*
X118638245Y-91614298D01*
X118739298Y-91513245D01*
X118818695Y-91394419D01*
X118873385Y-91262386D01*
X118901266Y-91122221D01*
X118901266Y-90979311D01*
X118873385Y-90839146D01*
X118834184Y-90744506D01*
X118818697Y-90707117D01*
X118818691Y-90707106D01*
X118786632Y-90659128D01*
X118739298Y-90588287D01*
X118638245Y-90487234D01*
X118564488Y-90437951D01*
X118519425Y-90407840D01*
X118519414Y-90407834D01*
X118387386Y-90353147D01*
X118247223Y-90325266D01*
X118247221Y-90325266D01*
X118104311Y-90325266D01*
X118104308Y-90325266D01*
X117964146Y-90353147D01*
X117964144Y-90353147D01*
X117832117Y-90407834D01*
X117832106Y-90407840D01*
X117713287Y-90487234D01*
X117713283Y-90487237D01*
X117612237Y-90588283D01*
X117612234Y-90588287D01*
X117532840Y-90707106D01*
X117532834Y-90707117D01*
X117478147Y-90839144D01*
X117478147Y-90839146D01*
X117450266Y-90979308D01*
X114104354Y-90979308D01*
X114102391Y-90178542D01*
X123799500Y-90178542D01*
X123799500Y-90321457D01*
X123827381Y-90461619D01*
X123827381Y-90461621D01*
X123882068Y-90593648D01*
X123882074Y-90593659D01*
X123929839Y-90665143D01*
X123961468Y-90712479D01*
X124062521Y-90813532D01*
X124119277Y-90851455D01*
X124181340Y-90892925D01*
X124181351Y-90892931D01*
X124230121Y-90913132D01*
X124313380Y-90947619D01*
X124453545Y-90975500D01*
X124453546Y-90975500D01*
X124596454Y-90975500D01*
X124596455Y-90975500D01*
X124736620Y-90947619D01*
X124868653Y-90892929D01*
X124987479Y-90813532D01*
X125088532Y-90712479D01*
X125167929Y-90593653D01*
X125222619Y-90461620D01*
X125229199Y-90428542D01*
X127724500Y-90428542D01*
X127724500Y-90571457D01*
X127743087Y-90664898D01*
X127751769Y-90708545D01*
X127752381Y-90711619D01*
X127752381Y-90711621D01*
X127807068Y-90843648D01*
X127807074Y-90843659D01*
X127854839Y-90915143D01*
X127886468Y-90962479D01*
X127987521Y-91063532D01*
X128026421Y-91089524D01*
X128106340Y-91142925D01*
X128106351Y-91142931D01*
X128155121Y-91163132D01*
X128238380Y-91197619D01*
X128378545Y-91225500D01*
X128378546Y-91225500D01*
X128521454Y-91225500D01*
X128521455Y-91225500D01*
X128661620Y-91197619D01*
X128793653Y-91142929D01*
X128912479Y-91063532D01*
X128949930Y-91026081D01*
X135349500Y-91026081D01*
X135349500Y-91173918D01*
X135378342Y-91318914D01*
X135421427Y-91422929D01*
X135434916Y-91455495D01*
X135517049Y-91578416D01*
X135621584Y-91682951D01*
X135744505Y-91765084D01*
X135881087Y-91821658D01*
X136026082Y-91850500D01*
X136026083Y-91850500D01*
X136173917Y-91850500D01*
X136173918Y-91850500D01*
X136318913Y-91821658D01*
X136455495Y-91765084D01*
X136578416Y-91682951D01*
X136682951Y-91578416D01*
X136765084Y-91455495D01*
X136821658Y-91318913D01*
X136850500Y-91173918D01*
X136850500Y-91026082D01*
X136821658Y-90881087D01*
X136765084Y-90744505D01*
X136682951Y-90621584D01*
X136578416Y-90517049D01*
X136455495Y-90434916D01*
X136455493Y-90434915D01*
X136318914Y-90378342D01*
X136173918Y-90349500D01*
X136026082Y-90349500D01*
X136026081Y-90349500D01*
X135881085Y-90378342D01*
X135744506Y-90434915D01*
X135621585Y-90517048D01*
X135517048Y-90621585D01*
X135434915Y-90744506D01*
X135378342Y-90881085D01*
X135349500Y-91026081D01*
X128949930Y-91026081D01*
X129013532Y-90962479D01*
X129092929Y-90843653D01*
X129147619Y-90711620D01*
X129175500Y-90571455D01*
X129175500Y-90428545D01*
X129147619Y-90288380D01*
X129116616Y-90213532D01*
X129092931Y-90156351D01*
X129092925Y-90156340D01*
X129060866Y-90108362D01*
X129013532Y-90037521D01*
X128912479Y-89936468D01*
X128865143Y-89904839D01*
X128793659Y-89857074D01*
X128793648Y-89857068D01*
X128661620Y-89802381D01*
X128521457Y-89774500D01*
X128521455Y-89774500D01*
X128378545Y-89774500D01*
X128378542Y-89774500D01*
X128238380Y-89802381D01*
X128238378Y-89802381D01*
X128106351Y-89857068D01*
X128106340Y-89857074D01*
X127987521Y-89936468D01*
X127987517Y-89936471D01*
X127886471Y-90037517D01*
X127886468Y-90037521D01*
X127807074Y-90156340D01*
X127807068Y-90156351D01*
X127752381Y-90288378D01*
X127752381Y-90288380D01*
X127724500Y-90428542D01*
X125229199Y-90428542D01*
X125250500Y-90321455D01*
X125250500Y-90178545D01*
X125222619Y-90038380D01*
X125177278Y-89928918D01*
X125167931Y-89906351D01*
X125167925Y-89906340D01*
X125131362Y-89851621D01*
X125088532Y-89787521D01*
X124987479Y-89686468D01*
X124912076Y-89636085D01*
X124868659Y-89607074D01*
X124868648Y-89607068D01*
X124799779Y-89578542D01*
X138824500Y-89578542D01*
X138824500Y-89721457D01*
X138852381Y-89861619D01*
X138852381Y-89861621D01*
X138907068Y-89993648D01*
X138907074Y-89993659D01*
X138947728Y-90054500D01*
X138986468Y-90112479D01*
X139087521Y-90213532D01*
X139158362Y-90260866D01*
X139206340Y-90292925D01*
X139206351Y-90292931D01*
X139254382Y-90312826D01*
X139338380Y-90347619D01*
X139478545Y-90375500D01*
X139478546Y-90375500D01*
X139621454Y-90375500D01*
X139621455Y-90375500D01*
X139761620Y-90347619D01*
X139893653Y-90292929D01*
X140012479Y-90213532D01*
X140113532Y-90112479D01*
X140192929Y-89993653D01*
X140247619Y-89861620D01*
X140275500Y-89721455D01*
X140275500Y-89578545D01*
X140273510Y-89568542D01*
X158999500Y-89568542D01*
X158999500Y-89711457D01*
X159027381Y-89851619D01*
X159027381Y-89851621D01*
X159082068Y-89983648D01*
X159082074Y-89983659D01*
X159118062Y-90037517D01*
X159161468Y-90102479D01*
X159262521Y-90203532D01*
X159333362Y-90250866D01*
X159381340Y-90282925D01*
X159381351Y-90282931D01*
X159430121Y-90303132D01*
X159513380Y-90337619D01*
X159653545Y-90365500D01*
X159653546Y-90365500D01*
X159796454Y-90365500D01*
X159796455Y-90365500D01*
X159936620Y-90337619D01*
X160068653Y-90282929D01*
X160187479Y-90203532D01*
X160288532Y-90102479D01*
X160367929Y-89983653D01*
X160422619Y-89851620D01*
X160450500Y-89711455D01*
X160450500Y-89568545D01*
X160422619Y-89428380D01*
X160380259Y-89326114D01*
X160367931Y-89296351D01*
X160367925Y-89296340D01*
X160311890Y-89212479D01*
X160288532Y-89177521D01*
X160187479Y-89076468D01*
X160140143Y-89044839D01*
X160068659Y-88997074D01*
X160068648Y-88997068D01*
X159936620Y-88942381D01*
X159796457Y-88914500D01*
X159796455Y-88914500D01*
X159653545Y-88914500D01*
X159653542Y-88914500D01*
X159513380Y-88942381D01*
X159513378Y-88942381D01*
X159381351Y-88997068D01*
X159381340Y-88997074D01*
X159262521Y-89076468D01*
X159262517Y-89076471D01*
X159161471Y-89177517D01*
X159161468Y-89177521D01*
X159082074Y-89296340D01*
X159082068Y-89296351D01*
X159027381Y-89428378D01*
X159027381Y-89428380D01*
X158999500Y-89568542D01*
X140273510Y-89568542D01*
X140247619Y-89438380D01*
X140217056Y-89364595D01*
X140192931Y-89306351D01*
X140192925Y-89306340D01*
X140130208Y-89212479D01*
X140113532Y-89187521D01*
X140012479Y-89086468D01*
X139965143Y-89054839D01*
X139893659Y-89007074D01*
X139893648Y-89007068D01*
X139761620Y-88952381D01*
X139621457Y-88924500D01*
X139621455Y-88924500D01*
X139478545Y-88924500D01*
X139478542Y-88924500D01*
X139338380Y-88952381D01*
X139338378Y-88952381D01*
X139206351Y-89007068D01*
X139206340Y-89007074D01*
X139087521Y-89086468D01*
X139087517Y-89086471D01*
X138986471Y-89187517D01*
X138986468Y-89187521D01*
X138907074Y-89306340D01*
X138907068Y-89306351D01*
X138852381Y-89438378D01*
X138852381Y-89438380D01*
X138824500Y-89578542D01*
X124799779Y-89578542D01*
X124736620Y-89552381D01*
X124596457Y-89524500D01*
X124596455Y-89524500D01*
X124453545Y-89524500D01*
X124453542Y-89524500D01*
X124313380Y-89552381D01*
X124313378Y-89552381D01*
X124181351Y-89607068D01*
X124181340Y-89607074D01*
X124062521Y-89686468D01*
X124062517Y-89686471D01*
X123961471Y-89787517D01*
X123961468Y-89787521D01*
X123882074Y-89906340D01*
X123882068Y-89906351D01*
X123827381Y-90038378D01*
X123827381Y-90038380D01*
X123799500Y-90178542D01*
X114102391Y-90178542D01*
X114097918Y-88353542D01*
X115574500Y-88353542D01*
X115574500Y-88496457D01*
X115602381Y-88636619D01*
X115602381Y-88636621D01*
X115657068Y-88768648D01*
X115657074Y-88768659D01*
X115704839Y-88840143D01*
X115736468Y-88887479D01*
X115837521Y-88988532D01*
X115890474Y-89023914D01*
X115956340Y-89067925D01*
X115956351Y-89067931D01*
X115976969Y-89076471D01*
X116088380Y-89122619D01*
X116228545Y-89150500D01*
X116228546Y-89150500D01*
X116371454Y-89150500D01*
X116371455Y-89150500D01*
X116511620Y-89122619D01*
X116643653Y-89067929D01*
X116762479Y-88988532D01*
X116863532Y-88887479D01*
X116942929Y-88768653D01*
X116980254Y-88678542D01*
X140649500Y-88678542D01*
X140649500Y-88821457D01*
X140677381Y-88961619D01*
X140677381Y-88961621D01*
X140732068Y-89093648D01*
X140732074Y-89093659D01*
X140751425Y-89122619D01*
X140811468Y-89212479D01*
X140912521Y-89313532D01*
X140983362Y-89360866D01*
X141031340Y-89392925D01*
X141031351Y-89392931D01*
X141080121Y-89413132D01*
X141163380Y-89447619D01*
X141303545Y-89475500D01*
X141303546Y-89475500D01*
X141446454Y-89475500D01*
X141446455Y-89475500D01*
X141586620Y-89447619D01*
X141718653Y-89392929D01*
X141837479Y-89313532D01*
X141938532Y-89212479D01*
X142017929Y-89093653D01*
X142072619Y-88961620D01*
X142100500Y-88821455D01*
X142100500Y-88678545D01*
X142100499Y-88678542D01*
X157599500Y-88678542D01*
X157599500Y-88821457D01*
X157627381Y-88961619D01*
X157627381Y-88961621D01*
X157682068Y-89093648D01*
X157682074Y-89093659D01*
X157701425Y-89122619D01*
X157761468Y-89212479D01*
X157862521Y-89313532D01*
X157933362Y-89360866D01*
X157981340Y-89392925D01*
X157981351Y-89392931D01*
X158030121Y-89413132D01*
X158113380Y-89447619D01*
X158253545Y-89475500D01*
X158253546Y-89475500D01*
X158396454Y-89475500D01*
X158396455Y-89475500D01*
X158536620Y-89447619D01*
X158668653Y-89392929D01*
X158787479Y-89313532D01*
X158888532Y-89212479D01*
X158967929Y-89093653D01*
X159022619Y-88961620D01*
X159050500Y-88821455D01*
X159050500Y-88731081D01*
X163094500Y-88731081D01*
X163094500Y-88878918D01*
X163123342Y-89023914D01*
X163179914Y-89160492D01*
X163256425Y-89274999D01*
X163273033Y-89333887D01*
X163256425Y-89385001D01*
X163179914Y-89499507D01*
X163123342Y-89636085D01*
X163094500Y-89781081D01*
X163094500Y-89928918D01*
X163123342Y-90073914D01*
X163166682Y-90178545D01*
X163179916Y-90210495D01*
X163262049Y-90333416D01*
X163366584Y-90437951D01*
X163489505Y-90520084D01*
X163626087Y-90576658D01*
X163771082Y-90605500D01*
X163771083Y-90605500D01*
X163918917Y-90605500D01*
X163918918Y-90605500D01*
X164063913Y-90576658D01*
X164200495Y-90520084D01*
X164323416Y-90437951D01*
X164427951Y-90333416D01*
X164510084Y-90210495D01*
X164566658Y-90073913D01*
X164595500Y-89928918D01*
X164595500Y-89781082D01*
X164566658Y-89636087D01*
X164510084Y-89499505D01*
X164433574Y-89385000D01*
X164416966Y-89326114D01*
X164433575Y-89274999D01*
X164510084Y-89160495D01*
X164566658Y-89023913D01*
X164595500Y-88878918D01*
X164595500Y-88731082D01*
X164566658Y-88586087D01*
X164510084Y-88449505D01*
X164427951Y-88326584D01*
X164323416Y-88222049D01*
X164200495Y-88139916D01*
X164200493Y-88139915D01*
X164063914Y-88083342D01*
X163918918Y-88054500D01*
X163771082Y-88054500D01*
X163771081Y-88054500D01*
X163626085Y-88083342D01*
X163489506Y-88139915D01*
X163366585Y-88222048D01*
X163262048Y-88326585D01*
X163179915Y-88449506D01*
X163123342Y-88586085D01*
X163094500Y-88731081D01*
X159050500Y-88731081D01*
X159050500Y-88678545D01*
X159022619Y-88538380D01*
X158967929Y-88406347D01*
X158967928Y-88406345D01*
X158967925Y-88406340D01*
X158925253Y-88342478D01*
X158888532Y-88287521D01*
X158787479Y-88186468D01*
X158723402Y-88143653D01*
X158668659Y-88107074D01*
X158668648Y-88107068D01*
X158536620Y-88052381D01*
X158396457Y-88024500D01*
X158396455Y-88024500D01*
X158253545Y-88024500D01*
X158253542Y-88024500D01*
X158113380Y-88052381D01*
X158113378Y-88052381D01*
X157981351Y-88107068D01*
X157981340Y-88107074D01*
X157862521Y-88186468D01*
X157862517Y-88186471D01*
X157761471Y-88287517D01*
X157761468Y-88287521D01*
X157682074Y-88406340D01*
X157682068Y-88406351D01*
X157627381Y-88538378D01*
X157627381Y-88538380D01*
X157599500Y-88678542D01*
X142100499Y-88678542D01*
X142072619Y-88538380D01*
X142017929Y-88406347D01*
X142017928Y-88406345D01*
X142017925Y-88406340D01*
X141975253Y-88342478D01*
X141938532Y-88287521D01*
X141837479Y-88186468D01*
X141773402Y-88143653D01*
X141718659Y-88107074D01*
X141718648Y-88107068D01*
X141586620Y-88052381D01*
X141446457Y-88024500D01*
X141446455Y-88024500D01*
X141303545Y-88024500D01*
X141303542Y-88024500D01*
X141163380Y-88052381D01*
X141163378Y-88052381D01*
X141031351Y-88107068D01*
X141031340Y-88107074D01*
X140912521Y-88186468D01*
X140912517Y-88186471D01*
X140811471Y-88287517D01*
X140811468Y-88287521D01*
X140732074Y-88406340D01*
X140732068Y-88406351D01*
X140677381Y-88538378D01*
X140677381Y-88538380D01*
X140649500Y-88678542D01*
X116980254Y-88678542D01*
X116997619Y-88636620D01*
X117025500Y-88496455D01*
X117025500Y-88353545D01*
X116997619Y-88213380D01*
X116965321Y-88135405D01*
X116942931Y-88081351D01*
X116942925Y-88081340D01*
X116904945Y-88024500D01*
X116863532Y-87962521D01*
X116762479Y-87861468D01*
X116683276Y-87808546D01*
X116679460Y-87805996D01*
X116643660Y-87782074D01*
X116643648Y-87782068D01*
X116514423Y-87728542D01*
X138949500Y-87728542D01*
X138949500Y-87871457D01*
X138977381Y-88011619D01*
X138977381Y-88011621D01*
X139032068Y-88143648D01*
X139032074Y-88143659D01*
X139060679Y-88186468D01*
X139111468Y-88262479D01*
X139212521Y-88363532D01*
X139276588Y-88406340D01*
X139331340Y-88442925D01*
X139331351Y-88442931D01*
X139347225Y-88449506D01*
X139463380Y-88497619D01*
X139603545Y-88525500D01*
X139603546Y-88525500D01*
X139746454Y-88525500D01*
X139746455Y-88525500D01*
X139886620Y-88497619D01*
X140018653Y-88442929D01*
X140137479Y-88363532D01*
X140238532Y-88262479D01*
X140317929Y-88143653D01*
X140372619Y-88011620D01*
X140400500Y-87871455D01*
X140400500Y-87808542D01*
X159274500Y-87808542D01*
X159274500Y-87951457D01*
X159286468Y-88011620D01*
X159300734Y-88083342D01*
X159302381Y-88091619D01*
X159302381Y-88091621D01*
X159357068Y-88223648D01*
X159357074Y-88223659D01*
X159399746Y-88287521D01*
X159436468Y-88342479D01*
X159537521Y-88443532D01*
X159608362Y-88490866D01*
X159656340Y-88522925D01*
X159656351Y-88522931D01*
X159693644Y-88538378D01*
X159788380Y-88577619D01*
X159928545Y-88605500D01*
X159928546Y-88605500D01*
X160071454Y-88605500D01*
X160071455Y-88605500D01*
X160211620Y-88577619D01*
X160343653Y-88522929D01*
X160462479Y-88443532D01*
X160563532Y-88342479D01*
X160642929Y-88223653D01*
X160697619Y-88091620D01*
X160725500Y-87951455D01*
X160725500Y-87808545D01*
X160697619Y-87668380D01*
X160649726Y-87552756D01*
X160642931Y-87536351D01*
X160642925Y-87536340D01*
X160589477Y-87456351D01*
X160563532Y-87417521D01*
X160462479Y-87316468D01*
X160415143Y-87284839D01*
X160343659Y-87237074D01*
X160343648Y-87237068D01*
X160211620Y-87182381D01*
X160071457Y-87154500D01*
X160071455Y-87154500D01*
X159928545Y-87154500D01*
X159928542Y-87154500D01*
X159788380Y-87182381D01*
X159788378Y-87182381D01*
X159656351Y-87237068D01*
X159656340Y-87237074D01*
X159537521Y-87316468D01*
X159537517Y-87316471D01*
X159436471Y-87417517D01*
X159436468Y-87417521D01*
X159357074Y-87536340D01*
X159357068Y-87536351D01*
X159302381Y-87668378D01*
X159302381Y-87668380D01*
X159274500Y-87808542D01*
X140400500Y-87808542D01*
X140400500Y-87728545D01*
X140372619Y-87588380D01*
X140317929Y-87456347D01*
X140317928Y-87456345D01*
X140317925Y-87456340D01*
X140267973Y-87381583D01*
X140238532Y-87337521D01*
X140137479Y-87236468D01*
X140090143Y-87204839D01*
X140018659Y-87157074D01*
X140018648Y-87157068D01*
X139886620Y-87102381D01*
X139746457Y-87074500D01*
X139746455Y-87074500D01*
X139603545Y-87074500D01*
X139603542Y-87074500D01*
X139463380Y-87102381D01*
X139463378Y-87102381D01*
X139331351Y-87157068D01*
X139331340Y-87157074D01*
X139212521Y-87236468D01*
X139212517Y-87236471D01*
X139111471Y-87337517D01*
X139111468Y-87337521D01*
X139032074Y-87456340D01*
X139032068Y-87456351D01*
X138977381Y-87588378D01*
X138977381Y-87588380D01*
X138949500Y-87728542D01*
X116514423Y-87728542D01*
X116511620Y-87727381D01*
X116371457Y-87699500D01*
X116371455Y-87699500D01*
X116228545Y-87699500D01*
X116228542Y-87699500D01*
X116088380Y-87727381D01*
X116088378Y-87727381D01*
X115956351Y-87782068D01*
X115956340Y-87782074D01*
X115837521Y-87861468D01*
X115837517Y-87861471D01*
X115736471Y-87962517D01*
X115736468Y-87962521D01*
X115657074Y-88081340D01*
X115657068Y-88081351D01*
X115602381Y-88213378D01*
X115602381Y-88213380D01*
X115574500Y-88353542D01*
X114097918Y-88353542D01*
X114093428Y-86521796D01*
X114112193Y-86463561D01*
X114161605Y-86427476D01*
X114191672Y-86422558D01*
X121880583Y-86364021D01*
X121938916Y-86382485D01*
X121975256Y-86431709D01*
X121978435Y-86443703D01*
X122003342Y-86568914D01*
X122031742Y-86637478D01*
X122059916Y-86705495D01*
X122142049Y-86828416D01*
X122246584Y-86932951D01*
X122369505Y-87015084D01*
X122506087Y-87071658D01*
X122651082Y-87100500D01*
X122651083Y-87100500D01*
X122798917Y-87100500D01*
X122798918Y-87100500D01*
X122943913Y-87071658D01*
X123080495Y-87015084D01*
X123203416Y-86932951D01*
X123307951Y-86828416D01*
X123390084Y-86705495D01*
X123446658Y-86568913D01*
X123474123Y-86430836D01*
X123504020Y-86377454D01*
X123559585Y-86351838D01*
X123570454Y-86351155D01*
X124966384Y-86340528D01*
X125024717Y-86358992D01*
X125058602Y-86401639D01*
X125107070Y-86518651D01*
X125107074Y-86518659D01*
X125140654Y-86568914D01*
X125186468Y-86637479D01*
X125287521Y-86738532D01*
X125358362Y-86785866D01*
X125406340Y-86817925D01*
X125406351Y-86817931D01*
X125455121Y-86838132D01*
X125538380Y-86872619D01*
X125678545Y-86900500D01*
X125678546Y-86900500D01*
X125821454Y-86900500D01*
X125821455Y-86900500D01*
X125961620Y-86872619D01*
X126093653Y-86817929D01*
X126184572Y-86757179D01*
X153240616Y-86757179D01*
X153240616Y-86905016D01*
X153269458Y-87050012D01*
X153313805Y-87157074D01*
X153326032Y-87186593D01*
X153408165Y-87309514D01*
X153512700Y-87414049D01*
X153635621Y-87496182D01*
X153772203Y-87552756D01*
X153917198Y-87581598D01*
X153917199Y-87581598D01*
X154065033Y-87581598D01*
X154065034Y-87581598D01*
X154210029Y-87552756D01*
X154346611Y-87496182D01*
X154469532Y-87414049D01*
X154574067Y-87309514D01*
X154656200Y-87186593D01*
X154712774Y-87050011D01*
X154741616Y-86905016D01*
X154741616Y-86757180D01*
X154712774Y-86612185D01*
X154656200Y-86475603D01*
X154574067Y-86352682D01*
X154469532Y-86248147D01*
X154346611Y-86166014D01*
X154346609Y-86166013D01*
X154210030Y-86109440D01*
X154065034Y-86080598D01*
X153917198Y-86080598D01*
X153917197Y-86080598D01*
X153772201Y-86109440D01*
X153635622Y-86166013D01*
X153512701Y-86248146D01*
X153408164Y-86352683D01*
X153326031Y-86475604D01*
X153269458Y-86612183D01*
X153240616Y-86757179D01*
X126184572Y-86757179D01*
X126212479Y-86738532D01*
X126313532Y-86637479D01*
X126392929Y-86518653D01*
X126446351Y-86389680D01*
X126486086Y-86343156D01*
X126537058Y-86328570D01*
X132642710Y-86282087D01*
X132636378Y-85378542D01*
X134424500Y-85378542D01*
X134424500Y-85521457D01*
X134428513Y-85541631D01*
X134445761Y-85628342D01*
X134452381Y-85661619D01*
X134452381Y-85661621D01*
X134507068Y-85793648D01*
X134507074Y-85793659D01*
X134554839Y-85865143D01*
X134586468Y-85912479D01*
X134687521Y-86013532D01*
X134758362Y-86060866D01*
X134806340Y-86092925D01*
X134806351Y-86092931D01*
X134831976Y-86103545D01*
X134938380Y-86147619D01*
X135078545Y-86175500D01*
X135078546Y-86175500D01*
X135221454Y-86175500D01*
X135221455Y-86175500D01*
X135361620Y-86147619D01*
X135493653Y-86092929D01*
X135612479Y-86013532D01*
X135713532Y-85912479D01*
X135792929Y-85793653D01*
X135847619Y-85661620D01*
X135875500Y-85521455D01*
X135875500Y-85378545D01*
X135847619Y-85238380D01*
X135818011Y-85166901D01*
X135792931Y-85106351D01*
X135792925Y-85106340D01*
X135760866Y-85058362D01*
X135713532Y-84987521D01*
X135612479Y-84886468D01*
X135565143Y-84854839D01*
X135493659Y-84807074D01*
X135493648Y-84807068D01*
X135361620Y-84752381D01*
X135221457Y-84724500D01*
X135221455Y-84724500D01*
X135078545Y-84724500D01*
X135078542Y-84724500D01*
X134938380Y-84752381D01*
X134938378Y-84752381D01*
X134806351Y-84807068D01*
X134806340Y-84807074D01*
X134687521Y-84886468D01*
X134687517Y-84886471D01*
X134586471Y-84987517D01*
X134586468Y-84987521D01*
X134507074Y-85106340D01*
X134507068Y-85106351D01*
X134452381Y-85238378D01*
X134452381Y-85238380D01*
X134424500Y-85378542D01*
X132636378Y-85378542D01*
X132614829Y-82303542D01*
X137480500Y-82303542D01*
X137480500Y-82446457D01*
X137508381Y-82586619D01*
X137508381Y-82586621D01*
X137563068Y-82718648D01*
X137563074Y-82718659D01*
X137594930Y-82766334D01*
X137642468Y-82837479D01*
X137743521Y-82938532D01*
X137814362Y-82985866D01*
X137862340Y-83017925D01*
X137862351Y-83017931D01*
X137911121Y-83038132D01*
X137994380Y-83072619D01*
X138134545Y-83100500D01*
X138134546Y-83100500D01*
X138277454Y-83100500D01*
X138277455Y-83100500D01*
X138417620Y-83072619D01*
X138549653Y-83017929D01*
X138668479Y-82938532D01*
X138769532Y-82837479D01*
X138848929Y-82718653D01*
X138903619Y-82586620D01*
X138931500Y-82446455D01*
X138931500Y-82303545D01*
X138903619Y-82163380D01*
X138848929Y-82031347D01*
X138848928Y-82031345D01*
X138848925Y-82031340D01*
X138814954Y-81980500D01*
X138769532Y-81912521D01*
X138668479Y-81811468D01*
X138621143Y-81779839D01*
X138549659Y-81732074D01*
X138549648Y-81732068D01*
X138417620Y-81677381D01*
X138277457Y-81649500D01*
X138277455Y-81649500D01*
X138134545Y-81649500D01*
X138134542Y-81649500D01*
X137994380Y-81677381D01*
X137994378Y-81677381D01*
X137862351Y-81732068D01*
X137862340Y-81732074D01*
X137743521Y-81811468D01*
X137743517Y-81811471D01*
X137642471Y-81912517D01*
X137642468Y-81912521D01*
X137563074Y-82031340D01*
X137563068Y-82031351D01*
X137508381Y-82163378D01*
X137508381Y-82163380D01*
X137480500Y-82303542D01*
X132614829Y-82303542D01*
X132609564Y-81552216D01*
X132628063Y-81493895D01*
X132677310Y-81457585D01*
X132738494Y-81457156D01*
X132781954Y-81488032D01*
X132782805Y-81487182D01*
X132787815Y-81492192D01*
X132902909Y-81578352D01*
X132902911Y-81578353D01*
X133037618Y-81628596D01*
X133037629Y-81628598D01*
X133097176Y-81635000D01*
X133744999Y-81635000D01*
X133745000Y-81634999D01*
X133745000Y-80718012D01*
X133802007Y-80750925D01*
X133929174Y-80785000D01*
X134060826Y-80785000D01*
X134187993Y-80750925D01*
X134245000Y-80718012D01*
X134245000Y-81634999D01*
X134245001Y-81635000D01*
X134892824Y-81635000D01*
X134952370Y-81628598D01*
X134952381Y-81628596D01*
X135087088Y-81578353D01*
X135087090Y-81578352D01*
X135202184Y-81492192D01*
X135202192Y-81492184D01*
X135288352Y-81377090D01*
X135288353Y-81377088D01*
X135338596Y-81242381D01*
X135338598Y-81242370D01*
X135345000Y-81182824D01*
X135345000Y-81079274D01*
X135363907Y-81021083D01*
X135413407Y-80985119D01*
X135474593Y-80985119D01*
X135524091Y-81021081D01*
X135581172Y-81099646D01*
X135720354Y-81238828D01*
X135879595Y-81354524D01*
X136054975Y-81443884D01*
X136242174Y-81504709D01*
X136242175Y-81504709D01*
X136242178Y-81504710D01*
X136436580Y-81535500D01*
X136436583Y-81535500D01*
X136633420Y-81535500D01*
X136827821Y-81504710D01*
X136827822Y-81504709D01*
X136827826Y-81504709D01*
X137015025Y-81443884D01*
X137190405Y-81354524D01*
X137349646Y-81238828D01*
X137488828Y-81099646D01*
X137604524Y-80940405D01*
X137693884Y-80765025D01*
X137710845Y-80712823D01*
X137746809Y-80663324D01*
X137805000Y-80644417D01*
X137863191Y-80663324D01*
X137899154Y-80712823D01*
X137911535Y-80750925D01*
X137916116Y-80765025D01*
X137985143Y-80900500D01*
X138005476Y-80940405D01*
X138121172Y-81099646D01*
X138260354Y-81238828D01*
X138419595Y-81354524D01*
X138594975Y-81443884D01*
X138782174Y-81504709D01*
X138782175Y-81504709D01*
X138782178Y-81504710D01*
X138976580Y-81535500D01*
X138976583Y-81535500D01*
X139173420Y-81535500D01*
X139367821Y-81504710D01*
X139367822Y-81504709D01*
X139367826Y-81504709D01*
X139555025Y-81443884D01*
X139730405Y-81354524D01*
X139889646Y-81238828D01*
X140028828Y-81099646D01*
X140144524Y-80940405D01*
X140233884Y-80765025D01*
X140250845Y-80712823D01*
X140286809Y-80663324D01*
X140345000Y-80644417D01*
X140403191Y-80663324D01*
G37*
G04 #@! TD.AperFunction*
G04 #@! TA.AperFunction,Conductor*
G36*
X141621958Y-77525017D02*
G01*
X141657963Y-77574487D01*
X141662833Y-77605157D01*
X141662833Y-78935500D01*
X141643926Y-78993691D01*
X141594426Y-79029655D01*
X141563833Y-79034500D01*
X141516580Y-79034500D01*
X141322178Y-79065289D01*
X141134974Y-79126116D01*
X140959597Y-79215474D01*
X140800355Y-79331171D01*
X140661171Y-79470355D01*
X140545474Y-79629597D01*
X140456114Y-79804978D01*
X140456112Y-79804981D01*
X140439154Y-79857175D01*
X140403190Y-79906675D01*
X140344999Y-79925582D01*
X140286809Y-79906674D01*
X140250846Y-79857175D01*
X140233887Y-79804981D01*
X140233885Y-79804978D01*
X140233884Y-79804977D01*
X140233884Y-79804975D01*
X140144524Y-79629595D01*
X140028828Y-79470354D01*
X139889646Y-79331172D01*
X139730405Y-79215476D01*
X139730404Y-79215475D01*
X139730402Y-79215474D01*
X139555025Y-79126116D01*
X139367821Y-79065289D01*
X139173420Y-79034500D01*
X139173417Y-79034500D01*
X138976583Y-79034500D01*
X138976580Y-79034500D01*
X138782178Y-79065289D01*
X138594974Y-79126116D01*
X138419597Y-79215474D01*
X138260355Y-79331171D01*
X138121171Y-79470355D01*
X138005474Y-79629597D01*
X137916114Y-79804978D01*
X137916112Y-79804981D01*
X137899154Y-79857175D01*
X137863190Y-79906675D01*
X137804999Y-79925582D01*
X137746809Y-79906674D01*
X137710846Y-79857175D01*
X137693887Y-79804981D01*
X137693885Y-79804978D01*
X137693884Y-79804977D01*
X137693884Y-79804975D01*
X137604524Y-79629595D01*
X137488828Y-79470354D01*
X137377709Y-79359235D01*
X137349934Y-79304721D01*
X137359505Y-79244289D01*
X137392710Y-79206921D01*
X137503416Y-79132951D01*
X137607951Y-79028416D01*
X137690084Y-78905495D01*
X137746658Y-78768913D01*
X137775500Y-78623918D01*
X137775500Y-78476082D01*
X137746658Y-78331087D01*
X137690084Y-78194505D01*
X137607951Y-78071584D01*
X137503416Y-77967049D01*
X137380495Y-77884916D01*
X137380493Y-77884915D01*
X137243914Y-77828342D01*
X137098918Y-77799500D01*
X136951082Y-77799500D01*
X136951081Y-77799500D01*
X136806085Y-77828342D01*
X136669506Y-77884915D01*
X136546585Y-77967048D01*
X136442048Y-78071585D01*
X136359915Y-78194506D01*
X136303342Y-78331085D01*
X136274500Y-78476081D01*
X136274500Y-78623918D01*
X136303342Y-78768914D01*
X136359915Y-78905495D01*
X136362208Y-78909784D01*
X136360949Y-78910456D01*
X136375888Y-78963440D01*
X136354707Y-79020842D01*
X136303830Y-79054831D01*
X136292452Y-79057327D01*
X136242178Y-79065289D01*
X136054974Y-79126116D01*
X135879597Y-79215474D01*
X135720355Y-79331171D01*
X135581167Y-79470359D01*
X135524092Y-79548916D01*
X135474592Y-79584880D01*
X135413407Y-79584879D01*
X135363907Y-79548915D01*
X135345000Y-79490725D01*
X135345000Y-79387175D01*
X135338598Y-79327629D01*
X135338596Y-79327618D01*
X135288353Y-79192911D01*
X135288352Y-79192909D01*
X135202192Y-79077815D01*
X135202184Y-79077807D01*
X135087090Y-78991647D01*
X135087088Y-78991646D01*
X134952381Y-78941403D01*
X134952370Y-78941401D01*
X134892824Y-78935000D01*
X134245001Y-78935000D01*
X134245000Y-78935001D01*
X134245000Y-79851988D01*
X134187993Y-79819075D01*
X134060826Y-79785000D01*
X133929174Y-79785000D01*
X133802007Y-79819075D01*
X133745000Y-79851988D01*
X133745000Y-78935001D01*
X133744999Y-78935000D01*
X133097176Y-78935000D01*
X133037629Y-78941401D01*
X133037618Y-78941403D01*
X132902911Y-78991646D01*
X132902909Y-78991647D01*
X132787815Y-79077807D01*
X132787808Y-79077814D01*
X132770227Y-79101299D01*
X132720217Y-79136551D01*
X132659038Y-79135675D01*
X132610058Y-79099006D01*
X132591977Y-79042665D01*
X132581960Y-77613114D01*
X132600460Y-77554793D01*
X132649706Y-77518483D01*
X132680873Y-77513421D01*
X141563752Y-77506157D01*
X141621958Y-77525017D01*
G37*
G04 #@! TD.AperFunction*
G04 #@! TD*
G04 #@! TA.AperFunction,Conductor*
G04 #@! TO.N,+PWR_5V*
G36*
X186607533Y-75009379D02*
G01*
X186665645Y-75028527D01*
X186701404Y-75078175D01*
X186706121Y-75107665D01*
X186748239Y-80958834D01*
X186729751Y-81017160D01*
X186685027Y-81050148D01*
X186685580Y-81051481D01*
X186544504Y-81109916D01*
X186421585Y-81192048D01*
X186317048Y-81296585D01*
X186234915Y-81419506D01*
X186178342Y-81556085D01*
X186149500Y-81701081D01*
X186149500Y-81848918D01*
X186178342Y-81993914D01*
X186225256Y-82107174D01*
X186234916Y-82130495D01*
X186317049Y-82253416D01*
X186421584Y-82357951D01*
X186544505Y-82440084D01*
X186681087Y-82496658D01*
X186681090Y-82496658D01*
X186685745Y-82498071D01*
X186685362Y-82499330D01*
X186733702Y-82526401D01*
X186759319Y-82581966D01*
X186760002Y-82592890D01*
X187049283Y-122779719D01*
X187030795Y-122838045D01*
X186981556Y-122874364D01*
X186950463Y-122879432D01*
X180692598Y-122890639D01*
X180634374Y-122871836D01*
X180598321Y-122822400D01*
X180594640Y-122776153D01*
X180600500Y-122739157D01*
X180600500Y-122510843D01*
X180600500Y-122510839D01*
X180564785Y-122285344D01*
X180564784Y-122285340D01*
X180494231Y-122068201D01*
X180390579Y-121864772D01*
X180390575Y-121864766D01*
X180256383Y-121680068D01*
X180256381Y-121680066D01*
X180256379Y-121680063D01*
X180094937Y-121518621D01*
X180094933Y-121518618D01*
X180094931Y-121518616D01*
X179910233Y-121384424D01*
X179910227Y-121384420D01*
X179706799Y-121280769D01*
X179489655Y-121210214D01*
X179264160Y-121174500D01*
X179264157Y-121174500D01*
X179035843Y-121174500D01*
X179035840Y-121174500D01*
X178810344Y-121210214D01*
X178593200Y-121280769D01*
X178389772Y-121384420D01*
X178389766Y-121384424D01*
X178205064Y-121518619D01*
X178156745Y-121566938D01*
X178102228Y-121594715D01*
X178041796Y-121585143D01*
X178001529Y-121547329D01*
X177928083Y-121423139D01*
X177928082Y-121423138D01*
X177928081Y-121423136D01*
X177811864Y-121306919D01*
X177670397Y-121223256D01*
X177670396Y-121223255D01*
X177670395Y-121223255D01*
X177512572Y-121177403D01*
X177512569Y-121177402D01*
X177512568Y-121177401D01*
X177512565Y-121177401D01*
X177489140Y-121175558D01*
X177475694Y-121174500D01*
X175744306Y-121174500D01*
X175731773Y-121175486D01*
X175707434Y-121177401D01*
X175707427Y-121177403D01*
X175549604Y-121223255D01*
X175408137Y-121306918D01*
X175291918Y-121423137D01*
X175208255Y-121564604D01*
X175162403Y-121722427D01*
X175162401Y-121722434D01*
X175159500Y-121759311D01*
X175159500Y-122801724D01*
X175140593Y-122859915D01*
X175091093Y-122895879D01*
X175060677Y-122900724D01*
X173655602Y-122903241D01*
X173597378Y-122884438D01*
X173561325Y-122835002D01*
X173557644Y-122788756D01*
X173565500Y-122739157D01*
X173565500Y-122510843D01*
X173565500Y-122510839D01*
X173529785Y-122285344D01*
X173529784Y-122285340D01*
X173459231Y-122068201D01*
X173355579Y-121864772D01*
X173355575Y-121864766D01*
X173221383Y-121680068D01*
X173221381Y-121680066D01*
X173221379Y-121680063D01*
X173059937Y-121518621D01*
X173059933Y-121518618D01*
X173059931Y-121518616D01*
X172875233Y-121384424D01*
X172875227Y-121384420D01*
X172671799Y-121280769D01*
X172454655Y-121210214D01*
X172229160Y-121174500D01*
X172229157Y-121174500D01*
X172000843Y-121174500D01*
X172000840Y-121174500D01*
X171775344Y-121210214D01*
X171558200Y-121280769D01*
X171354772Y-121384420D01*
X171354766Y-121384424D01*
X171170064Y-121518619D01*
X171121745Y-121566938D01*
X171067228Y-121594715D01*
X171006796Y-121585143D01*
X170966529Y-121547329D01*
X170893083Y-121423139D01*
X170893082Y-121423138D01*
X170893081Y-121423136D01*
X170776864Y-121306919D01*
X170635397Y-121223256D01*
X170635396Y-121223255D01*
X170635395Y-121223255D01*
X170477572Y-121177403D01*
X170477569Y-121177402D01*
X170477568Y-121177401D01*
X170477565Y-121177401D01*
X170454140Y-121175558D01*
X170440694Y-121174500D01*
X168709306Y-121174500D01*
X168696773Y-121175486D01*
X168672434Y-121177401D01*
X168672427Y-121177403D01*
X168514604Y-121223255D01*
X168373137Y-121306918D01*
X168256918Y-121423137D01*
X168173255Y-121564604D01*
X168127403Y-121722427D01*
X168127401Y-121722434D01*
X168124500Y-121759311D01*
X168124500Y-122814323D01*
X168105593Y-122872514D01*
X168056093Y-122908478D01*
X168025677Y-122913323D01*
X105766304Y-123024822D01*
X105708080Y-123006019D01*
X105672027Y-122956583D01*
X105667127Y-122925822D01*
X105667127Y-116531081D01*
X113124500Y-116531081D01*
X113124500Y-116678918D01*
X113153342Y-116823914D01*
X113156068Y-116830495D01*
X113209916Y-116960495D01*
X113292049Y-117083416D01*
X113396584Y-117187951D01*
X113519505Y-117270084D01*
X113656087Y-117326658D01*
X113801082Y-117355500D01*
X113801083Y-117355500D01*
X113948917Y-117355500D01*
X113948918Y-117355500D01*
X114093913Y-117326658D01*
X114230495Y-117270084D01*
X114353416Y-117187951D01*
X114457951Y-117083416D01*
X114540084Y-116960495D01*
X114596658Y-116823913D01*
X114625500Y-116678918D01*
X114625500Y-116531082D01*
X114596658Y-116386087D01*
X114548123Y-116268914D01*
X114542810Y-116256087D01*
X114540084Y-116249505D01*
X114531950Y-116237331D01*
X124880750Y-116237331D01*
X124880750Y-116385168D01*
X124909592Y-116530164D01*
X124946353Y-116618913D01*
X124966166Y-116666745D01*
X125048299Y-116789666D01*
X125152834Y-116894201D01*
X125275755Y-116976334D01*
X125412337Y-117032908D01*
X125557332Y-117061750D01*
X125557333Y-117061750D01*
X125705167Y-117061750D01*
X125705168Y-117061750D01*
X125850163Y-117032908D01*
X125986745Y-116976334D01*
X126109666Y-116894201D01*
X126214201Y-116789666D01*
X126296334Y-116666745D01*
X126352908Y-116530163D01*
X126381750Y-116385168D01*
X126381750Y-116237332D01*
X126352908Y-116092337D01*
X126333096Y-116044506D01*
X126318432Y-116009103D01*
X126304753Y-115976081D01*
X136049500Y-115976081D01*
X136049500Y-116123918D01*
X136078342Y-116268914D01*
X136133088Y-116401082D01*
X136134916Y-116405495D01*
X136217049Y-116528416D01*
X136321584Y-116632951D01*
X136444505Y-116715084D01*
X136581087Y-116771658D01*
X136726082Y-116800500D01*
X136726083Y-116800500D01*
X136873917Y-116800500D01*
X136873918Y-116800500D01*
X137018913Y-116771658D01*
X137155495Y-116715084D01*
X137278416Y-116632951D01*
X137382951Y-116528416D01*
X137465084Y-116405495D01*
X137497978Y-116326081D01*
X150374500Y-116326081D01*
X150374500Y-116473918D01*
X150403342Y-116618914D01*
X150428196Y-116678916D01*
X150459916Y-116755495D01*
X150542049Y-116878416D01*
X150646584Y-116982951D01*
X150769505Y-117065084D01*
X150906087Y-117121658D01*
X151051082Y-117150500D01*
X151051083Y-117150500D01*
X151198917Y-117150500D01*
X151198918Y-117150500D01*
X151343913Y-117121658D01*
X151480495Y-117065084D01*
X151603416Y-116982951D01*
X151707951Y-116878416D01*
X151790084Y-116755495D01*
X151846658Y-116618913D01*
X151875500Y-116473918D01*
X151875500Y-116401081D01*
X162124500Y-116401081D01*
X162124500Y-116548918D01*
X162153342Y-116693914D01*
X162207190Y-116823914D01*
X162209916Y-116830495D01*
X162292049Y-116953416D01*
X162396584Y-117057951D01*
X162519505Y-117140084D01*
X162656087Y-117196658D01*
X162801082Y-117225500D01*
X162801083Y-117225500D01*
X162948917Y-117225500D01*
X162948918Y-117225500D01*
X163093913Y-117196658D01*
X163230495Y-117140084D01*
X163353416Y-117057951D01*
X163457951Y-116953416D01*
X163540084Y-116830495D01*
X163596658Y-116693913D01*
X163625500Y-116548918D01*
X163625500Y-116401082D01*
X163596658Y-116256087D01*
X163540084Y-116119505D01*
X163457951Y-115996584D01*
X163353416Y-115892049D01*
X163230495Y-115809916D01*
X163230493Y-115809915D01*
X163093914Y-115753342D01*
X162948918Y-115724500D01*
X162801082Y-115724500D01*
X162801081Y-115724500D01*
X162656085Y-115753342D01*
X162519506Y-115809915D01*
X162396585Y-115892048D01*
X162292048Y-115996585D01*
X162209915Y-116119506D01*
X162153342Y-116256085D01*
X162124500Y-116401081D01*
X151875500Y-116401081D01*
X151875500Y-116326082D01*
X151846658Y-116181087D01*
X151790084Y-116044505D01*
X151707951Y-115921584D01*
X151603416Y-115817049D01*
X151480495Y-115734916D01*
X151480493Y-115734915D01*
X151343914Y-115678342D01*
X151198918Y-115649500D01*
X151051082Y-115649500D01*
X151051081Y-115649500D01*
X150906085Y-115678342D01*
X150769506Y-115734915D01*
X150646585Y-115817048D01*
X150542048Y-115921585D01*
X150459915Y-116044506D01*
X150403342Y-116181085D01*
X150374500Y-116326081D01*
X137497978Y-116326081D01*
X137521658Y-116268913D01*
X137550500Y-116123918D01*
X137550500Y-115976082D01*
X137521658Y-115831087D01*
X137465084Y-115694505D01*
X137382951Y-115571584D01*
X137278416Y-115467049D01*
X137155495Y-115384916D01*
X137155493Y-115384915D01*
X137018914Y-115328342D01*
X136873918Y-115299500D01*
X136726082Y-115299500D01*
X136726081Y-115299500D01*
X136581085Y-115328342D01*
X136444506Y-115384915D01*
X136321585Y-115467048D01*
X136217048Y-115571585D01*
X136134915Y-115694506D01*
X136078342Y-115831085D01*
X136049500Y-115976081D01*
X126304753Y-115976081D01*
X126296334Y-115955756D01*
X126296334Y-115955755D01*
X126214201Y-115832834D01*
X126109666Y-115728299D01*
X125986745Y-115646166D01*
X125986743Y-115646165D01*
X125850164Y-115589592D01*
X125705168Y-115560750D01*
X125557332Y-115560750D01*
X125557331Y-115560750D01*
X125412335Y-115589592D01*
X125275756Y-115646165D01*
X125152835Y-115728298D01*
X125048298Y-115832835D01*
X124966165Y-115955756D01*
X124909592Y-116092335D01*
X124880750Y-116237331D01*
X114531950Y-116237331D01*
X114457951Y-116126584D01*
X114353416Y-116022049D01*
X114230495Y-115939916D01*
X114230493Y-115939915D01*
X114093914Y-115883342D01*
X113948918Y-115854500D01*
X113801082Y-115854500D01*
X113801081Y-115854500D01*
X113656085Y-115883342D01*
X113519506Y-115939915D01*
X113396585Y-116022048D01*
X113292048Y-116126585D01*
X113209915Y-116249506D01*
X113153342Y-116386085D01*
X113124500Y-116531081D01*
X105667127Y-116531081D01*
X105667127Y-114724602D01*
X105686034Y-114666411D01*
X105735534Y-114630447D01*
X105766726Y-114625604D01*
X127834733Y-114759441D01*
X130400089Y-114775000D01*
X130400089Y-114774999D01*
X130400090Y-114775000D01*
X130405484Y-114302125D01*
X168156648Y-114302125D01*
X168156648Y-114449962D01*
X168185490Y-114594958D01*
X168242063Y-114731537D01*
X168242064Y-114731539D01*
X168324197Y-114854460D01*
X168428732Y-114958995D01*
X168551653Y-115041128D01*
X168688235Y-115097702D01*
X168833230Y-115126544D01*
X168833231Y-115126544D01*
X168981065Y-115126544D01*
X168981066Y-115126544D01*
X169126061Y-115097702D01*
X169262643Y-115041128D01*
X169339646Y-114989675D01*
X169398534Y-114973067D01*
X169449648Y-114989675D01*
X169526653Y-115041128D01*
X169663235Y-115097702D01*
X169808230Y-115126544D01*
X169808231Y-115126544D01*
X169956065Y-115126544D01*
X169956066Y-115126544D01*
X170101061Y-115097702D01*
X170237643Y-115041128D01*
X170360564Y-114958995D01*
X170465099Y-114854460D01*
X170547232Y-114731539D01*
X170603806Y-114594957D01*
X170632648Y-114449962D01*
X170632648Y-114377125D01*
X172056648Y-114377125D01*
X172056648Y-114524962D01*
X172085490Y-114669958D01*
X172110997Y-114731537D01*
X172142064Y-114806539D01*
X172224197Y-114929460D01*
X172328732Y-115033995D01*
X172451653Y-115116128D01*
X172588235Y-115172702D01*
X172733230Y-115201544D01*
X172733231Y-115201544D01*
X172881065Y-115201544D01*
X172881066Y-115201544D01*
X173026061Y-115172702D01*
X173162643Y-115116128D01*
X173239646Y-115064675D01*
X173298534Y-115048067D01*
X173349648Y-115064675D01*
X173426653Y-115116128D01*
X173563235Y-115172702D01*
X173708230Y-115201544D01*
X173708231Y-115201544D01*
X173856065Y-115201544D01*
X173856066Y-115201544D01*
X174001061Y-115172702D01*
X174137643Y-115116128D01*
X174260564Y-115033995D01*
X174365099Y-114929460D01*
X174447232Y-114806539D01*
X174503806Y-114669957D01*
X174532648Y-114524962D01*
X174532648Y-114377126D01*
X174503806Y-114232131D01*
X174447232Y-114095549D01*
X174365099Y-113972628D01*
X174260564Y-113868093D01*
X174137643Y-113785960D01*
X174137641Y-113785959D01*
X174001062Y-113729386D01*
X173856066Y-113700544D01*
X173708230Y-113700544D01*
X173708229Y-113700544D01*
X173563233Y-113729386D01*
X173426655Y-113785958D01*
X173349649Y-113837412D01*
X173290761Y-113854020D01*
X173239647Y-113837412D01*
X173162640Y-113785958D01*
X173026062Y-113729386D01*
X172881066Y-113700544D01*
X172733230Y-113700544D01*
X172733229Y-113700544D01*
X172588233Y-113729386D01*
X172451654Y-113785959D01*
X172328733Y-113868092D01*
X172224196Y-113972629D01*
X172142063Y-114095550D01*
X172085490Y-114232129D01*
X172056648Y-114377125D01*
X170632648Y-114377125D01*
X170632648Y-114302126D01*
X170603806Y-114157131D01*
X170547232Y-114020549D01*
X170465099Y-113897628D01*
X170360564Y-113793093D01*
X170237643Y-113710960D01*
X170237641Y-113710959D01*
X170101062Y-113654386D01*
X169956066Y-113625544D01*
X169808230Y-113625544D01*
X169808229Y-113625544D01*
X169663233Y-113654386D01*
X169526655Y-113710958D01*
X169449649Y-113762412D01*
X169390761Y-113779020D01*
X169339647Y-113762412D01*
X169262640Y-113710958D01*
X169126062Y-113654386D01*
X168981066Y-113625544D01*
X168833230Y-113625544D01*
X168833229Y-113625544D01*
X168688233Y-113654386D01*
X168551654Y-113710959D01*
X168428733Y-113793092D01*
X168324196Y-113897629D01*
X168242063Y-114020550D01*
X168185490Y-114157129D01*
X168156648Y-114302125D01*
X130405484Y-114302125D01*
X130407837Y-114095884D01*
X130427406Y-114037918D01*
X130436645Y-114027197D01*
X130487407Y-113976186D01*
X130544728Y-113863005D01*
X130563338Y-113805247D01*
X130563485Y-113804799D01*
X130563493Y-113804768D01*
X130563494Y-113804765D01*
X130583033Y-113679410D01*
X130581820Y-113185235D01*
X130600585Y-113127001D01*
X130649996Y-113090916D01*
X130711182Y-113090766D01*
X130739010Y-113104902D01*
X130807442Y-113154621D01*
X130807446Y-113154623D01*
X130996784Y-113251095D01*
X131198878Y-113316759D01*
X131408750Y-113350000D01*
X131621250Y-113350000D01*
X131831121Y-113316759D01*
X132033215Y-113251095D01*
X132222556Y-113154620D01*
X132276716Y-113115270D01*
X131644408Y-112482962D01*
X131707993Y-112465925D01*
X131822007Y-112400099D01*
X131915099Y-112307007D01*
X131980925Y-112192993D01*
X131997962Y-112129408D01*
X132630270Y-112761716D01*
X132669620Y-112707556D01*
X132766095Y-112518215D01*
X132831759Y-112316121D01*
X132865000Y-112106250D01*
X132865000Y-111893749D01*
X132831759Y-111683878D01*
X132766095Y-111481784D01*
X132669623Y-111292446D01*
X132669619Y-111292440D01*
X132630270Y-111238282D01*
X132630269Y-111238282D01*
X131997962Y-111870589D01*
X131980925Y-111807007D01*
X131915099Y-111692993D01*
X131822007Y-111599901D01*
X131707993Y-111534075D01*
X131644407Y-111517037D01*
X132276716Y-110884729D01*
X132276716Y-110884728D01*
X132222559Y-110845380D01*
X132222553Y-110845376D01*
X132033215Y-110748904D01*
X131831121Y-110683240D01*
X131621250Y-110650000D01*
X131408750Y-110650000D01*
X131198878Y-110683240D01*
X130996784Y-110748904D01*
X130807446Y-110845376D01*
X130807442Y-110845379D01*
X130733209Y-110899312D01*
X130675018Y-110918219D01*
X130616828Y-110899311D01*
X130580864Y-110849811D01*
X130576020Y-110819471D01*
X130571827Y-109108598D01*
X130590592Y-109050363D01*
X130640004Y-109014278D01*
X130671297Y-109009358D01*
X135949313Y-109034639D01*
X136007412Y-109053825D01*
X136043138Y-109103497D01*
X136047818Y-109131657D01*
X136107468Y-112112648D01*
X136107470Y-112112673D01*
X136112817Y-112170684D01*
X136112821Y-112170718D01*
X136117447Y-112198698D01*
X136117449Y-112198709D01*
X136117450Y-112198711D01*
X136131064Y-112255376D01*
X136131064Y-112255377D01*
X136131065Y-112255378D01*
X136187926Y-112368781D01*
X136187932Y-112368791D01*
X136223565Y-112418509D01*
X136223580Y-112418527D01*
X136223778Y-112418725D01*
X136312701Y-112508805D01*
X136425367Y-112567131D01*
X136483435Y-112586414D01*
X136483436Y-112586414D01*
X136608611Y-112607070D01*
X145721044Y-112665918D01*
X145789182Y-112660598D01*
X145800121Y-112658807D01*
X145821977Y-112655229D01*
X145821982Y-112655227D01*
X145821999Y-112655225D01*
X145888281Y-112638535D01*
X146000333Y-112579037D01*
X146033840Y-112553817D01*
X148580981Y-112553817D01*
X148580981Y-112701654D01*
X148609823Y-112846650D01*
X148658780Y-112964843D01*
X148666397Y-112983231D01*
X148748530Y-113106152D01*
X148853065Y-113210687D01*
X148975986Y-113292820D01*
X149112568Y-113349394D01*
X149257563Y-113378236D01*
X149257564Y-113378236D01*
X149405398Y-113378236D01*
X149405399Y-113378236D01*
X149550394Y-113349394D01*
X149686976Y-113292820D01*
X149809897Y-113210687D01*
X149914432Y-113106152D01*
X149983541Y-113002721D01*
X150031590Y-112964843D01*
X150092729Y-112962441D01*
X150143602Y-112996434D01*
X150148160Y-113002707D01*
X150217280Y-113106152D01*
X150321815Y-113210687D01*
X150444736Y-113292820D01*
X150581318Y-113349394D01*
X150726313Y-113378236D01*
X150726314Y-113378236D01*
X150874148Y-113378236D01*
X150874149Y-113378236D01*
X151019144Y-113349394D01*
X151155726Y-113292820D01*
X151278647Y-113210687D01*
X151383182Y-113106152D01*
X151452291Y-113002721D01*
X151500340Y-112964843D01*
X151561479Y-112962441D01*
X151612352Y-112996434D01*
X151616910Y-113002707D01*
X151686030Y-113106152D01*
X151790565Y-113210687D01*
X151913486Y-113292820D01*
X152050068Y-113349394D01*
X152195063Y-113378236D01*
X152195064Y-113378236D01*
X152342898Y-113378236D01*
X152342899Y-113378236D01*
X152487894Y-113349394D01*
X152624476Y-113292820D01*
X152747397Y-113210687D01*
X152851932Y-113106152D01*
X152921041Y-113002721D01*
X152969090Y-112964843D01*
X153030229Y-112962441D01*
X153081102Y-112996434D01*
X153085660Y-113002707D01*
X153154780Y-113106152D01*
X153259315Y-113210687D01*
X153382236Y-113292820D01*
X153518818Y-113349394D01*
X153663813Y-113378236D01*
X153663814Y-113378236D01*
X153811648Y-113378236D01*
X153811649Y-113378236D01*
X153956644Y-113349394D01*
X154093226Y-113292820D01*
X154216147Y-113210687D01*
X154320682Y-113106152D01*
X154339792Y-113077551D01*
X154387840Y-113039673D01*
X154448978Y-113037271D01*
X154499852Y-113071263D01*
X154504407Y-113077532D01*
X154523530Y-113106152D01*
X154628065Y-113210687D01*
X154750986Y-113292820D01*
X154887568Y-113349394D01*
X155032563Y-113378236D01*
X155032564Y-113378236D01*
X155180398Y-113378236D01*
X155180399Y-113378236D01*
X155325394Y-113349394D01*
X155461976Y-113292820D01*
X155584897Y-113210687D01*
X155689432Y-113106152D01*
X155771565Y-112983231D01*
X155828139Y-112846649D01*
X155856981Y-112701654D01*
X155856981Y-112553818D01*
X155828139Y-112408823D01*
X155771565Y-112272241D01*
X155689432Y-112149320D01*
X155584897Y-112044785D01*
X155584893Y-112044782D01*
X155582351Y-112042240D01*
X155575232Y-112028268D01*
X155564145Y-112017181D01*
X155561692Y-112001693D01*
X155554574Y-111987723D01*
X155557026Y-111972236D01*
X155554574Y-111956749D01*
X155557462Y-111951081D01*
X176099500Y-111951081D01*
X176099500Y-112098918D01*
X176128342Y-112243914D01*
X176166916Y-112337040D01*
X176184916Y-112380495D01*
X176267049Y-112503416D01*
X176371584Y-112607951D01*
X176494505Y-112690084D01*
X176631087Y-112746658D01*
X176776082Y-112775500D01*
X176776083Y-112775500D01*
X176923917Y-112775500D01*
X176923918Y-112775500D01*
X177068913Y-112746658D01*
X177205495Y-112690084D01*
X177328416Y-112607951D01*
X177432951Y-112503416D01*
X177515084Y-112380495D01*
X177571658Y-112243913D01*
X177600500Y-112098918D01*
X177600500Y-112026081D01*
X178224500Y-112026081D01*
X178224500Y-112173918D01*
X178253342Y-112318914D01*
X178308067Y-112451031D01*
X178309916Y-112455495D01*
X178392049Y-112578416D01*
X178496584Y-112682951D01*
X178619505Y-112765084D01*
X178756087Y-112821658D01*
X178901082Y-112850500D01*
X178901083Y-112850500D01*
X179048917Y-112850500D01*
X179048918Y-112850500D01*
X179193913Y-112821658D01*
X179330495Y-112765084D01*
X179453416Y-112682951D01*
X179557951Y-112578416D01*
X179640084Y-112455495D01*
X179696658Y-112318913D01*
X179725500Y-112173918D01*
X179725500Y-112026082D01*
X179696658Y-111881087D01*
X179640084Y-111744505D01*
X179557951Y-111621584D01*
X179453416Y-111517049D01*
X179330495Y-111434916D01*
X179330493Y-111434915D01*
X179193914Y-111378342D01*
X179048918Y-111349500D01*
X178901082Y-111349500D01*
X178901081Y-111349500D01*
X178756085Y-111378342D01*
X178619506Y-111434915D01*
X178496585Y-111517048D01*
X178392048Y-111621585D01*
X178309915Y-111744506D01*
X178253342Y-111881085D01*
X178224500Y-112026081D01*
X177600500Y-112026081D01*
X177600500Y-111951082D01*
X177571658Y-111806087D01*
X177515084Y-111669505D01*
X177432951Y-111546584D01*
X177328416Y-111442049D01*
X177205495Y-111359916D01*
X177205493Y-111359915D01*
X177068914Y-111303342D01*
X176923918Y-111274500D01*
X176776082Y-111274500D01*
X176776081Y-111274500D01*
X176631085Y-111303342D01*
X176494506Y-111359915D01*
X176371585Y-111442048D01*
X176267048Y-111546585D01*
X176184915Y-111669506D01*
X176128342Y-111806085D01*
X176099500Y-111951081D01*
X155557462Y-111951081D01*
X155561692Y-111942778D01*
X155564145Y-111927291D01*
X155582351Y-111902232D01*
X155584893Y-111899689D01*
X155584897Y-111899687D01*
X155689432Y-111795152D01*
X155771565Y-111672231D01*
X155828139Y-111535649D01*
X155856981Y-111390654D01*
X155856981Y-111242818D01*
X155828139Y-111097823D01*
X155771565Y-110961241D01*
X155689432Y-110838320D01*
X155584897Y-110733785D01*
X155584893Y-110733782D01*
X155582351Y-110731240D01*
X155554574Y-110676723D01*
X155564145Y-110616291D01*
X155582351Y-110591232D01*
X155584893Y-110588689D01*
X155584897Y-110588687D01*
X155689432Y-110484152D01*
X155771565Y-110361231D01*
X155828139Y-110224649D01*
X155856981Y-110079654D01*
X155856981Y-109931818D01*
X155828139Y-109786823D01*
X155771565Y-109650241D01*
X155689432Y-109527320D01*
X155584897Y-109422785D01*
X155584893Y-109422782D01*
X155582351Y-109420240D01*
X155554574Y-109365723D01*
X155564145Y-109305291D01*
X155582351Y-109280232D01*
X155584893Y-109277689D01*
X155584897Y-109277687D01*
X155689432Y-109173152D01*
X155771565Y-109050231D01*
X155828139Y-108913649D01*
X155856981Y-108768654D01*
X155856981Y-108620818D01*
X155828139Y-108475823D01*
X155771565Y-108339241D01*
X155689432Y-108216320D01*
X155584897Y-108111785D01*
X155584893Y-108111782D01*
X155582351Y-108109240D01*
X155554574Y-108054723D01*
X155564145Y-107994291D01*
X155582351Y-107969232D01*
X155584893Y-107966689D01*
X155584897Y-107966687D01*
X155689432Y-107862152D01*
X155771565Y-107739231D01*
X155828139Y-107602649D01*
X155856981Y-107457654D01*
X155856981Y-107309818D01*
X155828139Y-107164823D01*
X155771565Y-107028241D01*
X155689432Y-106905320D01*
X155584897Y-106800785D01*
X155516007Y-106754754D01*
X155478129Y-106706705D01*
X155475727Y-106645567D01*
X155509720Y-106594693D01*
X155515987Y-106590139D01*
X155634897Y-106510687D01*
X155739432Y-106406152D01*
X155821565Y-106283231D01*
X155878139Y-106146649D01*
X155906981Y-106001654D01*
X155906981Y-105853818D01*
X155878139Y-105708823D01*
X155821565Y-105572241D01*
X155739432Y-105449320D01*
X155634897Y-105344785D01*
X155511976Y-105262652D01*
X155511974Y-105262651D01*
X155375395Y-105206078D01*
X155230399Y-105177236D01*
X155082563Y-105177236D01*
X155082562Y-105177236D01*
X154937566Y-105206078D01*
X154800987Y-105262651D01*
X154678066Y-105344784D01*
X154573529Y-105449321D01*
X154491396Y-105572242D01*
X154434823Y-105708821D01*
X154405981Y-105853817D01*
X154405981Y-106001654D01*
X154434823Y-106146650D01*
X154466463Y-106223036D01*
X154491397Y-106283231D01*
X154573530Y-106406152D01*
X154678065Y-106510687D01*
X154746953Y-106556716D01*
X154784832Y-106604765D01*
X154787234Y-106665904D01*
X154753241Y-106716777D01*
X154746953Y-106721346D01*
X154628066Y-106800784D01*
X154523529Y-106905321D01*
X154441396Y-107028242D01*
X154384823Y-107164821D01*
X154355981Y-107309817D01*
X154355981Y-107457654D01*
X154384823Y-107602650D01*
X154441396Y-107739229D01*
X154523531Y-107862153D01*
X154630610Y-107969233D01*
X154658387Y-108023749D01*
X154648815Y-108084181D01*
X154630610Y-108109239D01*
X154523531Y-108216318D01*
X154441396Y-108339242D01*
X154384823Y-108475821D01*
X154355981Y-108620817D01*
X154355981Y-108768654D01*
X154384823Y-108913650D01*
X154435130Y-109035102D01*
X154441397Y-109050231D01*
X154476988Y-109103497D01*
X154523531Y-109173153D01*
X154630610Y-109280233D01*
X154658387Y-109334749D01*
X154648815Y-109395181D01*
X154630610Y-109420239D01*
X154523531Y-109527318D01*
X154441396Y-109650242D01*
X154384823Y-109786821D01*
X154384823Y-109786823D01*
X154355981Y-109931818D01*
X154355981Y-110079654D01*
X154384823Y-110224649D01*
X154441397Y-110361231D01*
X154512486Y-110467623D01*
X154523531Y-110484153D01*
X154630610Y-110591233D01*
X154658387Y-110645749D01*
X154648815Y-110706181D01*
X154630610Y-110731239D01*
X154523531Y-110838318D01*
X154441398Y-110961239D01*
X154427789Y-110994093D01*
X154388051Y-111040618D01*
X154328556Y-111054901D01*
X154272029Y-111031485D01*
X154266334Y-111026222D01*
X154234897Y-110994785D01*
X154111976Y-110912652D01*
X154111974Y-110912651D01*
X153975395Y-110856078D01*
X153830399Y-110827236D01*
X153682563Y-110827236D01*
X153682562Y-110827236D01*
X153537566Y-110856078D01*
X153400987Y-110912651D01*
X153278066Y-110994784D01*
X153173529Y-111099321D01*
X153091396Y-111222242D01*
X153034823Y-111358821D01*
X153005981Y-111503817D01*
X153005981Y-111651654D01*
X153034823Y-111796650D01*
X153091396Y-111933230D01*
X153103325Y-111951083D01*
X153153437Y-112026081D01*
X153158638Y-112033864D01*
X153165955Y-112059809D01*
X153175252Y-112085114D01*
X153174077Y-112088604D01*
X153175247Y-112092752D01*
X153158563Y-112143980D01*
X153155399Y-112148700D01*
X153154780Y-112149320D01*
X153085688Y-112252723D01*
X153085596Y-112252861D01*
X153061420Y-112271866D01*
X153037621Y-112290628D01*
X153037551Y-112290630D01*
X153037495Y-112290675D01*
X153006944Y-112291833D01*
X152976483Y-112293030D01*
X152976423Y-112292990D01*
X152976353Y-112292993D01*
X152951111Y-112276076D01*
X152925609Y-112259037D01*
X152925537Y-112258938D01*
X152925526Y-112258931D01*
X152925519Y-112258914D01*
X152921041Y-112252749D01*
X152881113Y-112192993D01*
X152851932Y-112149320D01*
X152747397Y-112044785D01*
X152624476Y-111962652D01*
X152596546Y-111951083D01*
X152487895Y-111906078D01*
X152342899Y-111877236D01*
X152195063Y-111877236D01*
X152195062Y-111877236D01*
X152050066Y-111906078D01*
X151913487Y-111962651D01*
X151790566Y-112044784D01*
X151686029Y-112149321D01*
X151616921Y-112252749D01*
X151568871Y-112290628D01*
X151507733Y-112293030D01*
X151456859Y-112259037D01*
X151452291Y-112252749D01*
X151412363Y-112192993D01*
X151383182Y-112149320D01*
X151278647Y-112044785D01*
X151155726Y-111962652D01*
X151127796Y-111951083D01*
X151019145Y-111906078D01*
X150874149Y-111877236D01*
X150726313Y-111877236D01*
X150726312Y-111877236D01*
X150581316Y-111906078D01*
X150444737Y-111962651D01*
X150321816Y-112044784D01*
X150217279Y-112149321D01*
X150148171Y-112252749D01*
X150100121Y-112290628D01*
X150038983Y-112293030D01*
X149988109Y-112259037D01*
X149983541Y-112252749D01*
X149943613Y-112192993D01*
X149914432Y-112149320D01*
X149809897Y-112044785D01*
X149686976Y-111962652D01*
X149659046Y-111951083D01*
X149550395Y-111906078D01*
X149405399Y-111877236D01*
X149257563Y-111877236D01*
X149257562Y-111877236D01*
X149112566Y-111906078D01*
X148975987Y-111962651D01*
X148853066Y-112044784D01*
X148748529Y-112149321D01*
X148666396Y-112272242D01*
X148609823Y-112408821D01*
X148580981Y-112553817D01*
X146033840Y-112553817D01*
X146049219Y-112542242D01*
X146137401Y-112451031D01*
X146193081Y-112337034D01*
X146211003Y-112278532D01*
X146228730Y-112152909D01*
X146070548Y-102786204D01*
X146070447Y-102781710D01*
X146070385Y-102779494D01*
X146070231Y-102774909D01*
X146045479Y-102650479D01*
X146024301Y-102593076D01*
X145962309Y-102482385D01*
X145962307Y-102482383D01*
X145869148Y-102396269D01*
X145858664Y-102389264D01*
X145821260Y-102364272D01*
X145783382Y-102316226D01*
X145780978Y-102255087D01*
X145814970Y-102204213D01*
X145823122Y-102198429D01*
X145825003Y-102197231D01*
X145825008Y-102197229D01*
X145873894Y-102160434D01*
X145904727Y-102128542D01*
X154424500Y-102128542D01*
X154424500Y-102271457D01*
X154442566Y-102362276D01*
X154449327Y-102396269D01*
X154452381Y-102411619D01*
X154452381Y-102411621D01*
X154507068Y-102543648D01*
X154507074Y-102543659D01*
X154540093Y-102593074D01*
X154586468Y-102662479D01*
X154687521Y-102763532D01*
X154758362Y-102810866D01*
X154806340Y-102842925D01*
X154806351Y-102842931D01*
X154855121Y-102863132D01*
X154938380Y-102897619D01*
X155078545Y-102925500D01*
X155078546Y-102925500D01*
X155221454Y-102925500D01*
X155221455Y-102925500D01*
X155361620Y-102897619D01*
X155493653Y-102842929D01*
X155612479Y-102763532D01*
X155713532Y-102662479D01*
X155792929Y-102543653D01*
X155847619Y-102411620D01*
X155875500Y-102271455D01*
X155875500Y-102128545D01*
X155847619Y-101988380D01*
X155829389Y-101944369D01*
X155792931Y-101856351D01*
X155792925Y-101856340D01*
X155735966Y-101771096D01*
X155713532Y-101737521D01*
X155612479Y-101636468D01*
X155565143Y-101604839D01*
X155493659Y-101557074D01*
X155493648Y-101557068D01*
X155361620Y-101502381D01*
X155221457Y-101474500D01*
X155221455Y-101474500D01*
X155078545Y-101474500D01*
X155078542Y-101474500D01*
X154938380Y-101502381D01*
X154938378Y-101502381D01*
X154806351Y-101557068D01*
X154806340Y-101557074D01*
X154687521Y-101636468D01*
X154687517Y-101636471D01*
X154586471Y-101737517D01*
X154586468Y-101737521D01*
X154507074Y-101856340D01*
X154507068Y-101856351D01*
X154452381Y-101988378D01*
X154452381Y-101988380D01*
X154424500Y-102128542D01*
X145904727Y-102128542D01*
X145962076Y-102069223D01*
X146017756Y-101955226D01*
X146035678Y-101896724D01*
X146053405Y-101771101D01*
X146033281Y-100579497D01*
X146051203Y-100520997D01*
X146100089Y-100484202D01*
X146130867Y-100478838D01*
X156526692Y-100332539D01*
X156555641Y-100331095D01*
X156569736Y-100329886D01*
X156598519Y-100326377D01*
X156719178Y-100287171D01*
X156773694Y-100259393D01*
X156876332Y-100184820D01*
X156950902Y-100082181D01*
X156978679Y-100027664D01*
X157001080Y-99958718D01*
X157037043Y-99909220D01*
X157079722Y-99895353D01*
X157095233Y-99890313D01*
X157261712Y-99890313D01*
X157319903Y-99909220D01*
X157355867Y-99958720D01*
X157359148Y-99971977D01*
X157359221Y-99972191D01*
X157418400Y-100084402D01*
X157418403Y-100084408D01*
X157452627Y-100130145D01*
X157454456Y-100132810D01*
X157455060Y-100133397D01*
X157455061Y-100133399D01*
X157546025Y-100221836D01*
X157604029Y-100250369D01*
X157659856Y-100277832D01*
X157659859Y-100277833D01*
X157659865Y-100277836D01*
X157718316Y-100295922D01*
X157843886Y-100314002D01*
X158461744Y-100305307D01*
X158553467Y-100293468D01*
X158597019Y-100282688D01*
X158683683Y-100250370D01*
X158786322Y-100175799D01*
X158829589Y-100132532D01*
X158904160Y-100029892D01*
X158927284Y-99958719D01*
X158963247Y-99909220D01*
X159021438Y-99890312D01*
X160581521Y-99890312D01*
X160581522Y-99890311D01*
X160628411Y-99882885D01*
X160675299Y-99875460D01*
X160675299Y-99875459D01*
X160675304Y-99875459D01*
X160788342Y-99817863D01*
X160878050Y-99728155D01*
X160888334Y-99707972D01*
X160931598Y-99664707D01*
X160992030Y-99655136D01*
X161046544Y-99682911D01*
X161096584Y-99732951D01*
X161219505Y-99815084D01*
X161356087Y-99871658D01*
X161501082Y-99900500D01*
X161501083Y-99900500D01*
X161614741Y-99900500D01*
X161672932Y-99919407D01*
X161703297Y-99955242D01*
X161739678Y-100028039D01*
X161775255Y-100077818D01*
X161864258Y-100168221D01*
X161976845Y-100226699D01*
X162034886Y-100246060D01*
X162115005Y-100259392D01*
X162160033Y-100266885D01*
X162177575Y-100267021D01*
X164236657Y-100283099D01*
X164294696Y-100302460D01*
X164330273Y-100352239D01*
X164334881Y-100381590D01*
X164366663Y-106604765D01*
X164373463Y-107936279D01*
X164378226Y-107996211D01*
X164382702Y-108025140D01*
X164396272Y-108083701D01*
X164452477Y-108197440D01*
X164487831Y-108247378D01*
X164487835Y-108247383D01*
X164576429Y-108338177D01*
X164576433Y-108338181D01*
X164688758Y-108397161D01*
X164688762Y-108397163D01*
X164739617Y-108414379D01*
X164744300Y-108416369D01*
X164746712Y-108416781D01*
X164746713Y-108416782D01*
X164871767Y-108438164D01*
X171283399Y-108516837D01*
X171349039Y-108512304D01*
X171380696Y-108507514D01*
X171444719Y-108492432D01*
X171557852Y-108435016D01*
X171607409Y-108399132D01*
X171697261Y-108309568D01*
X171755040Y-108196620D01*
X171774041Y-108138459D01*
X171774041Y-108138456D01*
X171794088Y-108013182D01*
X171795446Y-107164821D01*
X171796953Y-106223036D01*
X173788877Y-106223036D01*
X173788877Y-106370873D01*
X173817719Y-106515869D01*
X173849593Y-106592820D01*
X173874293Y-106652450D01*
X173956426Y-106775371D01*
X174060961Y-106879906D01*
X174183882Y-106962039D01*
X174320464Y-107018613D01*
X174465459Y-107047455D01*
X174465460Y-107047455D01*
X174613294Y-107047455D01*
X174613295Y-107047455D01*
X174758290Y-107018613D01*
X174894872Y-106962039D01*
X175017793Y-106879906D01*
X175122328Y-106775371D01*
X175204461Y-106652450D01*
X175261035Y-106515868D01*
X175289877Y-106370873D01*
X175289877Y-106223037D01*
X175261035Y-106078042D01*
X175204461Y-105941460D01*
X175122328Y-105818539D01*
X175017793Y-105714004D01*
X174894872Y-105631871D01*
X174872205Y-105622482D01*
X174758291Y-105575297D01*
X174613295Y-105546455D01*
X174465459Y-105546455D01*
X174465458Y-105546455D01*
X174320462Y-105575297D01*
X174183883Y-105631870D01*
X174060962Y-105714003D01*
X173956425Y-105818540D01*
X173874292Y-105941461D01*
X173817719Y-106078040D01*
X173788877Y-106223036D01*
X171796953Y-106223036D01*
X171796961Y-106218015D01*
X171800354Y-104098036D01*
X173663877Y-104098036D01*
X173663877Y-104245873D01*
X173692719Y-104390869D01*
X173735538Y-104494243D01*
X173749293Y-104527450D01*
X173831426Y-104650371D01*
X173935961Y-104754906D01*
X174058882Y-104837039D01*
X174195464Y-104893613D01*
X174340459Y-104922455D01*
X174340460Y-104922455D01*
X174488294Y-104922455D01*
X174488295Y-104922455D01*
X174633290Y-104893613D01*
X174769872Y-104837039D01*
X174892793Y-104754906D01*
X174997328Y-104650371D01*
X175079461Y-104527450D01*
X175136035Y-104390868D01*
X175164877Y-104245873D01*
X175164877Y-104098037D01*
X175136035Y-103953042D01*
X175079461Y-103816460D01*
X174997328Y-103693539D01*
X174892793Y-103589004D01*
X174769872Y-103506871D01*
X174769870Y-103506870D01*
X174633291Y-103450297D01*
X174488295Y-103421455D01*
X174340459Y-103421455D01*
X174340458Y-103421455D01*
X174195462Y-103450297D01*
X174058883Y-103506870D01*
X173935962Y-103589003D01*
X173831425Y-103693540D01*
X173749292Y-103816461D01*
X173692719Y-103953040D01*
X173663877Y-104098036D01*
X171800354Y-104098036D01*
X171800362Y-104093015D01*
X171802460Y-102781710D01*
X171805341Y-100981563D01*
X171800581Y-100918958D01*
X171795911Y-100888752D01*
X171781543Y-100827633D01*
X171724601Y-100714262D01*
X171724599Y-100714259D01*
X171724597Y-100714255D01*
X171694903Y-100672885D01*
X171694902Y-100672884D01*
X171688924Y-100664555D01*
X171688922Y-100664552D01*
X171599731Y-100574326D01*
X171588563Y-100568554D01*
X171577926Y-100558118D01*
X171570332Y-100543559D01*
X171558792Y-100531885D01*
X171556540Y-100517117D01*
X171549630Y-100503869D01*
X171552043Y-100487628D01*
X171549569Y-100471399D01*
X171557407Y-100451541D01*
X171558625Y-100443348D01*
X171561998Y-100439909D01*
X171564941Y-100432453D01*
X171640084Y-100319995D01*
X171696658Y-100183413D01*
X171725500Y-100038418D01*
X171725500Y-99890582D01*
X171696658Y-99745587D01*
X171640084Y-99609005D01*
X171557951Y-99486084D01*
X171453416Y-99381549D01*
X171330495Y-99299416D01*
X171330493Y-99299415D01*
X171193914Y-99242842D01*
X171048918Y-99214000D01*
X170901082Y-99214000D01*
X170901079Y-99214000D01*
X170755936Y-99242872D01*
X170695175Y-99235680D01*
X170650245Y-99194148D01*
X170638308Y-99134138D01*
X170645156Y-99107892D01*
X170671658Y-99043913D01*
X170700500Y-98898918D01*
X170700500Y-98751082D01*
X170671658Y-98606087D01*
X170615084Y-98469505D01*
X170532951Y-98346584D01*
X170428416Y-98242049D01*
X170305495Y-98159916D01*
X170305493Y-98159915D01*
X170168914Y-98103342D01*
X170023918Y-98074500D01*
X169876082Y-98074500D01*
X169876081Y-98074500D01*
X169731085Y-98103342D01*
X169594507Y-98159914D01*
X169468580Y-98244056D01*
X169409692Y-98260664D01*
X169352288Y-98239486D01*
X169318296Y-98188612D01*
X169314579Y-98161904D01*
X169313505Y-97488581D01*
X170349500Y-97488581D01*
X170349500Y-97636418D01*
X170377165Y-97775499D01*
X170378342Y-97781413D01*
X170434916Y-97917995D01*
X170517049Y-98040916D01*
X170621584Y-98145451D01*
X170744505Y-98227584D01*
X170881087Y-98284158D01*
X171026082Y-98313000D01*
X171026083Y-98313000D01*
X171173917Y-98313000D01*
X171173918Y-98313000D01*
X171318913Y-98284158D01*
X171455495Y-98227584D01*
X171578416Y-98145451D01*
X171682951Y-98040916D01*
X171765084Y-97917995D01*
X171821658Y-97781413D01*
X171850500Y-97636418D01*
X171850500Y-97488582D01*
X171821658Y-97343587D01*
X171765084Y-97207005D01*
X171682951Y-97084084D01*
X171578416Y-96979549D01*
X171535811Y-96951081D01*
X175749500Y-96951081D01*
X175749500Y-97098918D01*
X175771000Y-97207006D01*
X175778342Y-97243913D01*
X175834916Y-97380495D01*
X175917049Y-97503416D01*
X176021584Y-97607951D01*
X176144505Y-97690084D01*
X176281087Y-97746658D01*
X176426082Y-97775500D01*
X176426083Y-97775500D01*
X176573917Y-97775500D01*
X176573918Y-97775500D01*
X176718913Y-97746658D01*
X176855495Y-97690084D01*
X176978416Y-97607951D01*
X177082951Y-97503416D01*
X177165084Y-97380495D01*
X177221658Y-97243913D01*
X177250500Y-97098918D01*
X177250500Y-96951082D01*
X177221658Y-96806087D01*
X177165084Y-96669505D01*
X177082951Y-96546584D01*
X176978416Y-96442049D01*
X176855495Y-96359916D01*
X176758427Y-96319709D01*
X176718914Y-96303342D01*
X176573918Y-96274500D01*
X176426082Y-96274500D01*
X176426081Y-96274500D01*
X176281085Y-96303342D01*
X176144506Y-96359915D01*
X176021585Y-96442048D01*
X175917048Y-96546585D01*
X175834915Y-96669506D01*
X175778342Y-96806085D01*
X175749500Y-96951081D01*
X171535811Y-96951081D01*
X171455495Y-96897416D01*
X171454088Y-96896833D01*
X171318914Y-96840842D01*
X171173918Y-96812000D01*
X171026082Y-96812000D01*
X171026081Y-96812000D01*
X170881085Y-96840842D01*
X170744506Y-96897415D01*
X170621585Y-96979548D01*
X170517048Y-97084085D01*
X170434915Y-97207006D01*
X170378342Y-97343585D01*
X170349500Y-97488581D01*
X169313505Y-97488581D01*
X169312758Y-97020763D01*
X169331573Y-96962543D01*
X169381015Y-96926500D01*
X169411758Y-96921606D01*
X169563694Y-96921606D01*
X169563704Y-96921606D01*
X169627239Y-96916598D01*
X169657880Y-96911737D01*
X169719851Y-96896833D01*
X169832862Y-96839178D01*
X169882344Y-96803188D01*
X169972007Y-96713432D01*
X170029545Y-96600362D01*
X170048422Y-96542162D01*
X170048425Y-96542153D01*
X170068204Y-96416836D01*
X170068188Y-96387263D01*
X170064770Y-89776081D01*
X176099500Y-89776081D01*
X176099500Y-89923918D01*
X176128342Y-90068914D01*
X176148847Y-90118417D01*
X176184916Y-90205495D01*
X176267049Y-90328416D01*
X176371584Y-90432951D01*
X176494505Y-90515084D01*
X176631087Y-90571658D01*
X176776082Y-90600500D01*
X176776083Y-90600500D01*
X176923917Y-90600500D01*
X176923918Y-90600500D01*
X177068913Y-90571658D01*
X177205495Y-90515084D01*
X177328416Y-90432951D01*
X177432951Y-90328416D01*
X177515084Y-90205495D01*
X177571658Y-90068913D01*
X177600500Y-89923918D01*
X177600500Y-89776082D01*
X177571658Y-89631087D01*
X177515084Y-89494505D01*
X177432951Y-89371584D01*
X177328416Y-89267049D01*
X177205495Y-89184916D01*
X177205493Y-89184915D01*
X177068914Y-89128342D01*
X176923918Y-89099500D01*
X176776082Y-89099500D01*
X176776081Y-89099500D01*
X176631085Y-89128342D01*
X176494506Y-89184915D01*
X176371585Y-89267048D01*
X176267048Y-89371585D01*
X176184915Y-89494506D01*
X176128342Y-89631085D01*
X176099500Y-89776081D01*
X170064770Y-89776081D01*
X170062639Y-85654687D01*
X170057605Y-85591202D01*
X170052735Y-85560583D01*
X170037818Y-85498651D01*
X169980127Y-85385658D01*
X169944122Y-85336188D01*
X169899342Y-85291482D01*
X169854345Y-85246558D01*
X169854340Y-85246555D01*
X169741259Y-85189054D01*
X169741258Y-85189053D01*
X169741257Y-85189053D01*
X169714202Y-85180286D01*
X169690141Y-85172490D01*
X169689846Y-85172369D01*
X169683124Y-85170216D01*
X169683051Y-85170193D01*
X169683049Y-85170192D01*
X169557726Y-85150448D01*
X169557725Y-85150448D01*
X159301248Y-85158846D01*
X159243042Y-85139986D01*
X159207037Y-85090516D01*
X159202167Y-85059846D01*
X159202167Y-83050001D01*
X159202167Y-83050000D01*
X159202166Y-83050000D01*
X142551085Y-83050000D01*
X142492894Y-83031093D01*
X142456930Y-82981593D01*
X142452106Y-82948938D01*
X142460905Y-82526657D01*
X142488148Y-81219286D01*
X142508263Y-81161506D01*
X142517110Y-81151363D01*
X142568828Y-81099646D01*
X142684524Y-80940405D01*
X142704857Y-80900500D01*
X142718101Y-80874506D01*
X142740955Y-80829651D01*
X142784218Y-80786388D01*
X142844650Y-80776816D01*
X142899167Y-80804593D01*
X142917374Y-80829652D01*
X143000376Y-80992553D01*
X143000380Y-80992559D01*
X143039728Y-81046716D01*
X143039729Y-81046716D01*
X143672037Y-80414407D01*
X143689075Y-80477993D01*
X143754901Y-80592007D01*
X143847993Y-80685099D01*
X143962007Y-80750925D01*
X144025589Y-80767962D01*
X143393282Y-81400269D01*
X143393282Y-81400270D01*
X143447440Y-81439619D01*
X143447446Y-81439623D01*
X143636784Y-81536095D01*
X143838878Y-81601759D01*
X144048750Y-81635000D01*
X144261250Y-81635000D01*
X144471121Y-81601759D01*
X144673215Y-81536095D01*
X144862556Y-81439620D01*
X144916716Y-81400270D01*
X144611125Y-81094679D01*
X153303116Y-81094679D01*
X153303116Y-81242516D01*
X153331958Y-81387512D01*
X153357637Y-81449506D01*
X153388532Y-81524093D01*
X153470665Y-81647014D01*
X153575200Y-81751549D01*
X153698121Y-81833682D01*
X153834703Y-81890256D01*
X153979698Y-81919098D01*
X153979699Y-81919098D01*
X154127533Y-81919098D01*
X154127534Y-81919098D01*
X154272529Y-81890256D01*
X154409111Y-81833682D01*
X154532032Y-81751549D01*
X154636567Y-81647014D01*
X154718700Y-81524093D01*
X154775274Y-81387511D01*
X154804116Y-81242516D01*
X154804116Y-81156081D01*
X158719500Y-81156081D01*
X158719500Y-81303918D01*
X158748342Y-81448914D01*
X158804915Y-81585493D01*
X158804916Y-81585495D01*
X158887049Y-81708416D01*
X158991584Y-81812951D01*
X159114505Y-81895084D01*
X159251087Y-81951658D01*
X159396082Y-81980500D01*
X159396083Y-81980500D01*
X159543917Y-81980500D01*
X159543918Y-81980500D01*
X159688913Y-81951658D01*
X159825495Y-81895084D01*
X159948416Y-81812951D01*
X160030286Y-81731081D01*
X169644500Y-81731081D01*
X169644500Y-81878918D01*
X169673342Y-82023914D01*
X169729915Y-82160493D01*
X169729916Y-82160495D01*
X169812049Y-82283416D01*
X169916584Y-82387951D01*
X170039505Y-82470084D01*
X170176087Y-82526658D01*
X170321082Y-82555500D01*
X170321083Y-82555500D01*
X170468917Y-82555500D01*
X170468918Y-82555500D01*
X170613913Y-82526658D01*
X170750495Y-82470084D01*
X170873416Y-82387951D01*
X170977951Y-82283416D01*
X171060084Y-82160495D01*
X171116658Y-82023913D01*
X171145500Y-81878918D01*
X171145500Y-81731082D01*
X171116658Y-81586087D01*
X171060084Y-81449505D01*
X170977951Y-81326584D01*
X170873416Y-81222049D01*
X170750495Y-81139916D01*
X170726645Y-81130037D01*
X170613914Y-81083342D01*
X170468918Y-81054500D01*
X170321082Y-81054500D01*
X170321081Y-81054500D01*
X170176085Y-81083342D01*
X170039506Y-81139915D01*
X169916585Y-81222048D01*
X169812048Y-81326585D01*
X169729915Y-81449506D01*
X169673342Y-81586085D01*
X169644500Y-81731081D01*
X160030286Y-81731081D01*
X160052951Y-81708416D01*
X160135084Y-81585495D01*
X160191658Y-81448913D01*
X160220500Y-81303918D01*
X160220500Y-81156082D01*
X160191658Y-81011087D01*
X160135084Y-80874505D01*
X160052951Y-80751584D01*
X159948416Y-80647049D01*
X159825495Y-80564916D01*
X159825493Y-80564915D01*
X159688914Y-80508342D01*
X159543918Y-80479500D01*
X159396082Y-80479500D01*
X159396081Y-80479500D01*
X159251085Y-80508342D01*
X159114506Y-80564915D01*
X158991585Y-80647048D01*
X158887048Y-80751585D01*
X158804915Y-80874506D01*
X158748342Y-81011085D01*
X158719500Y-81156081D01*
X154804116Y-81156081D01*
X154804116Y-81094680D01*
X154775274Y-80949685D01*
X154718700Y-80813103D01*
X154636567Y-80690182D01*
X154532032Y-80585647D01*
X154409111Y-80503514D01*
X154401835Y-80500500D01*
X154272530Y-80446940D01*
X154127534Y-80418098D01*
X153979698Y-80418098D01*
X153979697Y-80418098D01*
X153834701Y-80446940D01*
X153698122Y-80503513D01*
X153575201Y-80585646D01*
X153470664Y-80690183D01*
X153388531Y-80813104D01*
X153331958Y-80949683D01*
X153303116Y-81094679D01*
X144611125Y-81094679D01*
X144284408Y-80767962D01*
X144347993Y-80750925D01*
X144462007Y-80685099D01*
X144555099Y-80592007D01*
X144620925Y-80477993D01*
X144637962Y-80414408D01*
X145270269Y-81046715D01*
X145281235Y-81031624D01*
X145281235Y-81031623D01*
X145309620Y-80992557D01*
X145406095Y-80803215D01*
X145471759Y-80601121D01*
X145505000Y-80391250D01*
X145505000Y-80252951D01*
X145501766Y-80158331D01*
X145488739Y-80076081D01*
X145699500Y-80076081D01*
X145699500Y-80076082D01*
X145699500Y-80223918D01*
X145702667Y-80239838D01*
X145728342Y-80368914D01*
X145782847Y-80500500D01*
X145784916Y-80505495D01*
X145867049Y-80628416D01*
X145971584Y-80732951D01*
X146094505Y-80815084D01*
X146231087Y-80871658D01*
X146376082Y-80900500D01*
X146376083Y-80900500D01*
X146523917Y-80900500D01*
X146523918Y-80900500D01*
X146668913Y-80871658D01*
X146805495Y-80815084D01*
X146928416Y-80732951D01*
X147032951Y-80628416D01*
X147115084Y-80505495D01*
X147171658Y-80368913D01*
X147200500Y-80223918D01*
X147200500Y-80076082D01*
X147171658Y-79931087D01*
X147115084Y-79794505D01*
X147032951Y-79671584D01*
X146928416Y-79567049D01*
X146904518Y-79551081D01*
X161799500Y-79551081D01*
X161799500Y-79698918D01*
X161828342Y-79843914D01*
X161884915Y-79980493D01*
X161884916Y-79980495D01*
X161967049Y-80103416D01*
X162071584Y-80207951D01*
X162194505Y-80290084D01*
X162331087Y-80346658D01*
X162476082Y-80375500D01*
X162476083Y-80375500D01*
X162623917Y-80375500D01*
X162623918Y-80375500D01*
X162768913Y-80346658D01*
X162905495Y-80290084D01*
X162982498Y-80238631D01*
X163041386Y-80222023D01*
X163092500Y-80238631D01*
X163169505Y-80290084D01*
X163306087Y-80346658D01*
X163451082Y-80375500D01*
X163451083Y-80375500D01*
X163598917Y-80375500D01*
X163598918Y-80375500D01*
X163743913Y-80346658D01*
X163880495Y-80290084D01*
X164003416Y-80207951D01*
X164107951Y-80103416D01*
X164190084Y-79980495D01*
X164246658Y-79843913D01*
X164275500Y-79698918D01*
X164275500Y-79676081D01*
X165724500Y-79676081D01*
X165724500Y-79823918D01*
X165753342Y-79968914D01*
X165758139Y-79980495D01*
X165809916Y-80105495D01*
X165892049Y-80228416D01*
X165996584Y-80332951D01*
X166119505Y-80415084D01*
X166256087Y-80471658D01*
X166401082Y-80500500D01*
X166401083Y-80500500D01*
X166548917Y-80500500D01*
X166548918Y-80500500D01*
X166693913Y-80471658D01*
X166830495Y-80415084D01*
X166907498Y-80363631D01*
X166966386Y-80347023D01*
X167017500Y-80363631D01*
X167094505Y-80415084D01*
X167231087Y-80471658D01*
X167376082Y-80500500D01*
X167376083Y-80500500D01*
X167523917Y-80500500D01*
X167523918Y-80500500D01*
X167668913Y-80471658D01*
X167805495Y-80415084D01*
X167928416Y-80332951D01*
X168032951Y-80228416D01*
X168115084Y-80105495D01*
X168171658Y-79968913D01*
X168200500Y-79823918D01*
X168200500Y-79676082D01*
X168171658Y-79531087D01*
X168115084Y-79394505D01*
X168032951Y-79271584D01*
X167928416Y-79167049D01*
X167805495Y-79084916D01*
X167805493Y-79084915D01*
X167668914Y-79028342D01*
X167523918Y-78999500D01*
X167376082Y-78999500D01*
X167376081Y-78999500D01*
X167231085Y-79028342D01*
X167094507Y-79084914D01*
X167017501Y-79136368D01*
X166958613Y-79152976D01*
X166907499Y-79136368D01*
X166830492Y-79084914D01*
X166693914Y-79028342D01*
X166548918Y-78999500D01*
X166401082Y-78999500D01*
X166401081Y-78999500D01*
X166256085Y-79028342D01*
X166119506Y-79084915D01*
X165996585Y-79167048D01*
X165892048Y-79271585D01*
X165809915Y-79394506D01*
X165753342Y-79531085D01*
X165724500Y-79676081D01*
X164275500Y-79676081D01*
X164275500Y-79551082D01*
X164246658Y-79406087D01*
X164190084Y-79269505D01*
X164107951Y-79146584D01*
X164003416Y-79042049D01*
X163880495Y-78959916D01*
X163880493Y-78959915D01*
X163743914Y-78903342D01*
X163598918Y-78874500D01*
X163451082Y-78874500D01*
X163451081Y-78874500D01*
X163306085Y-78903342D01*
X163169507Y-78959914D01*
X163092501Y-79011368D01*
X163033613Y-79027976D01*
X162982499Y-79011368D01*
X162905492Y-78959914D01*
X162768914Y-78903342D01*
X162623918Y-78874500D01*
X162476082Y-78874500D01*
X162476081Y-78874500D01*
X162331085Y-78903342D01*
X162194506Y-78959915D01*
X162071585Y-79042048D01*
X161967048Y-79146585D01*
X161884915Y-79269506D01*
X161828342Y-79406085D01*
X161799500Y-79551081D01*
X146904518Y-79551081D01*
X146805495Y-79484916D01*
X146770342Y-79470355D01*
X146668914Y-79428342D01*
X146523918Y-79399500D01*
X146376082Y-79399500D01*
X146376081Y-79399500D01*
X146231085Y-79428342D01*
X146094506Y-79484915D01*
X145971585Y-79567048D01*
X145867048Y-79671585D01*
X145784915Y-79794506D01*
X145728342Y-79931085D01*
X145699500Y-80076081D01*
X145488739Y-80076081D01*
X145471759Y-79968878D01*
X145406095Y-79766784D01*
X145309623Y-79577446D01*
X145309619Y-79577440D01*
X145270270Y-79523282D01*
X145270269Y-79523282D01*
X144637962Y-80155589D01*
X144620925Y-80092007D01*
X144555099Y-79977993D01*
X144462007Y-79884901D01*
X144347993Y-79819075D01*
X144284407Y-79802037D01*
X144916716Y-79169729D01*
X144916716Y-79169728D01*
X144862559Y-79130380D01*
X144862553Y-79130376D01*
X144673215Y-79033904D01*
X144471121Y-78968240D01*
X144261250Y-78935000D01*
X144048750Y-78935000D01*
X143838878Y-78968240D01*
X143636784Y-79033904D01*
X143447446Y-79130376D01*
X143447442Y-79130378D01*
X143393282Y-79169728D01*
X144025591Y-79802037D01*
X143962007Y-79819075D01*
X143847993Y-79884901D01*
X143754901Y-79977993D01*
X143689075Y-80092007D01*
X143672037Y-80155591D01*
X143039728Y-79523282D01*
X143000378Y-79577442D01*
X143000370Y-79577456D01*
X142917373Y-79740347D01*
X142874109Y-79783612D01*
X142813677Y-79793183D01*
X142759160Y-79765405D01*
X142740954Y-79740346D01*
X142684527Y-79629600D01*
X142684526Y-79629598D01*
X142684524Y-79629595D01*
X142568828Y-79470354D01*
X142555346Y-79456872D01*
X142535030Y-79427403D01*
X142525910Y-79407080D01*
X142526618Y-79373130D01*
X142515612Y-79384130D01*
X142491047Y-79329386D01*
X142489479Y-79314883D01*
X142482373Y-79289473D01*
X142473054Y-77786293D01*
X142491600Y-77727989D01*
X142540876Y-77691719D01*
X142602060Y-77691340D01*
X142627054Y-77703367D01*
X142682005Y-77740084D01*
X142818587Y-77796658D01*
X142963582Y-77825500D01*
X142963583Y-77825500D01*
X143111417Y-77825500D01*
X143111418Y-77825500D01*
X143256413Y-77796658D01*
X143392995Y-77740084D01*
X143515916Y-77657951D01*
X143604188Y-77569679D01*
X150903116Y-77569679D01*
X150903116Y-77717516D01*
X150918858Y-77796657D01*
X150931958Y-77862511D01*
X150988532Y-77999093D01*
X151070665Y-78122014D01*
X151175200Y-78226549D01*
X151298121Y-78308682D01*
X151434703Y-78365256D01*
X151579698Y-78394098D01*
X151579699Y-78394098D01*
X151727533Y-78394098D01*
X151727534Y-78394098D01*
X151872529Y-78365256D01*
X152009111Y-78308682D01*
X152132032Y-78226549D01*
X152236567Y-78122014D01*
X152318700Y-77999093D01*
X152375274Y-77862511D01*
X152404116Y-77717516D01*
X152404116Y-77569680D01*
X152375274Y-77424685D01*
X152318700Y-77288103D01*
X152236567Y-77165182D01*
X152132032Y-77060647D01*
X152009111Y-76978514D01*
X152009109Y-76978513D01*
X151872530Y-76921940D01*
X151727534Y-76893098D01*
X151579698Y-76893098D01*
X151579697Y-76893098D01*
X151434701Y-76921940D01*
X151298122Y-76978513D01*
X151175201Y-77060646D01*
X151070664Y-77165183D01*
X150988531Y-77288104D01*
X150931958Y-77424683D01*
X150903116Y-77569679D01*
X143604188Y-77569679D01*
X143620451Y-77553416D01*
X143702584Y-77430495D01*
X143759158Y-77293913D01*
X143788000Y-77148918D01*
X143788000Y-77001082D01*
X143759158Y-76856087D01*
X143702584Y-76719505D01*
X143620451Y-76596584D01*
X143515916Y-76492049D01*
X143392995Y-76409916D01*
X143392993Y-76409915D01*
X143256414Y-76353342D01*
X143111418Y-76324500D01*
X142963582Y-76324500D01*
X142963581Y-76324500D01*
X142818585Y-76353342D01*
X142682006Y-76409914D01*
X142618278Y-76452496D01*
X142559389Y-76469104D01*
X142501986Y-76447926D01*
X142467994Y-76397052D01*
X142464280Y-76370803D01*
X142455329Y-74926812D01*
X142473875Y-74868506D01*
X142523151Y-74832236D01*
X142554731Y-74827200D01*
X186607533Y-75009379D01*
G37*
G04 #@! TD.AperFunction*
G04 #@! TD*
G04 #@! TA.AperFunction,Conductor*
G04 #@! TO.N,/VBUS*
G36*
X131892135Y-73735578D02*
G01*
X131928786Y-73784571D01*
X131934059Y-73815131D01*
X132074964Y-84191723D01*
X132056848Y-84250165D01*
X132007841Y-84286798D01*
X131974766Y-84292060D01*
X129033666Y-84256192D01*
X128975710Y-84236576D01*
X128940352Y-84186641D01*
X128937776Y-84137883D01*
X128950499Y-84073925D01*
X128950500Y-84073916D01*
X128950500Y-83926083D01*
X128950500Y-83926082D01*
X128921658Y-83781087D01*
X128865084Y-83644505D01*
X128782951Y-83521584D01*
X128678416Y-83417049D01*
X128555495Y-83334916D01*
X128555493Y-83334915D01*
X128418914Y-83278342D01*
X128273918Y-83249500D01*
X128126082Y-83249500D01*
X128126081Y-83249500D01*
X127981085Y-83278342D01*
X127844506Y-83334915D01*
X127721585Y-83417048D01*
X127617048Y-83521585D01*
X127534915Y-83644506D01*
X127478342Y-83781085D01*
X127449500Y-83926081D01*
X127449500Y-84073923D01*
X127458163Y-84117474D01*
X127450971Y-84178235D01*
X127409438Y-84223165D01*
X127359858Y-84235780D01*
X121677972Y-84166489D01*
X121620016Y-84146873D01*
X121587714Y-84105378D01*
X121581241Y-84089749D01*
X121548494Y-84040740D01*
X121499107Y-83966827D01*
X121394572Y-83862292D01*
X121271651Y-83780159D01*
X121239465Y-83766827D01*
X121135070Y-83723585D01*
X120990074Y-83694743D01*
X120842238Y-83694743D01*
X120842237Y-83694743D01*
X120697241Y-83723585D01*
X120560662Y-83780158D01*
X120437741Y-83862291D01*
X120333204Y-83966828D01*
X120251070Y-84089749D01*
X120248777Y-84094041D01*
X120246969Y-84093074D01*
X120212506Y-84133404D01*
X120159595Y-84147971D01*
X119914449Y-84144982D01*
X119856493Y-84125366D01*
X119821135Y-84075431D01*
X119816656Y-84045989D01*
X119816656Y-83946326D01*
X119816656Y-83946325D01*
X119787814Y-83801330D01*
X119731240Y-83664748D01*
X119649107Y-83541827D01*
X119544572Y-83437292D01*
X119421651Y-83355159D01*
X119421649Y-83355158D01*
X119285070Y-83298585D01*
X119140074Y-83269743D01*
X118992238Y-83269743D01*
X118992237Y-83269743D01*
X118847241Y-83298585D01*
X118710662Y-83355158D01*
X118587741Y-83437291D01*
X118483204Y-83541828D01*
X118401071Y-83664749D01*
X118344498Y-83801328D01*
X118315656Y-83946324D01*
X118315656Y-84025269D01*
X118310629Y-84040740D01*
X118310431Y-84057007D01*
X118301412Y-84069106D01*
X118296749Y-84083460D01*
X118283586Y-84093022D01*
X118273866Y-84106065D01*
X118259459Y-84110552D01*
X118247249Y-84119424D01*
X118215449Y-84124262D01*
X118112085Y-84123002D01*
X118054129Y-84103386D01*
X118018772Y-84053452D01*
X118016194Y-84043323D01*
X118015680Y-84040740D01*
X118012814Y-84026330D01*
X117956240Y-83889748D01*
X117933153Y-83855196D01*
X117916473Y-83800772D01*
X117896243Y-80301082D01*
X123274500Y-80301082D01*
X123274500Y-80448918D01*
X123303342Y-80593913D01*
X123359916Y-80730495D01*
X123442049Y-80853416D01*
X123546584Y-80957951D01*
X123669505Y-81040084D01*
X123806087Y-81096658D01*
X123951082Y-81125500D01*
X123951083Y-81125500D01*
X124098917Y-81125500D01*
X124098918Y-81125500D01*
X124243913Y-81096658D01*
X124380495Y-81040084D01*
X124503416Y-80957951D01*
X124607951Y-80853416D01*
X124690084Y-80730495D01*
X124746658Y-80593913D01*
X124775500Y-80448918D01*
X124775500Y-80301082D01*
X124746658Y-80156087D01*
X124690084Y-80019505D01*
X124607951Y-79896584D01*
X124503416Y-79792049D01*
X124380495Y-79709916D01*
X124380493Y-79709915D01*
X124243914Y-79653342D01*
X124098918Y-79624500D01*
X123951082Y-79624500D01*
X123951081Y-79624500D01*
X123806085Y-79653342D01*
X123669506Y-79709915D01*
X123546585Y-79792048D01*
X123442048Y-79896585D01*
X123359915Y-80019506D01*
X123303342Y-80156085D01*
X123303342Y-80156087D01*
X123274500Y-80301082D01*
X117896243Y-80301082D01*
X117876094Y-76815482D01*
X117894664Y-76757187D01*
X117905083Y-76744916D01*
X117950000Y-76700000D01*
X118645716Y-75944076D01*
X118699031Y-75914066D01*
X118759808Y-75921125D01*
X118804828Y-75962559D01*
X118805863Y-75964445D01*
X118806985Y-75966544D01*
X118905534Y-76114033D01*
X118905536Y-76114035D01*
X119030965Y-76239464D01*
X119178453Y-76338013D01*
X119178454Y-76338013D01*
X119178455Y-76338014D01*
X119215581Y-76353391D01*
X119342334Y-76405894D01*
X119433018Y-76423932D01*
X119444604Y-76426237D01*
X119497988Y-76456134D01*
X119523604Y-76511699D01*
X119511667Y-76571709D01*
X119495294Y-76593338D01*
X119417050Y-76671582D01*
X119334915Y-76794506D01*
X119278342Y-76931085D01*
X119249500Y-77076081D01*
X119249500Y-77223918D01*
X119278342Y-77368914D01*
X119334915Y-77505493D01*
X119334916Y-77505495D01*
X119417049Y-77628416D01*
X119521584Y-77732951D01*
X119644505Y-77815084D01*
X119781087Y-77871658D01*
X119926082Y-77900500D01*
X119926083Y-77900500D01*
X120073917Y-77900500D01*
X120073918Y-77900500D01*
X120218913Y-77871658D01*
X120355495Y-77815084D01*
X120478416Y-77732951D01*
X120582951Y-77628416D01*
X120665084Y-77505495D01*
X120721658Y-77368913D01*
X120750500Y-77223918D01*
X120750500Y-77076082D01*
X120721658Y-76931087D01*
X120665084Y-76794505D01*
X120582951Y-76671584D01*
X120478416Y-76567049D01*
X120355495Y-76484916D01*
X120350860Y-76482996D01*
X120218914Y-76428342D01*
X120218907Y-76428340D01*
X120204765Y-76425527D01*
X120151382Y-76395629D01*
X120125768Y-76340063D01*
X120137706Y-76280054D01*
X120169081Y-76246114D01*
X120179035Y-76239464D01*
X120304464Y-76114035D01*
X120403013Y-75966547D01*
X120470894Y-75802666D01*
X120505500Y-75628691D01*
X120505500Y-75027528D01*
X120524407Y-74969337D01*
X120573907Y-74933373D01*
X120635093Y-74933373D01*
X120670134Y-74954846D01*
X120670349Y-74954567D01*
X120673006Y-74956606D01*
X120674501Y-74957522D01*
X120675495Y-74958516D01*
X120675497Y-74958517D01*
X120675499Y-74958519D01*
X120809002Y-75035597D01*
X120809003Y-75035597D01*
X120809006Y-75035599D01*
X120957917Y-75075500D01*
X120957918Y-75075500D01*
X121112082Y-75075500D01*
X121112083Y-75075500D01*
X121260994Y-75035599D01*
X121260996Y-75035597D01*
X121260998Y-75035597D01*
X121394500Y-74958519D01*
X121394500Y-74958518D01*
X121394505Y-74958516D01*
X121503516Y-74849505D01*
X121580599Y-74715994D01*
X121620500Y-74567083D01*
X121620500Y-74412917D01*
X121580599Y-74264006D01*
X121580597Y-74264003D01*
X121580597Y-74264001D01*
X121503519Y-74130499D01*
X121503517Y-74130497D01*
X121503516Y-74130495D01*
X121404130Y-74031109D01*
X121376355Y-73976595D01*
X121385926Y-73916163D01*
X121429191Y-73872898D01*
X121472750Y-73862118D01*
X126481799Y-73792195D01*
X126540245Y-73810287D01*
X126576896Y-73859280D01*
X126577750Y-73920459D01*
X126542481Y-73970457D01*
X126532679Y-73976920D01*
X126455497Y-74021482D01*
X126346480Y-74130499D01*
X126269402Y-74264001D01*
X126229500Y-74412917D01*
X126229500Y-74567082D01*
X126269402Y-74715998D01*
X126346480Y-74849500D01*
X126346482Y-74849502D01*
X126346484Y-74849505D01*
X126455495Y-74958516D01*
X126455497Y-74958517D01*
X126455499Y-74958519D01*
X126589002Y-75035597D01*
X126589003Y-75035597D01*
X126589006Y-75035599D01*
X126737917Y-75075500D01*
X126737918Y-75075500D01*
X126892082Y-75075500D01*
X126892083Y-75075500D01*
X127040994Y-75035599D01*
X127040996Y-75035597D01*
X127040998Y-75035597D01*
X127174500Y-74958519D01*
X127174500Y-74958518D01*
X127174505Y-74958516D01*
X127175498Y-74957522D01*
X127176393Y-74957066D01*
X127179651Y-74954567D01*
X127180114Y-74955170D01*
X127230013Y-74929747D01*
X127290445Y-74939318D01*
X127333710Y-74982583D01*
X127344500Y-75027528D01*
X127344500Y-75628693D01*
X127379106Y-75802665D01*
X127379106Y-75802667D01*
X127446985Y-75966544D01*
X127446985Y-75966545D01*
X127545535Y-76114034D01*
X127670965Y-76239464D01*
X127818444Y-76338008D01*
X127822735Y-76340301D01*
X127821653Y-76342324D01*
X127861392Y-76376249D01*
X127875690Y-76435741D01*
X127859309Y-76482996D01*
X127834916Y-76519503D01*
X127834915Y-76519504D01*
X127778342Y-76656085D01*
X127775259Y-76671584D01*
X127749500Y-76801082D01*
X127749500Y-76948918D01*
X127778342Y-77093913D01*
X127834916Y-77230495D01*
X127917049Y-77353416D01*
X128021584Y-77457951D01*
X128144505Y-77540084D01*
X128281087Y-77596658D01*
X128426082Y-77625500D01*
X128426083Y-77625500D01*
X128573917Y-77625500D01*
X128573918Y-77625500D01*
X128718913Y-77596658D01*
X128855495Y-77540084D01*
X128978416Y-77457951D01*
X129082951Y-77353416D01*
X129165084Y-77230495D01*
X129221658Y-77093913D01*
X129250500Y-76948918D01*
X129250500Y-76801082D01*
X129221658Y-76656087D01*
X129165084Y-76519505D01*
X129082951Y-76396584D01*
X128978416Y-76292049D01*
X128951651Y-76274165D01*
X128913773Y-76226116D01*
X128911371Y-76164977D01*
X128936652Y-76121846D01*
X128944464Y-76114035D01*
X129043013Y-75966547D01*
X129110894Y-75802666D01*
X129145500Y-75628691D01*
X129145500Y-74351309D01*
X129110894Y-74177334D01*
X129043014Y-74013455D01*
X129043014Y-74013454D01*
X128974065Y-73910266D01*
X128957456Y-73851378D01*
X128978633Y-73793974D01*
X129029507Y-73759981D01*
X129054994Y-73756274D01*
X131833687Y-73717485D01*
X131892135Y-73735578D01*
G37*
G04 #@! TD.AperFunction*
G04 #@! TD*
M02*
